<svg width="520" height="135" viewBox="0 0 520 135" fill="none" xmlns="http://www.w3.org/2000/svg">
<path opacity="0.25" d="M0.228386 51.6417C0.228386 43.3819 1.4562 36.0819 3.91184 29.7419C6.41212 23.4019 9.82769 18.0442 14.1585 13.6687C18.4894 9.29316 23.4453 5.98921 29.0263 3.75682C34.6519 1.52442 40.5678 0.408221 46.7738 0.408221C51.7744 0.408221 55.9713 0.676108 59.3646 1.21188C62.8025 1.70301 65.6153 2.23879 67.803 2.81921C69.9908 3.39963 71.7544 3.84611 73.0938 4.15865L70.8168 18.1558C70.1024 17.7093 68.8746 17.0842 67.1333 16.2806C65.392 15.4769 62.9587 14.7402 59.8334 14.0705C56.708 13.3561 52.6897 12.9989 47.7784 12.9989C41.3491 12.9989 35.7458 14.5393 30.9685 17.62C26.1912 20.6561 22.4854 25.0092 19.8511 30.6795C17.2616 36.3052 15.9668 42.98 15.9668 50.7041C15.9668 58.2943 17.2392 65.0361 19.7842 70.9296C22.3738 76.7785 26.0795 81.3772 30.9015 84.7258C35.7235 88.0744 41.4607 89.7487 48.1133 89.7487C51.4172 89.7487 54.6989 89.4362 57.9582 88.8111C61.2621 88.186 64.1865 87.4047 66.7315 86.4671C69.3211 85.5295 71.1963 84.5696 72.3571 83.5873V96.8477C70.4373 97.6068 68.3165 98.3881 65.9948 99.1918C63.6731 99.9954 60.9942 100.665 57.9582 101.201C54.9667 101.781 51.4172 102.072 47.3096 102.072C37.7996 102.072 29.5174 99.9731 22.4631 95.7762C15.4087 91.5346 9.93931 85.6411 6.05494 78.0956C2.17057 70.5055 0.228386 61.6875 0.228386 51.6417ZM119.123 102.072C113.051 102.072 107.894 101 103.653 98.8569C99.4113 96.7138 95.9734 93.7894 93.3392 90.0836C90.705 86.3778 88.7851 82.1363 87.5796 77.3589C86.4188 72.5369 85.8607 67.4694 85.9053 62.1563C86.0393 54.1643 87.6243 47.4448 90.6603 41.9978C93.6964 36.5507 97.804 32.4431 102.983 29.6749C108.162 26.8621 113.989 25.4557 120.463 25.4557C128.589 25.4557 135.085 27.3086 139.952 31.0144C144.863 34.6755 148.39 39.5421 150.533 45.6142C152.721 51.6417 153.77 58.1826 153.681 65.237C153.547 73.229 151.962 79.9708 148.926 85.4625C145.934 90.9096 141.849 95.0395 136.67 97.8523C131.535 100.665 125.687 102.072 119.123 102.072ZM119.525 91.1551C125.642 91.2444 130.241 88.9451 133.321 84.257C136.447 79.5243 138.009 72.9834 138.009 64.6343C138.009 59.4551 137.384 54.7671 136.134 50.5702C134.884 46.3286 132.92 42.9354 130.241 40.3904C127.606 37.8455 124.213 36.5507 120.061 36.5061C113.989 36.3721 109.412 38.5599 106.332 43.0693C103.251 47.5788 101.711 54.0081 101.711 62.3572C101.711 67.5364 102.336 72.2914 103.586 76.6222C104.836 80.9531 106.778 84.4356 109.412 87.0698C112.047 89.7041 115.418 91.0658 119.525 91.1551ZM171.379 101V26.5273H185.242L185.309 34.4299C187.14 33.1798 189.439 31.8627 192.207 30.4786C195.02 29.0945 198.034 27.9113 201.249 26.9291C204.508 25.9468 207.745 25.4111 210.96 25.3218C218.952 25.0985 224.689 27.1747 228.171 31.5502C231.654 35.881 233.395 43.5158 233.395 54.4545V101H217.858V55.2582C217.858 49.0075 217.009 44.5204 215.313 41.7968C213.661 39.0733 210.044 37.8678 204.463 38.1804C202.901 38.225 201.092 38.5152 199.039 39.051C197.029 39.5421 194.953 40.2788 192.81 41.2611C190.712 42.1987 188.703 43.4042 186.783 44.8776V101H171.379ZM249.717 64.5673C249.717 57.2004 251.057 50.5702 253.736 44.6766C256.415 38.7831 260.433 34.1174 265.791 30.6795C271.148 27.197 277.846 25.4557 285.882 25.4557C290.57 25.4557 294.544 25.8799 297.803 26.7282C301.063 27.5765 303.295 28.4025 304.5 29.2061L302.09 41.395C300.214 40.1002 297.96 39.1403 295.325 38.5152C292.691 37.8455 289.499 37.5106 285.748 37.5106C282.4 37.5106 279.163 38.3366 276.037 39.9886C272.912 41.5959 270.3 44.1855 268.202 47.7573C266.103 51.3292 264.942 56.0395 264.719 61.8884C264.541 68.0498 265.344 73.2513 267.13 77.4929C268.961 81.6898 271.461 84.8821 274.631 87.0698C277.846 89.2129 281.418 90.2845 285.347 90.2845C289.052 90.2845 292.468 89.8157 295.593 88.8781C298.763 87.9405 301.152 86.9806 302.759 85.9983L305.706 94.9725C303.429 97.1156 300.214 98.8346 296.062 100.129C291.91 101.424 287.49 102.072 282.802 102.072C275.703 102.072 269.697 100.42 264.786 97.1156C259.875 93.8117 256.124 89.3469 253.535 83.7213C250.99 78.051 249.717 71.6663 249.717 64.5673ZM349.811 102.072C339.096 102.072 330.836 98.6783 325.032 91.8918C319.227 85.1053 316.325 75.6846 316.325 63.6297C316.325 56.3967 317.598 49.9228 320.143 44.2078C322.732 38.4929 326.527 33.9611 331.528 30.6125C336.573 27.264 342.757 25.545 350.079 25.4557C353.829 25.3664 357.357 25.9022 360.661 27.063C363.965 28.2239 366.889 29.9875 369.434 32.3538C371.979 34.6755 373.988 37.6223 375.461 41.1941C376.979 44.7659 377.805 48.9405 377.939 53.7178C377.939 56.5307 377.917 59.0533 377.872 61.2857C377.828 63.4734 377.627 65.4156 377.27 67.1122H325.299L326.639 57.3343H363.473C363.697 53.7625 363.473 50.3916 362.804 47.2216C362.179 44.0069 360.795 41.4173 358.651 39.4528C356.553 37.4437 353.428 36.4391 349.275 36.4391C345.793 36.4391 342.667 37.4214 339.899 39.3859C337.131 41.3057 334.988 44.565 333.47 49.1638C331.952 53.7625 331.327 60.0579 331.595 68.0498C331.863 73.6755 333.001 78.1179 335.01 81.3772C337.02 84.6365 339.654 86.9582 342.913 88.3423C346.172 89.7264 349.811 90.4184 353.829 90.4184C355.526 90.4184 357.602 90.2398 360.058 89.8827C362.513 89.4808 364.88 88.9897 367.157 88.4093C369.479 87.7842 371.242 87.1145 372.448 86.4001L375.394 95.2404C373.742 96.5799 371.488 97.763 368.63 98.7899C365.817 99.8168 362.759 100.62 359.455 101.201C356.151 101.781 352.937 102.072 349.811 102.072ZM395.301 134.084V26.3933H409.365V35.5015L410.704 37.1088V94.8386L410.57 97.9193L410.704 110.108V134.084H395.301ZM422.826 102.072C418.227 102.072 414.388 101.491 411.307 100.33C408.226 99.1694 406.24 98.2318 405.347 97.5175L410.704 87.6056C412.133 88.8111 413.919 89.6818 416.062 90.2175C418.25 90.7087 420.862 90.9542 423.898 90.9542C427.737 90.9542 431.198 89.8827 434.278 87.7396C437.359 85.5518 439.792 82.3818 441.578 78.2296C443.409 74.0327 444.369 68.9205 444.458 62.893C444.547 53.9634 442.985 47.4895 439.77 43.4711C436.6 39.4082 432.158 37.3767 426.443 37.3767C422.96 37.3767 419.857 38.0464 417.134 39.3859C414.455 40.6807 412.312 41.9531 410.704 43.2033L408.293 35.5685C409.32 34.4969 410.727 33.1575 412.513 31.5502C414.298 29.9428 416.665 28.5364 419.612 27.3309C422.558 26.0808 426.264 25.4557 430.729 25.4557C435.997 25.4557 440.864 26.7505 445.329 29.3401C449.838 31.885 453.455 35.7917 456.178 41.0602C458.902 46.284 460.264 52.9142 460.264 60.9508C460.264 69.0321 458.701 76.1758 455.575 82.3818C452.495 88.5432 448.142 93.3652 442.516 96.8477C436.935 100.33 430.372 102.072 422.826 102.072ZM498.746 102.072C495.219 102.072 492.116 101.513 489.437 100.397C486.758 99.2811 484.66 97.3165 483.142 94.5037C481.668 91.6463 480.932 87.6056 480.932 82.3818V37.7785H471.288V29.474C474.592 28.5364 477.114 27.7551 478.856 27.13C480.597 26.4603 481.869 25.0539 482.673 22.9108C483.03 21.9285 483.432 20.7677 483.878 19.4282C484.325 18.0442 484.816 16.5261 485.352 14.8742C485.888 13.1775 486.468 11.347 487.093 9.38246H496.335V26.3933H517.23V37.7785H496.335V74.2112C496.335 79.0332 496.536 82.5604 496.938 84.7928C497.384 86.9806 498.188 88.387 499.349 89.012C500.554 89.5925 502.318 89.8827 504.64 89.8827C505.89 89.8827 507.319 89.7487 508.926 89.4808C510.578 89.1683 512.141 88.7888 513.614 88.3423C515.132 87.8958 516.293 87.427 517.096 86.9359L519.641 95.7762C518.302 96.8031 516.494 97.8077 514.217 98.7899C511.984 99.7275 509.506 100.509 506.783 101.134C504.104 101.759 501.425 102.072 498.746 102.072Z" fill="#DAE2C2"/>
</svg>
