<svg width="1280" height="1000" viewBox="0 0 1280 1000" fill="none" xmlns="http://www.w3.org/2000/svg">
<g clip-path="url(#clip0_638733_4838)">
<path fill-rule="evenodd" clip-rule="evenodd" d="M1280 277.556L1343.95 281.079L1356.23 58.1913C1330.08 57.409 1302.21 55.6829 1275.34 52.9906C1258.5 51.3069 1238.29 48.1949 1214.75 44.5704C1133.68 32.0902 1013.14 13.534 855.15 26.2921C778.285 32.5015 707.18 44.6399 641.026 57.5187C633.02 59.0773 624.688 60.7254 616.034 62.4371C527.849 79.8799 406.294 103.923 256.908 107.144C94.9788 110.624 -33.9201 87.2537 -145.705 66.986C-252.186 47.6798 -343.139 31.1892 -432.321 43.4034L-440 182.803L0 207.043V1004.76H1280V277.556Z" fill="#F0F5E1"/>
<path opacity="0.5" fill-rule="evenodd" clip-rule="evenodd" d="M1343.95 261.079L-440 162.803L-432.321 23.4032C-249.516 -1.63359 -59.268 93.9394 256.908 87.1441C420.954 83.607 551.438 54.9604 641.026 37.5185C707.18 24.6397 778.285 12.5014 855.15 6.29191C1059.02 -10.1713 1200.53 25.5091 1275.34 32.9904C1302.21 35.6827 1330.08 37.4088 1356.23 38.1911L1343.95 261.079Z" fill="#F0F5E1"/>
</g>
<defs>
<clipPath id="clip0_638733_4838">
<rect width="1280" height="1000" fill="white"/>
</clipPath>
</defs>
</svg>
