<svg width="123" height="58" viewBox="0 0 123 58" fill="none" xmlns="http://www.w3.org/2000/svg">
<path fill-rule="evenodd" clip-rule="evenodd" d="M8.5957 7.99023C9.83834 7.99023 10.8457 6.98288 10.8457 5.74023C10.8457 4.49759 9.83834 3.49023 8.5957 3.49023C7.35306 3.49023 6.3457 4.49759 6.3457 5.74023C6.3457 6.98288 7.35306 7.99023 8.5957 7.99023ZM19.627 15.9043C19.627 17.1469 18.6196 18.1543 17.377 18.1543C16.1343 18.1543 15.127 17.1469 15.127 15.9043C15.127 14.6617 16.1343 13.6543 17.377 13.6543C18.6196 13.6543 19.627 14.6617 19.627 15.9043ZM0.381836 16.3811C0.381836 15.8289 0.829551 15.3811 1.38184 15.3811H3.54675L5.94857 9.22904C6.18153 8.63234 6.7621 8.24441 7.40253 8.25752L8.35302 8.27698C8.77538 8.28563 9.18615 8.41671 9.53546 8.65431L14.1725 11.8084L14.6751 12.1219C15.1392 12.4115 15.299 13.0116 15.0404 13.4937C14.7508 14.0334 14.0593 14.2064 13.5497 13.8666L13.0002 13.5003L9.88184 11.8084L8.54482 15.3811H11.9747C12.6121 15.3811 13.2216 15.6422 13.6613 16.1036L16.2033 18.7706C16.2651 18.8354 16.3507 18.8721 16.4402 18.8721H20.6091C21.1664 18.8721 21.6182 19.3238 21.6182 19.8811C21.6182 20.4384 21.1664 20.8902 20.6091 20.8902L15.7818 20.8902L15.581 20.8902C15.5807 20.8902 15.5803 20.8902 15.5799 20.8902H1.38183C0.82955 20.8902 0.381836 20.4425 0.381836 19.8902V19.4175V18.9084V16.3811Z" fill="#468459"/>
<path d="M35.432 22.336C37.736 22.336 39.632 21.424 41.096 19.72L39.224 17.512C38.264 18.544 37.088 19.264 35.552 19.264C32.744 19.264 30.92 16.936 30.92 13.072C30.92 9.256 32.936 6.952 35.624 6.952C36.968 6.952 38 7.576 38.912 8.44L40.76 6.184C39.608 4.984 37.808 3.904 35.552 3.904C31.064 3.904 27.296 7.336 27.296 13.192C27.296 19.12 30.944 22.336 35.432 22.336ZM49.2854 22.336C52.6454 22.336 55.7414 19.744 55.7414 15.28C55.7414 10.816 52.6454 8.224 49.2854 8.224C45.9254 8.224 42.8294 10.816 42.8294 15.28C42.8294 19.744 45.9254 22.336 49.2854 22.336ZM49.2854 19.456C47.4614 19.456 46.4294 17.824 46.4294 15.28C46.4294 12.76 47.4614 11.104 49.2854 11.104C51.1094 11.104 52.1414 12.76 52.1414 15.28C52.1414 17.824 51.1094 19.456 49.2854 19.456ZM58.6929 22H62.2209V12.76C63.2049 11.776 63.9009 11.248 65.0049 11.248C66.3249 11.248 66.9009 11.968 66.9009 14.056V22H70.4289V13.624C70.4289 10.24 69.1809 8.224 66.2769 8.224C64.4529 8.224 63.0849 9.184 61.9089 10.336H61.8369L61.5729 8.56H58.6929V22ZM79.7799 22.336C81.2679 22.336 82.8999 21.832 84.1959 20.704L82.7799 18.376C82.0359 19 81.1239 19.456 80.1639 19.456C78.2439 19.456 76.8279 17.824 76.8279 15.28C76.8279 12.76 78.2199 11.104 80.2839 11.104C81.0279 11.104 81.6519 11.416 82.3239 11.992L84.0039 9.712C83.0199 8.872 81.7479 8.224 80.0919 8.224C76.4439 8.224 73.2279 10.816 73.2279 15.28C73.2279 19.744 76.0599 22.336 79.7799 22.336ZM91.8536 22.336C93.5096 22.336 95.2136 21.76 96.5336 20.848L95.3336 18.688C94.3736 19.288 93.4136 19.624 92.3096 19.624C90.3176 19.624 88.8776 18.472 88.5896 16.264H96.8696C96.9656 15.952 97.0376 15.304 97.0376 14.632C97.0376 10.936 95.1176 8.224 91.4216 8.224C88.2296 8.224 85.1576 10.936 85.1576 15.28C85.1576 19.72 88.0856 22.336 91.8536 22.336ZM88.5416 13.912C88.8056 11.968 90.0536 10.96 91.4696 10.96C93.1976 10.96 94.0136 12.112 94.0136 13.912H88.5416ZM99.9429 27.16H103.471V23.08L103.351 20.872C104.383 21.808 105.511 22.336 106.687 22.336C109.639 22.336 112.399 19.672 112.399 15.064C112.399 10.936 110.431 8.224 107.119 8.224C105.679 8.224 104.287 8.992 103.159 9.952H103.087L102.823 8.56H99.9429V27.16ZM105.895 19.432C105.175 19.432 104.311 19.168 103.471 18.424V12.52C104.383 11.584 105.199 11.128 106.111 11.128C107.959 11.128 108.775 12.544 108.775 15.112C108.775 18.04 107.527 19.432 105.895 19.432ZM119.629 22.336C120.805 22.336 121.741 22.072 122.461 21.832L121.885 19.264C121.525 19.408 120.997 19.552 120.565 19.552C119.365 19.552 118.741 18.832 118.741 17.296V11.344H122.053V8.56H118.741V4.936H115.812L115.405 8.56L113.317 8.728V11.344H115.213V17.296C115.213 20.296 116.437 22.336 119.629 22.336Z" fill="#468459"/>
<path d="M10.8 50.864C11.952 52.04 13.248 53.672 13.752 54.776L15.192 53.864C14.64 52.76 13.32 51.176 12.144 50.048L10.8 50.864ZM22.92 44.84V43.184H17.016V40.136H21.816V38.504H17.016V35.912H15.24V38.504H10.56V40.136H15.24V43.184H9.144V44.84H18.216V47.72H10.032L9.816 46.304L7.032 47.144V42.44H9.504V40.76H7.032V35.936H5.4V40.76H3.528C3.696 39.68 3.864 38.576 3.984 37.472L2.424 37.208C2.136 40.112 1.68 43.16 0.792 45.176C1.152 45.344 1.848 45.752 2.112 45.968C2.544 44.984 2.904 43.76 3.192 42.44H5.4V47.624C3.72 48.128 2.16 48.56 0.936 48.896L1.416 50.576L5.4 49.352V57.824H7.032V48.848L9.552 48.056V49.352H18.216V55.616C18.216 55.976 18.12 56.048 17.712 56.072C17.304 56.096 16.008 56.096 14.544 56.048C14.832 56.552 15.048 57.32 15.12 57.824C16.968 57.824 18.24 57.8 18.984 57.536C19.728 57.224 19.968 56.696 19.968 55.64V49.352H22.776V47.72H19.968V44.84H22.92ZM44.136 49.16C42.888 50.192 40.776 51.464 39.072 52.4C38.04 51.392 37.224 50.24 36.6 48.944H46.656V47.336H31.368V45.296H43.608V43.832H31.368V41.84H43.608V40.376H31.368V38.384H44.328V36.872H29.544V47.336H25.344V48.944H29.544V55.568C28.416 55.736 27.36 55.904 26.496 56.024L26.952 57.656C29.808 57.176 33.912 56.48 37.728 55.808L37.656 54.224C35.544 54.584 33.36 54.944 31.368 55.28V48.944H34.776C36.792 53.624 40.44 56.624 45.936 57.896C46.152 57.416 46.656 56.672 47.04 56.336C44.304 55.784 42.024 54.8 40.2 53.384C41.952 52.52 43.992 51.296 45.6 50.12L44.136 49.16Z" fill="#468459"/>
</svg>
