<svg width="155" height="32" viewBox="0 0 155 32" fill="none" xmlns="http://www.w3.org/2000/svg">
<rect x="0.5" y="0.5" width="153.255" height="31" rx="5.5" stroke="black"/>
<path d="M27.3337 16.656H38.1277C37.4137 17.202 36.4897 18.084 35.8597 18.952L36.6997 19.442C37.6377 18.21 39.0377 16.978 40.2837 16.18C39.0377 15.382 37.6377 14.15 36.6997 12.918L35.8597 13.408C36.4897 14.276 37.4137 15.158 38.1277 15.704H27.3337V16.656ZM55.1045 10.272C54.6845 11.35 53.9145 12.834 53.2985 13.744L54.1945 14.108C54.8245 13.198 55.6085 11.84 56.1965 10.65L55.1045 10.272ZM48.4265 13.576C48.1045 12.694 47.3485 11.378 46.5645 10.398L45.6545 10.776C46.3825 11.756 47.1385 13.114 47.4325 14.01L48.4265 13.576ZM51.4505 9.782H50.3305V14.71H45.8365V15.732H54.9365V17.762H46.2985V18.77H54.9365V20.94H45.5705V21.962H54.9365V22.578H56.0145V14.71H51.4505V9.782ZM64.0505 12.288H70.1265V13.926H71.0925V11.406H67.4805V9.824H66.4725V11.406H63.1265V13.94H64.0505V12.288ZM69.9725 14.766V13.856H64.2325V14.766H69.9725ZM62.3845 10.342L62.2165 10.384H59.0805V22.564H60.0045V11.336H61.8385C61.5445 12.288 61.1385 13.534 60.7325 14.556C61.7405 15.634 61.9785 16.572 61.9785 17.328C61.9785 17.734 61.9085 18.126 61.6985 18.28C61.5865 18.35 61.4325 18.392 61.2505 18.392C61.0405 18.42 60.7605 18.406 60.4385 18.378C60.6065 18.644 60.6905 19.036 60.7045 19.302C61.0265 19.316 61.3625 19.302 61.6425 19.274C61.9225 19.246 62.1745 19.162 62.3705 19.022C62.7485 18.756 62.9165 18.168 62.9165 17.426C62.9165 16.572 62.6785 15.564 61.6705 14.43C62.1325 13.324 62.6365 11.896 63.0565 10.748L62.3845 10.342ZM69.0485 21.444C68.7405 21.444 68.6985 21.388 68.6985 21.052V17.3H71.1345V16.362H63.2665V17.3H65.1285C64.9605 19.596 64.4705 21.01 62.1745 21.766C62.3845 21.962 62.6505 22.34 62.7485 22.578C65.3105 21.654 65.9125 19.96 66.1085 17.3H67.7185V21.052C67.7185 22.074 67.9565 22.382 68.8945 22.382H70.0985C70.9245 22.382 71.1765 21.906 71.2745 20.1C70.9945 20.044 70.5885 19.876 70.3785 19.694C70.3505 21.22 70.2945 21.444 70.0005 21.444H69.0485ZM74.4105 10.902C74.4105 11.196 74.3545 11.56 74.3125 11.882C74.1445 13.016 73.6965 15.396 73.6965 17.44C73.6965 19.316 73.9205 20.912 74.2005 21.892L75.2085 21.822L75.1665 21.332C75.1665 21.178 75.1945 20.912 75.2365 20.716C75.3625 20.058 75.8665 18.588 76.2165 17.608L75.6145 17.16C75.3905 17.706 75.0825 18.518 74.8445 19.148C74.7605 18.476 74.7325 17.916 74.7325 17.244C74.7325 15.69 75.1385 13.212 75.4045 11.938C75.4605 11.686 75.5865 11.238 75.6705 11L74.4105 10.902ZM77.8265 17.622C77.7005 18.21 77.6025 18.756 77.6025 19.26C77.6025 20.562 78.6385 21.332 80.9625 21.332C82.4045 21.332 83.5665 21.22 84.4205 21.052L84.4065 19.876C83.2865 20.128 82.2225 20.24 80.9765 20.24C79.0725 20.24 78.6525 19.624 78.6525 18.994C78.6525 18.616 78.7085 18.224 78.8345 17.72L77.8265 17.622ZM78.3025 13.212C79.8145 13.366 82.5025 13.366 83.9865 13.212V12.064C82.6005 12.26 79.8005 12.316 78.2885 12.064L78.3025 13.212ZM86.9825 14.192L87.5005 15.424C88.5925 14.99 92.1205 13.464 94.4025 13.464C96.2785 13.464 97.3285 14.598 97.3285 16.054C97.3285 18.896 94.1085 19.988 90.4825 20.086L90.9725 21.248C95.2565 21.01 98.5605 19.4 98.5605 16.068C98.5605 13.744 96.7265 12.414 94.4305 12.414C92.4005 12.414 89.6845 13.422 88.5085 13.786C87.9905 13.94 87.4865 14.094 86.9825 14.192ZM103.069 11.756L101.725 11.728C101.795 12.064 101.809 12.638 101.809 12.96C101.809 13.772 101.823 15.452 101.963 16.656C102.341 20.254 103.601 21.556 104.903 21.556C105.855 21.556 106.709 20.758 107.535 18.406L106.653 17.398C106.289 18.798 105.645 20.226 104.931 20.226C103.951 20.226 103.279 18.7 103.055 16.376C102.957 15.242 102.943 13.968 102.957 13.1C102.971 12.736 103.013 12.092 103.069 11.756ZM110.293 12.134L109.201 12.512C110.517 14.136 111.357 16.88 111.595 19.372L112.729 18.924C112.533 16.586 111.539 13.744 110.293 12.134ZM114.727 12.204L114.853 13.436C116.351 13.128 120.131 12.764 121.349 12.624C120.075 13.38 118.773 15.13 118.773 17.3C118.773 20.394 121.699 21.766 124.261 21.864L124.667 20.702C122.413 20.618 119.893 19.764 119.893 17.048C119.893 15.41 121.083 13.31 123.057 12.68C123.771 12.47 124.989 12.456 125.773 12.456V11.336C124.849 11.378 123.547 11.448 122.035 11.574C119.487 11.784 116.869 12.05 115.959 12.134C115.693 12.162 115.259 12.19 114.727 12.204Z" fill="black"/>
</svg>
