<svg width="428" height="102" viewBox="0 0 428 102" fill="none" xmlns="http://www.w3.org/2000/svg">
<path d="M0.228386 51.4039C0.228386 43.1441 1.4562 35.8441 3.91184 29.5041C6.41212 23.1641 9.82769 17.8064 14.1585 13.4309C18.4894 9.05537 23.4453 5.75142 29.0263 3.51903C34.6519 1.28663 40.5678 0.170428 46.7738 0.170428C51.7744 0.170428 55.9713 0.438315 59.3646 0.974089C62.8025 1.46522 65.6153 2.00099 67.803 2.58142C69.9908 3.16184 71.7544 3.60832 73.0938 3.92085L70.8168 17.918C70.1024 17.4715 68.8746 16.8464 67.1333 16.0428C65.392 15.2391 62.9587 14.5024 59.8334 13.8327C56.708 13.1183 52.6897 12.7611 47.7784 12.7611C41.3491 12.7611 35.7458 14.3015 30.9685 17.3822C26.1912 20.4183 22.4854 24.7714 19.8511 30.4417C17.2616 36.0674 15.9668 42.7422 15.9668 50.4663C15.9668 58.0565 17.2392 64.7983 19.7842 70.6918C22.3738 76.5407 26.0795 81.1394 30.9015 84.488C35.7235 87.8366 41.4607 89.5109 48.1133 89.5109C51.4172 89.5109 54.6989 89.1984 57.9582 88.5733C61.2621 87.9483 64.1865 87.1669 66.7315 86.2293C69.3211 85.2917 71.1963 84.3318 72.3571 83.3495V96.6099C70.4373 97.369 68.3165 98.1503 65.9948 98.954C63.6731 99.7576 60.9942 100.427 57.9582 100.963C54.9667 101.544 51.4172 101.834 47.3096 101.834C37.7996 101.834 29.5174 99.7353 22.4631 95.5384C15.4087 91.2968 9.93931 85.4033 6.05494 77.8578C2.17057 70.2677 0.228386 61.4497 0.228386 51.4039ZM119.123 101.834C113.051 101.834 107.894 100.762 103.653 98.6191C99.4113 96.476 95.9734 93.5516 93.3392 89.8458C90.705 86.14 88.7851 81.8985 87.5796 77.1211C86.4188 72.2992 85.8607 67.2316 85.9053 61.9185C86.0393 53.9265 87.6243 47.207 90.6603 41.76C93.6964 36.3129 97.804 32.2053 102.983 29.4371C108.162 26.6243 113.989 25.2179 120.463 25.2179C128.589 25.2179 135.085 27.0708 139.952 30.7766C144.863 34.4377 148.39 39.3043 150.533 45.3765C152.721 51.4039 153.77 57.9448 153.681 64.9992C153.547 72.9912 151.962 79.733 148.926 85.2247C145.934 90.6718 141.849 94.8017 136.67 97.6145C131.535 100.427 125.687 101.834 119.123 101.834ZM119.525 90.9173C125.642 91.0066 130.241 88.7073 133.321 84.0192C136.447 79.2866 138.009 72.7456 138.009 64.3965C138.009 59.2173 137.384 54.5293 136.134 50.3324C134.884 46.0908 132.92 42.6976 130.241 40.1526C127.606 37.6077 124.213 36.3129 120.061 36.2683C113.989 36.1343 109.412 38.3221 106.332 42.8315C103.251 47.341 101.711 53.7703 101.711 62.1194C101.711 67.2986 102.336 72.0536 103.586 76.3844C104.836 80.7153 106.778 84.1978 109.412 86.8321C112.047 89.4663 115.418 90.828 119.525 90.9173ZM192.274 101.834C187.408 101.834 183.479 101.075 180.487 99.5567C177.496 98.0387 175.219 95.8733 173.656 93.0604C172.094 90.203 171.022 86.8097 170.442 82.8807C169.906 78.9517 169.638 74.5985 169.638 69.8212V26.1555H185.041V69.6873C185.041 75.5808 185.488 79.9116 186.381 82.6798C187.319 85.448 188.747 87.2339 190.667 88.0375C192.632 88.8412 195.177 89.243 198.302 89.243C200.132 89.243 202.075 88.9752 204.128 88.4394C206.227 87.859 208.191 87.1892 210.022 86.4302C211.853 85.6266 213.304 84.8675 214.375 84.1532V26.1555H229.779V101.834H222.68C220.626 101.834 218.996 101.521 217.791 100.896C216.585 100.316 215.983 98.7977 215.983 96.3421V91.1183L216.25 94.065C214.241 95.4045 211.875 96.6769 209.151 97.8824C206.472 99.0433 203.66 100.003 200.713 100.762C197.766 101.477 194.953 101.834 192.274 101.834ZM266.131 45.9792L265.193 35.7995C265.863 34.4154 267.269 32.8974 269.412 31.2454C271.556 29.5488 274.078 28.0977 276.98 26.8922C279.927 25.6867 282.918 25.084 285.955 25.084C287.651 25.084 289.102 25.1509 290.308 25.2849C291.558 25.4188 292.473 25.6644 293.054 26.0216V40.4875C292.384 40.1303 291.357 39.7508 289.973 39.349C288.633 38.9472 286.446 38.7462 283.41 38.7462C280.641 38.7462 278.141 39.1481 275.909 39.9517C273.721 40.7107 271.801 41.6484 270.149 42.7646C268.497 43.8807 267.158 44.9523 266.131 45.9792ZM251.531 100.762V26.2895H264.657L265.729 35.7995L266.935 41.4251V100.762H251.531ZM302.339 96.3421L304.482 84.9568C305.151 85.448 306.535 86.1177 308.634 86.966C310.777 87.7697 313.322 88.5287 316.269 89.243C319.26 89.9128 322.341 90.2699 325.511 90.3146C329.797 90.3592 333.056 89.6225 335.289 88.1045C337.521 86.5865 338.637 84.4657 338.637 81.7422C338.637 79.8223 337.968 78.148 336.628 76.7193C335.289 75.2906 333.436 73.9735 331.069 72.768C328.748 71.5178 326.091 70.223 323.1 68.8836C319.082 67.053 315.532 65.0662 312.451 62.9231C309.371 60.78 306.96 58.2574 305.218 55.3553C303.522 52.4532 302.696 48.9706 302.74 44.9077C302.83 40.4875 304.102 36.8264 306.558 33.9243C309.058 30.9775 312.362 28.7898 316.47 27.361C320.577 25.9323 325.154 25.2179 330.199 25.2179C334.887 25.2179 338.994 25.709 342.522 26.6913C346.049 27.6289 348.371 28.4326 349.487 29.1023L347.21 40.7554C346.406 40.0857 345.156 39.4383 343.459 38.8132C341.807 38.1435 339.887 37.6077 337.7 37.2059C335.512 36.8041 333.28 36.6031 331.003 36.6031C326.448 36.6031 323.011 37.2729 320.689 38.6123C318.367 39.9071 317.162 41.7376 317.072 44.104C317.028 47.3633 318.144 49.7966 320.421 51.4039C322.743 53.0112 325.511 54.5963 328.725 56.1589C333.324 58.3913 337.476 60.6014 341.182 62.7891C344.888 64.9322 347.812 67.4102 349.956 70.223C352.143 72.9912 353.237 76.4291 353.237 80.5367C353.237 87.5018 350.849 92.7926 346.071 96.409C341.294 100.026 334.753 101.834 326.448 101.834C323.011 101.834 319.662 101.566 316.403 101.03C313.188 100.494 310.331 99.8023 307.83 98.954C305.375 98.1057 303.544 97.235 302.339 96.3421ZM399.778 101.834C389.063 101.834 380.803 98.4405 374.999 91.654C369.195 84.8675 366.293 75.4468 366.293 63.3919C366.293 56.1589 367.565 49.685 370.11 43.97C372.7 38.2551 376.495 33.7233 381.495 30.3748C386.54 27.0262 392.724 25.3072 400.046 25.2179C403.797 25.1286 407.324 25.6644 410.628 26.8252C413.932 27.9861 416.856 29.7497 419.401 32.116C421.946 34.4377 423.955 37.3845 425.429 40.9563C426.947 44.5281 427.773 48.7027 427.907 53.4801C427.907 56.2929 427.884 58.8155 427.84 61.0479C427.795 63.2356 427.594 65.1778 427.237 66.8744H375.267L376.606 57.0965H413.441C413.664 53.5247 413.441 50.1538 412.771 46.9838C412.146 43.7691 410.762 41.1795 408.619 39.215C406.52 37.2059 403.395 36.2013 399.243 36.2013C395.76 36.2013 392.635 37.1836 389.867 39.1481C387.098 41.0679 384.955 44.3272 383.437 48.926C381.919 53.5247 381.294 59.8201 381.562 67.812C381.83 73.4377 382.969 77.8801 384.978 81.1394C386.987 84.3987 389.621 86.7204 392.88 88.1045C396.14 89.4886 399.778 90.1806 403.797 90.1806C405.493 90.1806 407.57 90.0021 410.025 89.6449C412.481 89.243 414.847 88.7519 417.124 88.1715C419.446 87.5464 421.209 86.8767 422.415 86.1623L425.362 95.0026C423.71 96.3421 421.455 97.5252 418.598 98.5521C415.785 99.579 412.726 100.383 409.422 100.963C406.118 101.544 402.904 101.834 399.778 101.834Z" fill="#E7EDD4"/>
</svg>
