<svg width="342" height="105" viewBox="0 0 342 105" fill="none" xmlns="http://www.w3.org/2000/svg">
<line x1="68.2285" y1="2" x2="79.537" y2="13.3086" stroke="#468459" stroke-width="2.44444" stroke-linecap="round"/>
<line x1="68.2285" y1="10.9629" x2="79.537" y2="22.2714" stroke="#468459" stroke-width="2.44444" stroke-linecap="round"/>
<path d="M103.342 4.96V8.32C104.014 8.272 105.31 8.224 106.318 8.224H117.118V20.08C117.118 20.968 117.094 21.832 117.07 22.552H120.55C120.502 21.808 120.43 20.56 120.43 19.72V7.288C120.43 6.568 120.478 5.632 120.502 5.056C120.094 5.08 119.11 5.128 118.414 5.128H106.318C105.478 5.128 104.254 5.056 103.342 4.96ZM103.054 17.992V21.448C103.846 21.352 105.19 21.304 106.126 21.304H119.014V18.136H106.03C104.95 18.136 103.87 18.064 103.054 17.992ZM125.782 10.888V14.68C126.694 14.608 128.302 14.536 129.646 14.536C132.478 14.536 140.374 14.536 142.558 14.536C143.566 14.536 144.79 14.656 145.366 14.68V10.888C144.718 10.936 143.662 11.056 142.534 11.056C140.398 11.056 132.478 11.056 129.646 11.056C128.398 11.056 126.67 10.96 125.782 10.888ZM166.394 5.752L164.45 4.288C163.946 4.456 163.01 4.576 161.954 4.576C160.898 4.576 154.754 4.576 153.482 4.576C152.786 4.576 151.298 4.504 150.65 4.408V7.84C151.178 7.792 152.498 7.672 153.482 7.672C154.514 7.672 160.634 7.672 161.642 7.672C161.09 9.376 159.626 11.752 158.042 13.552C155.786 16.048 152.09 18.976 148.202 20.416L150.698 23.008C154.418 21.256 158.042 18.28 160.73 15.184C162.794 12.784 164.57 9.52 165.554 7.24C165.77 6.736 166.202 6.016 166.394 5.752ZM161.042 13.192L158.786 15.424C161.354 17.752 163.97 20.608 165.746 23.08L168.482 20.704C166.922 18.784 163.514 15.208 161.042 13.192ZM182.402 9.832C180.698 9.832 179.33 11.2 179.33 12.88C179.33 14.584 180.698 15.952 182.402 15.952C184.082 15.952 185.45 14.584 185.45 12.88C185.45 11.2 184.082 9.832 182.402 9.832ZM198.938 1.744V24.112H201.602V1.744H198.938ZM195.314 9.616V12.304H205.154V9.616H195.314ZM198.434 11.056C197.762 13.432 196.298 16.768 194.858 18.544C195.29 19.36 195.914 20.632 196.178 21.52C197.762 19.216 199.25 15.04 200.018 11.824L198.434 11.056ZM201.554 12.448L200.234 13.576C201.098 14.752 202.706 17.416 203.33 18.784L205.106 16.528C204.578 15.856 202.25 13.072 201.554 12.448ZM195.266 3.592C195.842 5.344 196.298 7.672 196.346 9.184L198.506 8.608C198.386 7.096 197.906 4.816 197.282 3.064L195.266 3.592ZM203.186 2.944C202.922 4.648 202.346 7.072 201.866 8.608L203.666 9.112C204.266 7.696 204.986 5.416 205.61 3.472L203.186 2.944ZM212.258 1.6V24.136H214.97V1.6H212.258ZM205.082 16.624L205.538 19.312L217.85 17.08L217.418 14.416L205.082 16.624ZM206.45 4.888C207.794 5.752 209.474 7.072 210.194 8.008L211.706 5.824C210.914 4.936 209.21 3.736 207.866 2.92L206.45 4.888ZM205.37 10.936C206.762 11.752 208.514 13.048 209.33 13.936L210.77 11.656C209.906 10.768 208.106 9.616 206.714 8.872L205.37 10.936ZM230.306 4.36C232.37 7.192 236.378 10.432 240.05 12.376C240.578 11.488 241.25 10.504 241.946 9.784C238.13 8.224 234.266 5.2 231.674 1.552H228.674C226.898 4.456 223.034 8.056 218.906 10.072C219.53 10.672 220.346 11.728 220.706 12.4C224.642 10.312 228.314 7.168 230.306 4.36ZM224.282 8.824V11.344H236.378V8.824H224.282ZM221.426 13.72V16.192H239.21V13.72H221.426ZM220.202 21.016V23.488H240.602V21.016H220.202ZM228.722 9.832V22.24H231.794V9.832H228.722ZM222.914 17.104C223.778 18.376 224.666 20.128 224.978 21.232L227.474 20.152C227.114 19.024 226.154 17.368 225.242 16.144L222.914 17.104ZM235.13 16.168C234.602 17.464 233.594 19.216 232.826 20.344L234.986 21.232C235.826 20.224 236.882 18.664 237.866 17.2L235.13 16.168Z" fill="#468459"/>
<line x1="1.22222" y1="-1.22222" x2="17.2149" y2="-1.22222" transform="matrix(-0.707107 0.707107 0.707107 0.707107 275.5 2)" stroke="#468459" stroke-width="2.44444" stroke-linecap="round"/>
<line x1="1.22222" y1="-1.22222" x2="17.2149" y2="-1.22222" transform="matrix(-0.707107 0.707107 0.707107 0.707107 275.5 10.9629)" stroke="#468459" stroke-width="2.44444" stroke-linecap="round"/>
<path d="M21.432 52.392C20.856 54.264 19.752 56.736 18.816 58.392L21.312 59.256C22.344 57.744 23.568 55.464 24.624 53.328L21.432 52.392ZM11.16 58.008C10.632 56.472 9.456 54.264 8.208 52.608L5.592 53.64C6.768 55.32 7.944 57.648 8.4 59.16L11.16 58.008ZM16.584 51.648H13.44V59.952H6.168V62.808H21.168V65.016H6.984V67.776H21.168V70.272H5.616V73.104H21.168V74.088H24.216V59.952H16.584V51.648ZM47.328 58.68H38.64V56.712H47.328V58.68ZM36.096 54.288V59.016H37.872V61.128H48.096V58.992H49.944V54.288H44.208V51.768H41.448V54.288H36.096ZM34.392 52.584L33.984 52.704H28.776V74.088H31.248V55.248H33.12C32.736 56.88 32.232 58.968 31.752 60.48C33.096 62.088 33.408 63.576 33.408 64.68C33.408 65.352 33.312 65.832 33.048 66.024C32.856 66.168 32.64 66.216 32.376 66.24C32.064 66.24 31.752 66.24 31.32 66.216C31.704 66.888 31.92 67.968 31.944 68.64C32.496 68.664 33.072 68.64 33.48 68.592C34.032 68.496 34.488 68.352 34.872 68.088C35.616 67.56 35.928 66.552 35.928 65.016C35.928 63.624 35.616 62.016 34.176 60.192C34.848 58.32 35.64 55.704 36.264 53.664L34.392 52.584ZM46.608 71.352C46.272 71.352 46.224 71.28 46.224 70.584V65.4H49.824V62.856H36.456V65.4H39.096C38.856 68.736 38.136 70.68 34.296 71.832C34.872 72.336 35.568 73.392 35.808 74.064C40.488 72.504 41.496 69.744 41.784 65.4H43.56V70.608C43.56 73.056 44.016 73.872 46.104 73.872H47.712C49.416 73.872 50.04 72.96 50.28 69.6C49.584 69.432 48.432 68.976 47.904 68.544C47.856 70.992 47.784 71.352 47.4 71.352H46.608ZM52.656 55.536L52.968 58.824C55.752 58.224 60.648 57.696 62.904 57.456C61.272 58.68 59.328 61.416 59.328 64.872C59.328 70.08 64.08 72.768 69.12 73.104L70.248 69.816C66.168 69.6 62.472 68.184 62.472 64.224C62.472 61.368 64.656 58.272 67.56 57.504C68.832 57.192 70.896 57.192 72.192 57.168L72.168 54.096C70.464 54.168 67.848 54.312 65.376 54.528C60.984 54.888 57.024 55.248 55.008 55.416C54.552 55.464 53.616 55.512 52.656 55.536ZM68.76 59.52L66.984 60.264C67.752 61.344 68.256 62.28 68.856 63.6L70.68 62.784C70.224 61.848 69.36 60.384 68.76 59.52ZM71.448 58.416L69.696 59.232C70.464 60.288 71.016 61.176 71.664 62.472L73.464 61.608C72.96 60.672 72.048 59.256 71.448 58.416ZM86.376 68.88C86.376 67.968 87.288 67.392 88.656 67.392C89.304 67.392 89.952 67.488 90.576 67.656C90.576 67.824 90.576 67.968 90.576 68.088C90.576 69.504 90.072 70.272 88.608 70.272C87.336 70.272 86.376 69.864 86.376 68.88ZM93.504 53.208H90.072C90.168 53.688 90.24 54.432 90.24 54.792C90.24 55.296 90.264 56.28 90.264 57.456C89.712 57.48 89.136 57.48 88.584 57.48C87.144 57.48 85.752 57.408 84.384 57.264V60.12C85.8 60.216 87.168 60.264 88.584 60.264C89.136 60.264 89.712 60.264 90.288 60.24C90.312 61.944 90.408 63.696 90.456 65.184C89.976 65.112 89.448 65.088 88.896 65.088C85.632 65.088 83.568 66.768 83.568 69.192C83.568 71.712 85.632 73.104 88.944 73.104C92.184 73.104 93.48 71.472 93.624 69.168C94.584 69.816 95.544 70.656 96.552 71.592L98.208 69.072C97.056 68.016 95.544 66.792 93.552 65.976C93.456 64.344 93.336 62.424 93.288 60.096C94.608 60 95.856 59.856 97.008 59.688V56.688C95.856 56.928 94.608 57.12 93.288 57.24C93.312 56.184 93.336 55.296 93.36 54.768C93.384 54.24 93.432 53.664 93.504 53.208ZM81.792 53.472L78.48 53.184C78.456 53.952 78.336 54.864 78.24 55.536C77.976 57.384 77.256 61.92 77.256 65.544C77.256 68.808 77.712 71.544 78.216 73.224L80.928 73.008C80.904 72.672 80.88 72.264 80.88 72.024C80.88 71.76 80.928 71.232 81 70.896C81.288 69.6 82.056 67.152 82.728 65.184L81.264 63.984C80.904 64.8 80.496 65.616 80.184 66.456C80.112 65.976 80.088 65.376 80.088 64.896C80.088 62.496 80.88 57.216 81.24 55.608C81.312 55.176 81.6 53.952 81.792 53.472ZM105.144 51.72C103.896 55.128 101.712 58.536 99.48 60.696C99.96 61.392 100.752 62.928 101.016 63.624C101.64 62.976 102.24 62.256 102.84 61.488V74.04H105.552V57.312C106.416 55.776 107.16 54.144 107.784 52.584L105.144 51.72ZM110.976 55.224H118.008V58.44H110.976V55.224ZM122.04 65.712V63.12H115.848V60.96H120.864V52.704H108.264V60.96H112.968V63.12H106.68V65.712H111.6C110.112 67.824 107.976 69.768 105.816 70.896C106.464 71.448 107.352 72.48 107.784 73.176C109.68 71.952 111.504 70.128 112.968 68.016V74.088H115.848V67.896C117.216 70.032 118.968 71.976 120.72 73.224C121.176 72.504 122.088 71.496 122.736 70.944C120.72 69.768 118.656 67.8 117.24 65.712H122.04ZM135.168 65.328V63.168H137.544V64.68C137.544 64.896 137.544 65.112 137.52 65.328H135.168ZM142.632 63.168V65.328H140.112C140.112 65.136 140.112 64.944 140.112 64.752V63.168H142.632ZM135.984 57.192C137.136 56.208 138.12 55.128 138.792 54.12C139.536 55.152 140.616 56.232 141.792 57.192H135.984ZM145.2 67.512V61.008H140.112V59.544H143.328V58.296C143.952 58.704 144.6 59.088 145.2 59.376C145.584 58.608 146.136 57.552 146.664 56.88C144.168 55.968 141.672 53.976 140.016 51.696H137.424C136.248 53.664 133.848 55.944 131.304 57.12C131.688 55.944 132.072 54.744 132.384 53.688L130.488 52.584L130.08 52.704H124.776V74.088H127.248V55.248H129.192C128.784 56.904 128.256 59.04 127.752 60.576C129.144 62.16 129.504 63.6 129.504 64.68C129.504 65.376 129.384 65.832 129.096 66.048C128.928 66.168 128.664 66.216 128.4 66.216C128.112 66.24 127.752 66.24 127.296 66.192C127.704 66.888 127.92 67.992 127.92 68.688C128.52 68.712 129.096 68.688 129.552 68.616C130.08 68.544 130.56 68.4 130.944 68.136C131.736 67.584 132.048 66.576 132.048 65.064C132.048 63.672 131.736 62.088 130.2 60.264C130.512 59.448 130.848 58.464 131.184 57.48C131.616 58.104 132.096 58.968 132.36 59.592C133.08 59.232 133.8 58.8 134.496 58.32V59.544H137.544V61.008H132.696V67.512H137.136C136.488 69.288 134.88 70.92 131.016 72.096C131.472 72.552 132.264 73.632 132.528 74.208C136.128 73.08 138.072 71.352 139.104 69.432C140.568 72.048 142.464 73.272 144.864 74.184C145.176 73.344 145.848 72.408 146.496 71.808C144.12 71.064 142.32 70.152 140.904 67.512H145.2ZM156.048 52.416H148.992V54.576H156.048V52.416ZM161.712 51.768C160.752 53.736 158.88 56.088 156.816 57.648V55.632H147.792V57.888H156.48C156.24 58.08 155.976 58.248 155.712 58.392C156.192 58.992 156.84 60.072 157.128 60.792C159.624 59.232 161.904 56.616 163.104 54.456C164.4 56.616 166.8 59.16 169.08 60.6C169.464 59.76 170.064 58.704 170.592 58.008C168.24 56.832 165.864 54.312 164.328 51.768H161.712ZM165.216 61.464C163.68 63.552 160.656 65.448 157.944 66.504C158.616 67.032 159.36 67.872 159.768 68.472C162.744 67.104 165.744 65.04 167.712 62.544L165.216 61.464ZM163.056 58.056C161.928 59.616 159.744 61.224 157.872 62.16C158.496 62.616 159.264 63.36 159.696 63.888C161.832 62.736 164.04 61.008 165.528 59.04L163.056 58.056ZM156.12 58.968H148.92V61.152H156.12V58.968ZM148.92 64.392H156.12V62.256H148.92V64.392ZM153.72 67.824V70.584H151.248V67.824H153.72ZM156.144 65.568H148.848V73.752H151.248V72.816H156.144V65.568ZM167.112 65.28C165.048 68.4 161.088 70.584 156.768 71.688C157.464 72.384 158.184 73.392 158.544 74.136C163.176 72.624 167.232 70.128 169.68 66.384L167.112 65.28ZM180.288 68.832C179.592 70.08 178.392 71.304 177.096 72.12C177.72 72.48 178.752 73.296 179.232 73.776C180.552 72.768 181.992 71.136 182.856 69.552L180.288 68.832ZM188.328 69.984C189.504 71.112 190.968 72.744 191.568 73.776L193.872 72.576C193.176 71.52 191.664 69.984 190.488 68.904L188.328 69.984ZM188.976 64.344H182.808V63.48H188.976V64.344ZM188.976 66.864H182.808V65.952H188.976V66.864ZM177.744 55.992H184.08C183.936 56.496 183.744 57 183.528 57.504H178.584V59.64H182.28C181.992 60.024 181.656 60.408 181.296 60.792C180.792 60.432 180.24 60.048 179.784 59.76L178.344 61.032C178.8 61.344 179.304 61.728 179.784 62.112C179.16 62.568 178.464 62.976 177.696 63.36C177.72 62.64 177.744 61.944 177.744 61.296V55.992ZM186.84 59.64C187.248 60.384 187.728 61.104 188.28 61.776H183.696C184.272 61.104 184.776 60.384 185.208 59.64H186.84ZM192.096 59.64C191.736 60.024 191.184 60.552 190.656 61.008C190.2 60.576 189.768 60.12 189.408 59.64H192.096ZM192.216 59.64H193.848V57.504H186.24C186.432 57.072 186.576 56.64 186.72 56.208L185.04 55.992H194.064V53.592H185.664V51.696H182.64V53.592H175.128V60.024C174.912 58.8 174.384 57.12 173.76 55.776L171.72 56.616C172.344 58.176 172.896 60.192 173.016 61.44L175.128 60.48V61.296C175.128 61.896 175.128 62.52 175.104 63.168C173.736 63.84 172.44 64.488 171.504 64.896L172.32 67.464C173.136 66.984 173.976 66.48 174.84 65.976C174.504 68.208 173.76 70.44 172.224 72.192C172.728 72.528 173.808 73.536 174.192 74.064C176.616 71.4 177.432 67.368 177.672 63.864C178.176 64.296 178.728 64.968 178.992 65.448C179.496 65.184 179.976 64.896 180.432 64.608V68.544H184.512V71.52C184.512 71.76 184.416 71.856 184.152 71.856C183.84 71.856 182.832 71.856 181.944 71.832C182.256 72.456 182.664 73.392 182.832 74.112C184.248 74.112 185.352 74.112 186.192 73.752C187.056 73.368 187.272 72.792 187.272 71.616V68.544H191.472V64.608C191.88 64.872 192.336 65.112 192.768 65.304C193.128 64.704 193.848 63.768 194.424 63.312C193.632 63.024 192.864 62.64 192.144 62.16C192.696 61.752 193.272 61.296 193.776 60.792L192.216 59.64ZM201.12 73.656L203.688 71.448C202.488 69.96 200.16 67.584 198.456 66.192L195.96 68.352C197.616 69.792 199.656 71.856 201.12 73.656ZM225.384 70.224V67.728H236.784V70.224H225.384ZM236.784 62.616V65.088H225.384V62.616H236.784ZM236.784 57.504V59.976H225.384V57.504H236.784ZM231.6 54.768C231.984 53.904 232.368 52.968 232.728 52.008L229.272 51.624C229.152 52.584 228.888 53.736 228.624 54.768H222.48V74.064H225.384V72.864H236.784V74.04H239.832V54.768H231.6ZM249.96 67.824H260.28V68.808H249.96V67.824ZM256.296 59.64V61.224H251.928C252.456 60.744 252.84 60.216 253.104 59.64H256.296ZM248.568 57.024H251.016C251.016 57.36 250.968 57.672 250.872 57.96H248.256L248.568 57.024ZM253.632 54.408H256.296V55.368H253.632V54.408ZM261.504 54.408V55.368H259.008V54.408H261.504ZM256.296 57.96H253.56C253.584 57.648 253.608 57.336 253.632 57.024H256.296V57.96ZM262.848 59.64C262.8 60 262.728 60.216 262.632 60.336C262.488 60.504 262.344 60.504 262.128 60.504C261.864 60.528 261.36 60.504 260.808 60.432C260.904 60.648 261.024 60.936 261.096 61.224H259.008V59.64H262.848ZM260.28 63.792H249.96V62.856H260.28V63.792ZM260.28 66.288H249.96V65.328H260.28V66.288ZM263.184 70.44V62.16C263.328 62.16 263.448 62.136 263.544 62.136C264.048 62.112 264.576 61.92 264.936 61.56C265.344 61.128 265.488 60.264 265.608 58.704C265.632 58.44 265.656 57.96 265.656 57.96H259.008V57.024H264.096V52.728H259.008V51.696H256.296V52.728H253.632V51.696H251.04V52.728H245.592V54.408H251.04V55.368H246.48C246.072 56.784 245.496 58.512 244.968 59.688L247.56 59.856L247.632 59.64H249.744C248.76 60.432 247.032 61.032 244.056 61.416C244.488 61.944 245.16 63.024 245.4 63.624C246.048 63.528 246.624 63.432 247.176 63.312V70.44H250.44C248.76 71.136 246.312 71.736 244.08 72.12C244.68 72.6 245.688 73.608 246.144 74.16C248.592 73.56 251.64 72.48 253.632 71.304L251.736 70.44H258.144L256.32 71.568C258.816 72.384 261.312 73.392 262.728 74.112L265.896 72.744C264.384 72.096 261.864 71.184 259.56 70.44H263.184ZM276.048 52.416H268.992V54.576H276.048V52.416ZM281.712 51.768C280.752 53.736 278.88 56.088 276.816 57.648V55.632H267.792V57.888H276.48C276.24 58.08 275.976 58.248 275.712 58.392C276.192 58.992 276.84 60.072 277.128 60.792C279.624 59.232 281.904 56.616 283.104 54.456C284.4 56.616 286.8 59.16 289.08 60.6C289.464 59.76 290.064 58.704 290.592 58.008C288.24 56.832 285.864 54.312 284.328 51.768H281.712ZM285.216 61.464C283.68 63.552 280.656 65.448 277.944 66.504C278.616 67.032 279.36 67.872 279.768 68.472C282.744 67.104 285.744 65.04 287.712 62.544L285.216 61.464ZM283.056 58.056C281.928 59.616 279.744 61.224 277.872 62.16C278.496 62.616 279.264 63.36 279.696 63.888C281.832 62.736 284.04 61.008 285.528 59.04L283.056 58.056ZM276.12 58.968H268.92V61.152H276.12V58.968ZM268.92 64.392H276.12V62.256H268.92V64.392ZM273.72 67.824V70.584H271.248V67.824H273.72ZM276.144 65.568H268.848V73.752H271.248V72.816H276.144V65.568ZM287.112 65.28C285.048 68.4 281.088 70.584 276.768 71.688C277.464 72.384 278.184 73.392 278.544 74.136C283.176 72.624 287.232 70.128 289.68 66.384L287.112 65.28ZM300.288 68.832C299.592 70.08 298.392 71.304 297.096 72.12C297.72 72.48 298.752 73.296 299.232 73.776C300.552 72.768 301.992 71.136 302.856 69.552L300.288 68.832ZM308.328 69.984C309.504 71.112 310.968 72.744 311.568 73.776L313.872 72.576C313.176 71.52 311.664 69.984 310.488 68.904L308.328 69.984ZM308.976 64.344H302.808V63.48H308.976V64.344ZM308.976 66.864H302.808V65.952H308.976V66.864ZM297.744 55.992H304.08C303.936 56.496 303.744 57 303.528 57.504H298.584V59.64H302.28C301.992 60.024 301.656 60.408 301.296 60.792C300.792 60.432 300.24 60.048 299.784 59.76L298.344 61.032C298.8 61.344 299.304 61.728 299.784 62.112C299.16 62.568 298.464 62.976 297.696 63.36C297.72 62.64 297.744 61.944 297.744 61.296V55.992ZM306.84 59.64C307.248 60.384 307.728 61.104 308.28 61.776H303.696C304.272 61.104 304.776 60.384 305.208 59.64H306.84ZM312.096 59.64C311.736 60.024 311.184 60.552 310.656 61.008C310.2 60.576 309.768 60.12 309.408 59.64H312.096ZM312.216 59.64H313.848V57.504H306.24C306.432 57.072 306.576 56.64 306.72 56.208L305.04 55.992H314.064V53.592H305.664V51.696H302.64V53.592H295.128V60.024C294.912 58.8 294.384 57.12 293.76 55.776L291.72 56.616C292.344 58.176 292.896 60.192 293.016 61.44L295.128 60.48V61.296C295.128 61.896 295.128 62.52 295.104 63.168C293.736 63.84 292.44 64.488 291.504 64.896L292.32 67.464C293.136 66.984 293.976 66.48 294.84 65.976C294.504 68.208 293.76 70.44 292.224 72.192C292.728 72.528 293.808 73.536 294.192 74.064C296.616 71.4 297.432 67.368 297.672 63.864C298.176 64.296 298.728 64.968 298.992 65.448C299.496 65.184 299.976 64.896 300.432 64.608V68.544H304.512V71.52C304.512 71.76 304.416 71.856 304.152 71.856C303.84 71.856 302.832 71.856 301.944 71.832C302.256 72.456 302.664 73.392 302.832 74.112C304.248 74.112 305.352 74.112 306.192 73.752C307.056 73.368 307.272 72.792 307.272 71.616V68.544H311.472V64.608C311.88 64.872 312.336 65.112 312.768 65.304C313.128 64.704 313.848 63.768 314.424 63.312C313.632 63.024 312.864 62.64 312.144 62.16C312.696 61.752 313.272 61.296 313.776 60.792L312.216 59.64ZM322.92 52.872L319.92 54.096C321 56.64 322.152 59.208 323.256 61.248C320.952 62.952 319.272 64.944 319.272 67.584C319.272 71.712 322.896 73.032 327.672 73.032C330.792 73.032 333.336 72.792 335.376 72.432L335.424 68.976C333.288 69.504 330.048 69.864 327.576 69.864C324.24 69.864 322.584 68.952 322.584 67.224C322.584 65.544 323.928 64.176 325.92 62.856C328.104 61.44 331.128 60.048 332.616 59.304C333.504 58.848 334.272 58.44 334.992 58.008L333.336 55.224C332.712 55.752 332.016 56.16 331.104 56.688C329.976 57.336 327.888 58.368 325.92 59.52C324.96 57.672 323.832 55.368 322.92 52.872ZM51.2169 82.776L47.8329 82.584C47.8809 83.112 47.8809 83.592 47.8089 84.72C47.7609 85.272 47.6889 85.92 47.6169 86.664C45.8649 86.52 44.0649 86.208 42.6729 85.752L42.5049 88.512C43.9209 88.92 45.6249 89.208 47.2809 89.376C47.1609 90.456 47.0169 91.584 46.8729 92.664C45.3129 92.496 43.7049 92.232 42.1449 91.704L41.9769 94.608C43.2489 94.968 44.8329 95.232 46.5849 95.4C46.4889 96.384 46.4169 97.248 46.4169 97.824C46.4169 101.832 49.0809 103.464 52.8489 103.464C58.1049 103.464 61.3689 100.872 61.3689 97.248C61.3689 95.208 60.6249 93.504 59.0409 91.488L55.6569 92.208C57.2409 93.696 58.1289 95.232 58.1289 96.864C58.1289 98.832 56.3049 100.368 52.9449 100.368C50.5929 100.368 49.3689 99.312 49.3689 97.32C49.3689 96.888 49.4169 96.288 49.4649 95.568C49.7769 95.568 50.1129 95.568 50.4249 95.568C51.9369 95.568 53.3289 95.472 54.6729 95.352L54.7449 92.496C53.1849 92.688 51.4089 92.784 49.9209 92.784C49.8729 92.784 49.8009 92.784 49.7529 92.784C49.8729 91.704 50.0169 90.576 50.1609 89.52C52.0809 89.52 53.4009 89.424 54.8409 89.28L54.9369 86.424C53.8089 86.592 52.2729 86.736 50.5449 86.76C50.6409 85.968 50.7369 85.32 50.8089 84.912C50.9049 84.288 51.0009 83.64 51.2169 82.776ZM74.7129 85.224V88.296C77.7369 88.584 82.0809 88.56 85.0329 88.296V85.2C82.4409 85.512 77.6649 85.632 74.7129 85.224ZM76.6329 95.472L73.8729 95.208C73.6089 96.432 73.4649 97.392 73.4649 98.328C73.4649 100.8 75.4569 102.264 79.5849 102.264C82.2969 102.264 84.2169 102.096 85.7769 101.808L85.7289 98.568C83.6169 99 81.8409 99.192 79.7049 99.192C77.2569 99.192 76.3449 98.544 76.3449 97.488C76.3449 96.84 76.4409 96.264 76.6329 95.472ZM71.0169 83.616L67.6569 83.328C67.6329 84.096 67.4889 85.008 67.4169 85.68C67.1529 87.528 66.4089 91.584 66.4089 95.184C66.4089 98.448 66.8649 101.376 67.3449 103.032L70.1289 102.84C70.1049 102.504 70.0809 102.12 70.0809 101.856C70.0809 101.616 70.1289 101.088 70.2009 100.728C70.4649 99.456 71.2569 96.84 71.9289 94.848L70.4409 93.672C70.1049 94.464 69.7209 95.304 69.3609 96.12C69.2889 95.64 69.2649 95.016 69.2649 94.56C69.2649 92.16 70.1049 87.36 70.4169 85.752C70.5129 85.32 70.8249 84.12 71.0169 83.616ZM94.2122 94.968L91.0442 94.68C90.8762 95.592 90.5882 96.744 90.5882 98.136C90.5882 101.448 93.3482 103.296 98.8442 103.296C102.204 103.296 105.084 102.96 107.172 102.456L107.148 99.096C105.036 99.672 101.964 100.032 98.7242 100.032C95.2682 100.032 93.8042 98.952 93.8042 97.392C93.8042 96.6 93.9722 95.832 94.2122 94.968ZM106.308 82.32L104.412 83.088C104.748 83.568 105.108 84.168 105.444 84.792C103.596 84.96 101.004 85.104 98.7242 85.104C96.2042 85.104 93.9722 85.008 92.1962 84.792V87.984C94.1402 88.128 96.2282 88.248 98.7482 88.248C101.028 88.248 104.004 88.08 105.684 87.96V85.272C105.9 85.68 106.116 86.088 106.284 86.448L108.228 85.608C107.772 84.72 106.908 83.184 106.308 82.32ZM109.164 81.24L107.244 82.008C107.916 82.92 108.684 84.312 109.188 85.32L111.108 84.504C110.676 83.664 109.788 82.128 109.164 81.24ZM119.46 88.488C119.196 90.24 118.812 91.848 118.308 93.336C117.252 92.064 116.172 90.84 115.14 89.736L113.1 91.344C114.42 92.808 115.836 94.512 117.108 96.216C115.884 98.52 114.228 100.368 111.996 101.664C112.596 102.192 113.58 103.32 113.916 103.896C115.932 102.552 117.564 100.824 118.836 98.712C119.532 99.792 120.084 100.8 120.468 101.664L122.748 99.72C122.196 98.568 121.332 97.224 120.276 95.832C121.14 93.768 121.788 91.44 122.244 88.848L119.46 88.488ZM122.988 92.736C124.068 94.368 125.1 96.552 125.46 97.968L127.932 96.696C127.548 95.28 126.396 93.216 125.268 91.632L122.988 92.736ZM134.628 87H132.06V81.672H129.252V87H124.02V85.368H119.58V81.696H116.844V85.368H112.668V88.008H123.228V89.736H129.252V100.536C129.252 100.92 129.108 101.04 128.676 101.04C128.268 101.04 126.972 101.064 125.628 100.992C126.036 101.856 126.444 103.224 126.54 104.064C128.532 104.064 129.948 103.944 130.86 103.44C131.772 102.984 132.06 102.144 132.06 100.536V89.736H134.628V87ZM141.06 87.168H158.388V84.456H149.724V81.696H146.748V84.456H138.204V90.504C138.204 93.96 138.036 99 136.068 102.432C136.74 102.744 138.012 103.56 138.54 104.04C140.7 100.296 141.06 94.368 141.06 90.504V87.168ZM153.66 90.72C152.364 89.592 149.772 88.152 147.852 87.24L145.956 89.112C147.924 90.12 150.444 91.728 151.596 92.856L153.66 90.72ZM143.172 102C144.252 100.08 144.684 96.912 144.948 94.152L142.38 93.6C142.14 96.264 141.636 99.048 140.628 100.872L143.172 102ZM149.388 101.088C148.716 101.088 148.62 100.968 148.62 100.104V91.752H145.788V100.128C145.788 102.792 146.388 103.632 148.932 103.632H151.596C153.828 103.632 154.548 102.48 154.812 98.376C154.068 98.184 152.892 97.728 152.292 97.224C152.196 100.536 152.052 101.088 151.332 101.088H149.388ZM153.252 93.96C154.62 96.504 155.868 99.84 156.18 101.976L158.988 100.824C158.604 98.64 157.212 95.472 155.796 92.976L153.252 93.96ZM168.396 82.968L164.532 82.92C164.748 83.88 164.844 85.032 164.844 86.16C164.844 88.224 164.604 94.536 164.604 97.752C164.604 101.856 167.148 103.584 171.084 103.584C176.556 103.584 179.964 100.368 181.5 98.064L179.316 95.424C177.588 98.04 175.068 100.32 171.108 100.32C169.236 100.32 167.796 99.528 167.796 97.104C167.796 94.128 167.988 88.752 168.084 86.16C168.132 85.2 168.252 83.976 168.396 82.968ZM184.47 85.488L184.782 88.776C187.566 88.176 192.462 87.648 194.718 87.408C193.11 88.632 191.166 91.368 191.166 94.824C191.166 100.008 195.918 102.72 200.934 103.056L202.062 99.768C198.006 99.552 194.31 98.112 194.31 94.176C194.31 91.32 196.47 88.2 199.374 87.432C200.646 87.144 202.71 87.144 204.006 87.12L203.982 84.048C202.302 84.096 199.662 84.264 197.19 84.456C192.798 84.84 188.838 85.2 186.846 85.368C186.366 85.416 185.43 85.464 184.47 85.488ZM216.503 82.512H213.191C213.263 82.944 213.359 84.12 213.359 84.624C213.359 85.032 213.359 85.728 213.335 86.568C212.855 86.592 212.375 86.616 211.943 86.616C211.079 86.616 210.047 86.592 208.631 86.424L208.679 89.328C209.495 89.424 210.431 89.448 212.039 89.448C212.423 89.448 212.855 89.424 213.311 89.4C213.311 90.072 213.311 90.744 213.311 91.416C213.311 91.968 213.311 92.544 213.335 93.12C210.383 94.392 207.983 96.576 207.983 98.664C207.983 101.208 211.271 103.224 213.599 103.224C215.183 103.224 216.239 102.432 216.239 99.456C216.239 98.64 216.191 96.768 216.143 94.872C217.607 94.44 219.167 94.2 220.655 94.2C222.743 94.2 224.183 95.16 224.183 96.792C224.183 98.544 222.647 99.504 220.703 99.864C219.863 100.008 218.831 100.032 217.751 100.032L218.855 103.128C219.839 103.056 220.895 102.984 221.999 102.744C225.815 101.784 227.303 99.648 227.303 96.816C227.303 93.504 224.399 91.584 220.703 91.584C219.383 91.584 217.727 91.8 216.095 92.208C216.095 91.896 216.095 91.608 216.095 91.32C216.095 90.624 216.095 89.88 216.119 89.16C217.679 88.968 219.335 88.728 220.703 88.416L220.631 85.44C219.383 85.8 217.799 86.112 216.215 86.304C216.239 85.704 216.263 85.128 216.287 84.6C216.335 83.976 216.431 82.944 216.503 82.512ZM223.343 85.104L222.023 87.432C223.511 88.152 226.655 89.952 227.807 90.936L229.247 88.488C227.975 87.576 225.191 85.992 223.343 85.104ZM210.935 98.544C210.935 97.704 211.919 96.72 213.383 95.928C213.431 97.224 213.455 98.328 213.455 98.928C213.455 99.744 213.119 99.936 212.687 99.936C212.063 99.936 210.935 99.288 210.935 98.544ZM238.703 82.728L235.415 82.584C235.415 83.232 235.343 84.192 235.223 85.104C234.887 87.576 234.551 90.552 234.551 92.784C234.551 94.392 234.719 95.856 234.863 96.792L237.815 96.6C237.671 95.472 237.647 94.704 237.695 94.056C237.815 90.888 240.287 86.64 243.119 86.64C245.135 86.64 246.383 88.704 246.383 92.4C246.383 98.208 242.615 99.96 237.287 100.776L239.111 103.56C245.471 102.408 249.623 99.168 249.623 92.376C249.623 87.096 247.031 83.832 243.695 83.832C240.983 83.832 238.895 85.848 237.743 87.72C237.887 86.376 238.367 83.904 238.703 82.728ZM260.855 99.288C260.855 98.472 261.791 97.8 263.495 97.8C264.167 97.8 264.815 97.872 265.463 97.968C265.487 98.4 265.487 98.736 265.487 99C265.487 100.392 264.647 100.752 263.375 100.752C261.719 100.752 260.855 100.2 260.855 99.288ZM268.367 82.584H265.127C265.223 83.04 265.271 83.784 265.271 84.24C265.271 84.528 265.271 84.912 265.271 85.368C264.959 85.368 264.647 85.368 264.335 85.368C262.871 85.368 260.135 85.128 258.407 84.84L258.479 87.576C260.063 87.792 262.847 88.008 264.359 88.008C264.647 88.008 264.935 88.008 265.247 88.008C265.223 88.824 265.223 89.688 265.223 90.48C264.839 90.48 264.455 90.48 264.071 90.48C262.799 90.48 259.847 90.312 258.287 90.024L258.311 92.856C259.895 93.048 262.631 93.168 264.023 93.168C264.455 93.168 264.863 93.168 265.271 93.168C265.295 93.888 265.319 94.656 265.367 95.4C264.887 95.352 264.383 95.328 263.879 95.328C260.183 95.328 257.951 97.032 257.951 99.456C257.951 102 259.967 103.464 263.807 103.464C266.975 103.464 268.535 101.88 268.535 99.84C268.535 99.576 268.535 99.288 268.511 98.952C270.431 99.816 272.063 101.088 273.359 102.288L275.087 99.6C273.695 98.448 271.391 96.84 268.367 95.976C268.295 95.016 268.247 94.032 268.199 93.12C270.503 93.048 272.375 92.88 274.535 92.64L274.559 89.808C272.615 90.072 270.575 90.264 268.151 90.384C268.151 89.64 268.151 88.752 268.151 87.912C270.479 87.792 272.663 87.576 274.247 87.384L274.271 84.624C272.159 84.984 270.167 85.176 268.199 85.272C268.199 84.888 268.199 84.528 268.223 84.288C268.247 83.664 268.295 83.064 268.367 82.584ZM293.711 82.656H290.231C290.303 82.944 290.399 83.76 290.471 84.744C290.495 84.936 290.495 85.176 290.519 85.488C287.255 85.536 282.887 85.632 280.151 85.632L280.223 88.536C283.175 88.368 286.919 88.224 290.543 88.176C290.567 88.704 290.567 89.256 290.567 89.784C290.255 89.736 289.943 89.712 289.607 89.712C286.991 89.712 284.807 91.488 284.807 94.2C284.807 97.128 287.087 98.616 288.935 98.616C289.319 98.616 289.679 98.568 290.015 98.496C288.695 99.936 286.583 100.728 284.159 101.232L286.727 103.776C292.583 102.144 294.407 98.16 294.407 95.04C294.407 93.792 294.119 92.664 293.543 91.752C293.543 90.696 293.519 89.376 293.519 88.152C296.783 88.152 299.015 88.2 300.455 88.272L300.479 85.44C299.231 85.416 295.943 85.464 293.519 85.464C293.543 85.176 293.543 84.912 293.543 84.72C293.567 84.336 293.663 83.04 293.711 82.656ZM287.687 94.152C287.687 92.88 288.599 92.232 289.535 92.232C290.183 92.232 290.759 92.52 291.095 93.072C291.431 95.184 290.543 95.952 289.535 95.952C288.575 95.952 287.687 95.256 287.687 94.152Z" fill="#468459"/>
</svg>
