<svg width="1280" height="1000" viewBox="0 0 1280 1000" fill="none" xmlns="http://www.w3.org/2000/svg">
<g clip-path="url(#clip0_638733_4838)">
<path fill-rule="evenodd" clip-rule="evenodd" d="M1280 277.556L1343.95 281.079L1356.23 58.1913C1330.08 57.409 1302.21 55.6829 1275.34 52.9906C1258.5 51.3069 1238.29 48.1949 1214.75 44.5704C1133.68 32.0902 1013.14 13.534 855.15 26.2921C778.285 32.5015 707.18 44.6399 641.026 57.5187C633.02 59.0773 624.688 60.7254 616.034 62.4371C527.849 79.8799 406.294 103.923 256.908 107.144C94.9788 110.624 -33.9201 87.2537 -145.705 66.986C-252.186 47.6798 -343.139 31.1892 -432.321 43.4034L-440 182.803L0 207.043V1004.76H1280V277.556Z" fill="#F0F5E1"/>
<path opacity="0.5" fill-rule="evenodd" clip-rule="evenodd" d="M1343.95 261.079L-440 162.803L-432.321 23.4032C-249.516 -1.63359 -59.268 93.9394 256.908 87.1441C420.954 83.607 551.438 54.9604 641.026 37.5185C707.18 24.6397 778.285 12.5014 855.15 6.29191C1059.02 -10.1713 1200.53 25.5091 1275.34 32.9904C1302.21 35.6827 1330.08 37.4088 1356.23 38.1911L1343.95 261.079Z" fill="#F0F5E1"/>
<path d="M118.228 292.404C118.228 284.144 119.456 276.844 121.912 270.504C124.412 264.164 127.828 258.806 132.159 254.431C136.489 250.055 141.445 246.751 147.026 244.519C152.652 242.287 158.568 241.17 164.774 241.17C169.774 241.17 173.971 241.438 177.365 241.974C180.802 242.465 183.615 243.001 185.803 243.581C187.991 244.162 189.754 244.608 191.094 244.921L188.817 258.918C188.102 258.471 186.875 257.846 185.133 257.043C183.392 256.239 180.959 255.502 177.833 254.833C174.708 254.118 170.69 253.761 165.778 253.761C159.349 253.761 153.746 255.302 148.968 258.382C144.191 261.418 140.485 265.771 137.851 271.442C135.262 277.067 133.967 283.742 133.967 291.466C133.967 299.056 135.239 305.798 137.784 311.692C140.374 317.541 144.08 322.139 148.902 325.488C153.723 328.837 159.461 330.511 166.113 330.511C169.417 330.511 172.699 330.198 175.958 329.573C179.262 328.948 182.187 328.167 184.731 327.229C187.321 326.292 189.196 325.332 190.357 324.35V337.61C188.437 338.369 186.316 339.15 183.995 339.954C181.673 340.758 178.994 341.427 175.958 341.963C172.967 342.544 169.417 342.834 165.31 342.834C155.8 342.834 147.517 340.735 140.463 336.538C133.409 332.297 127.939 326.403 124.055 318.858C120.171 311.268 118.228 302.45 118.228 292.404ZM237.123 342.834C231.051 342.834 225.894 341.762 221.653 339.619C217.411 337.476 213.973 334.552 211.339 330.846C208.705 327.14 206.785 322.898 205.58 318.121C204.419 313.299 203.861 308.232 203.905 302.919C204.039 294.927 205.624 288.207 208.66 282.76C211.696 277.313 215.804 273.205 220.983 270.437C226.162 267.624 231.989 266.218 238.463 266.218C246.589 266.218 253.085 268.071 257.952 271.777C262.863 275.438 266.39 280.304 268.533 286.376C270.721 292.404 271.77 298.945 271.681 305.999C271.547 313.991 269.962 320.733 266.926 326.225C263.934 331.672 259.849 335.802 254.67 338.615C249.535 341.427 243.687 342.834 237.123 342.834ZM237.525 331.917C243.642 332.007 248.241 329.707 251.321 325.019C254.447 320.287 256.009 313.746 256.009 305.396C256.009 300.217 255.384 295.529 254.134 291.332C252.884 287.091 250.92 283.698 248.241 281.153C245.606 278.608 242.213 277.313 238.061 277.268C231.989 277.134 227.412 279.322 224.332 283.832C221.251 288.341 219.711 294.77 219.711 303.119C219.711 308.299 220.336 313.054 221.586 317.384C222.836 321.715 224.778 325.198 227.412 327.832C230.047 330.466 233.418 331.828 237.525 331.917ZM310.274 342.834C305.408 342.834 301.479 342.075 298.487 340.557C295.496 339.039 293.219 336.873 291.656 334.06C290.094 331.203 289.022 327.81 288.442 323.881C287.906 319.952 287.638 315.599 287.638 310.821V267.156H303.041V310.687C303.041 316.581 303.488 320.912 304.381 323.68C305.319 326.448 306.747 328.234 308.667 329.038C310.632 329.841 313.177 330.243 316.302 330.243C318.132 330.243 320.075 329.975 322.128 329.439C324.227 328.859 326.191 328.189 328.022 327.43C329.853 326.627 331.304 325.868 332.375 325.153V267.156H347.779V342.834H340.68C338.626 342.834 336.996 342.521 335.791 341.896C334.585 341.316 333.983 339.798 333.983 337.342V332.118L334.25 335.065C332.241 336.404 329.875 337.677 327.151 338.882C324.472 340.043 321.66 341.003 318.713 341.762C315.766 342.477 312.953 342.834 310.274 342.834ZM384.131 286.979L383.193 276.799C383.863 275.415 385.269 273.897 387.412 272.245C389.556 270.549 392.078 269.098 394.98 267.892C397.927 266.687 400.918 266.084 403.955 266.084C405.651 266.084 407.102 266.151 408.308 266.285C409.558 266.419 410.473 266.664 411.054 267.022V281.488C410.384 281.13 409.357 280.751 407.973 280.349C406.633 279.947 404.446 279.746 401.41 279.746C398.641 279.746 396.141 280.148 393.909 280.952C391.721 281.711 389.801 282.648 388.149 283.765C386.497 284.881 385.158 285.952 384.131 286.979ZM369.531 341.762V267.289H382.657L383.729 276.799L384.935 282.425V341.762H369.531ZM420.339 337.342L422.482 325.957C423.151 326.448 424.535 327.118 426.634 327.966C428.777 328.77 431.322 329.529 434.269 330.243C437.26 330.913 440.341 331.27 443.511 331.315C447.797 331.359 451.056 330.623 453.289 329.105C455.521 327.586 456.637 325.466 456.637 322.742C456.637 320.822 455.968 319.148 454.628 317.719C453.289 316.291 451.436 314.973 449.069 313.768C446.748 312.518 444.091 311.223 441.1 309.884C437.082 308.053 433.532 306.066 430.451 303.923C427.371 301.78 424.96 299.257 423.218 296.355C421.522 293.453 420.696 289.971 420.74 285.908C420.83 281.488 422.102 277.826 424.558 274.924C427.058 271.978 430.362 269.79 434.47 268.361C438.577 266.932 443.154 266.218 448.199 266.218C452.887 266.218 456.994 266.709 460.522 267.691C464.049 268.629 466.371 269.433 467.487 270.102L465.21 281.755C464.406 281.086 463.156 280.438 461.459 279.813C459.807 279.143 457.887 278.608 455.7 278.206C453.512 277.804 451.28 277.603 449.003 277.603C444.448 277.603 441.011 278.273 438.689 279.612C436.367 280.907 435.162 282.738 435.072 285.104C435.028 288.363 436.144 290.797 438.421 292.404C440.743 294.011 443.511 295.596 446.725 297.159C451.324 299.391 455.476 301.601 459.182 303.789C462.888 305.932 465.812 308.41 467.956 311.223C470.143 313.991 471.237 317.429 471.237 321.537C471.237 328.502 468.849 333.793 464.071 337.409C459.294 341.026 452.753 342.834 444.448 342.834C441.011 342.834 437.662 342.566 434.403 342.03C431.188 341.494 428.331 340.802 425.83 339.954C423.375 339.106 421.544 338.235 420.339 337.342ZM517.778 342.834C507.063 342.834 498.803 339.441 492.999 332.654C487.195 325.868 484.293 316.447 484.293 304.392C484.293 297.159 485.565 290.685 488.11 284.97C490.7 279.255 494.495 274.723 499.495 271.375C504.54 268.026 510.724 266.307 518.046 266.218C521.797 266.129 525.324 266.664 528.628 267.825C531.932 268.986 534.856 270.75 537.401 273.116C539.946 275.438 541.955 278.384 543.429 281.956C544.947 285.528 545.773 289.703 545.907 294.48C545.907 297.293 545.884 299.815 545.84 302.048C545.795 304.236 545.594 306.178 545.237 307.874H493.267L494.606 298.097H531.441C531.664 294.525 531.441 291.154 530.771 287.984C530.146 284.769 528.762 282.18 526.619 280.215C524.52 278.206 521.395 277.201 517.243 277.201C513.76 277.201 510.635 278.184 507.867 280.148C505.098 282.068 502.955 285.327 501.437 289.926C499.919 294.525 499.294 300.82 499.562 308.812C499.83 314.438 500.969 318.88 502.978 322.139C504.987 325.399 507.621 327.72 510.88 329.105C514.14 330.489 517.778 331.181 521.797 331.181C523.493 331.181 525.57 331.002 528.025 330.645C530.481 330.243 532.847 329.752 535.124 329.171C537.446 328.546 539.209 327.877 540.415 327.162L543.362 336.003C541.71 337.342 539.455 338.525 536.598 339.552C533.785 340.579 530.726 341.383 527.422 341.963C524.118 342.544 520.904 342.834 517.778 342.834Z" fill="#E7EDD4"/>
<path fill-rule="evenodd" clip-rule="evenodd" d="M1184 704C1160.8 704 1142 685.196 1142 662C1142 638.804 1160.8 620 1184 620C1207.2 620 1226 638.804 1226 662C1226 685.196 1207.2 704 1184 704ZM973 834C973 859.405 993.595 880 1019 880C1044.41 880 1065 859.405 1065 834C1065 808.595 1044.41 788 1019 788C993.595 788 973 808.595 973 834ZM1372 838H1107.07C1105.43 838 1103.86 838.672 1102.73 839.86L1045.27 900.14C1044.14 901.328 1042.57 902 1040.93 902H964.5C954.283 902 946 910.283 946 920.5C946 930.717 954.283 939 964.5 939H1075.01C1076.61 939 1078.13 938.368 1079.26 937.243L1102.74 913.757C1103.87 912.632 1105.39 912 1106.99 912H1372V838ZM1224.8 707.375C1236.62 707.15 1247.3 714.367 1251.51 725.411L1291.5 830.5L1209.5 831.5L1193.5 800.5L1179.5 772.5L1156.98 790.97C1155.34 792.315 1153.49 793.39 1151.51 794.156L1092.5 817L1092.06 817.15C1083.4 820.127 1073.95 815.66 1070.75 807.08C1067.76 799.052 1071.25 790.055 1078.87 786.149L1086 782.5L1131.76 764.473C1134.23 763.501 1136.48 762.047 1138.38 760.196L1180.67 719.029C1187.95 711.943 1197.65 707.892 1207.81 707.699L1224.8 707.375ZM1107 921H1372V939H1107C1102.03 939 1098 934.971 1098 930C1098 925.029 1102.03 921 1107 921Z" fill="#EBF0DC"/>
</g>
<defs>
<clipPath id="clip0_638733_4838">
<rect width="1280" height="1000" fill="white"/>
</clipPath>
</defs>
</svg>
