<svg width="332" height="25" viewBox="0 0 332 25" fill="none" xmlns="http://www.w3.org/2000/svg">
<line x1="2.72848" y1="2" x2="14.037" y2="13.3086" stroke="#468459" stroke-width="2.44444" stroke-linecap="round"/>
<line x1="2.72848" y1="10.9629" x2="14.037" y2="22.2714" stroke="#468459" stroke-width="2.44444" stroke-linecap="round"/>
<path d="M44.6984 2.512H41.3864C41.4584 2.944 41.5304 4.144 41.5304 4.624C41.5304 5.728 41.5064 8.704 41.5064 11.44C41.5064 14.344 41.6264 17.68 41.6264 18.928C41.6264 19.768 41.3144 19.96 40.8824 19.96C40.2584 19.96 39.1304 19.312 39.1304 18.544C39.1304 17.512 40.6664 16.216 42.8264 15.4C44.6984 14.656 46.8104 14.224 48.8504 14.224C50.9384 14.224 52.3784 15.16 52.3784 16.816C52.3784 18.544 50.8184 19.528 48.8744 19.864C48.0584 20.032 47.0024 20.032 45.9464 20.032L47.0264 23.152C48.0104 23.056 49.0904 22.984 50.1944 22.744C54.0104 21.808 55.4984 19.672 55.4984 16.816C55.4984 13.504 52.5704 11.584 48.8744 11.584C47.0504 11.584 44.6264 11.968 42.4904 12.736C39.1544 13.912 36.1544 16.36 36.1544 18.688C36.1544 21.232 39.4664 23.248 41.7944 23.248C43.3784 23.248 44.4344 22.432 44.4344 19.48C44.4344 18.088 44.2904 13.936 44.2904 11.32C44.2904 9.088 44.3624 6.496 44.4824 4.6C44.5064 4 44.6024 2.968 44.6984 2.512ZM51.5384 5.128L50.2184 7.456C51.7064 8.176 54.8264 9.976 55.9784 10.936L57.4424 8.488C56.1464 7.576 53.3624 6.016 51.5384 5.128ZM36.8024 6.448L36.8744 9.352C37.6904 9.448 38.6264 9.472 40.2104 9.472C42.3224 9.472 46.1864 9.04 48.8984 8.416L48.8264 5.44C46.3544 6.16 42.6104 6.616 40.1144 6.616C39.2504 6.616 38.2184 6.616 36.8024 6.448ZM64.1864 3.928V6.328H80.5544V3.928H64.1864ZM64.4504 7.456V9.784H78.3704V7.456H64.4504ZM61.5944 10.984V13.408H75.4664V10.984H61.5944ZM63.8984 1.504C62.9864 4.864 61.1624 7.96 58.7624 9.784C59.5064 10.192 60.8264 11.104 61.4024 11.608C63.7304 9.472 65.7704 6.016 66.9224 2.176L63.8984 1.504ZM69.8504 13.528C67.8104 17.44 64.0184 20.56 59.6024 22.312C60.2504 22.816 61.3064 23.944 61.7384 24.544C66.1304 22.432 70.2104 18.952 72.6584 14.44L69.8504 13.528ZM74.5064 10.984C74.5544 18.328 74.9624 24.184 78.9224 24.208C80.7704 24.184 81.2984 22.912 81.5144 19.912C80.9144 19.48 80.1944 18.76 79.6184 18.088C79.5944 20.032 79.4984 21.328 79.1144 21.328C77.7224 21.328 77.4104 16.768 77.4824 10.984H74.5064ZM61.6424 16.192C65.1944 18.16 69.6104 21.232 71.6024 23.44L73.9064 21.232C71.6984 19.024 67.1624 16.096 63.7064 14.296L61.6424 16.192ZM94.2104 15.664V18.088H104.434V15.664H94.2104ZM92.9384 21.112V23.632H105.538V21.112H92.9384ZM93.9464 2.704V5.2H102.826V2.704H93.9464ZM97.8824 13V22.696H100.738V13H97.8824ZM102.058 2.704V3.16C100.858 7.696 97.2344 10.72 92.6744 11.92C93.2024 12.496 93.8744 13.552 94.1864 14.248C99.3704 12.568 103.282 9.28 104.89 3.304L103.09 2.608L102.586 2.704H102.058ZM97.1864 5.056L94.8104 5.68C96.5624 9.904 99.5624 12.808 104.122 14.152C104.482 13.408 105.274 12.352 105.85 11.8C101.602 10.816 98.6264 8.368 97.1864 5.056ZM83.2184 3.88V6.376H93.3224V3.88H83.2184ZM82.9304 17.848V20.368H93.4904V17.848H82.9304ZM86.9384 1.6V8.68H89.5064V1.6H86.9384ZM87.2504 8.68V15.352H86.9384V24.16H89.5064V15.352H89.1944V8.68H87.2504ZM85.5224 12.976H90.9944V14.44H85.5224V12.976ZM85.5224 9.688H90.9944V11.104H85.5224V9.688ZM83.4824 7.696V16.408H93.1304V7.696H83.4824ZM116.962 5.224L116.986 8.296C119.986 8.584 124.354 8.584 127.282 8.296V5.2C124.714 5.512 119.914 5.632 116.962 5.224ZM118.882 15.472L116.146 15.232C115.858 16.456 115.714 17.392 115.714 18.352C115.714 20.8 117.706 22.288 121.834 22.288C124.546 22.288 126.49 22.12 128.05 21.808L127.978 18.568C125.89 19.024 124.114 19.216 121.978 19.216C119.53 19.216 118.594 18.568 118.594 17.488C118.594 16.864 118.69 16.288 118.882 15.472ZM113.266 3.616L109.906 3.352C109.882 4.12 109.762 5.032 109.666 5.68C109.402 7.552 108.682 11.584 108.682 15.208C108.682 18.472 109.138 21.4 109.618 23.032L112.378 22.864C112.354 22.528 112.354 22.12 112.33 21.856C112.33 21.616 112.402 21.088 112.474 20.728C112.714 19.456 113.506 16.864 114.202 14.848L112.714 13.672C112.354 14.488 111.97 15.304 111.61 16.12C111.538 15.64 111.514 15.04 111.514 14.56C111.514 12.16 112.354 7.36 112.69 5.776C112.786 5.344 113.098 4.12 113.266 3.616ZM134.446 4.816V7.984C136.414 8.128 138.502 8.248 141.022 8.248C143.302 8.248 146.278 8.104 147.958 7.96V4.768C146.11 4.96 143.35 5.104 140.998 5.104C138.478 5.104 136.222 5.008 134.446 4.816ZM136.486 14.968L133.318 14.704C133.126 15.592 132.838 16.768 132.838 18.16C132.838 21.448 135.598 23.296 141.094 23.296C144.478 23.296 147.358 22.984 149.446 22.48L149.422 19.12C147.286 19.696 144.238 20.056 140.998 20.056C137.518 20.056 136.078 18.952 136.078 17.416C136.078 16.6 136.246 15.832 136.486 14.968ZM148.582 2.32L146.662 3.112C147.31 4.024 148.054 5.464 148.558 6.448L150.478 5.632C150.022 4.744 149.182 3.208 148.582 2.32ZM151.414 1.24L149.518 2.032C150.166 2.944 150.958 4.336 151.438 5.344L153.358 4.504C152.926 3.664 152.038 2.152 151.414 1.24ZM154.99 12.112V14.872H176.566V12.112H154.99ZM156.118 4.24V6.976H175.606V4.24H156.118ZM164.23 1.6V24.136H167.302V1.6H164.23ZM171.382 6.904C170.926 8.32 170.038 10.192 169.294 11.416L171.79 12.232C172.558 11.152 173.518 9.448 174.406 7.792L171.382 6.904ZM157.726 7.936C158.542 9.304 159.358 11.128 159.598 12.28L162.358 11.2C162.046 10.024 161.182 8.272 160.294 6.976L157.726 7.936ZM163.75 13.216C161.806 16.288 158.014 19.336 154.318 20.896C154.966 21.472 155.902 22.6 156.358 23.296C160.102 21.4 163.822 17.944 166.078 14.152L163.75 13.216ZM167.854 13.264L165.526 14.2C167.782 17.968 171.406 21.472 175.15 23.368C175.606 22.624 176.518 21.52 177.19 20.944C173.518 19.384 169.774 16.312 167.854 13.264ZM192.19 1.744V5.512H194.998V1.744H192.19ZM186.862 4.264V9.016H189.406V6.712H198.094V8.992H200.758V4.264H186.862ZM188.638 8.656V11.128H198.91V8.656H188.638ZM187.198 12.856V15.424H200.662V12.856H187.198ZM189.91 14.104C189.766 18.28 189.382 20.584 185.038 21.88C185.59 22.408 186.31 23.464 186.55 24.16C191.71 22.432 192.43 19.264 192.646 14.104H189.91ZM194.326 13.816V20.656C194.326 23.128 194.806 23.944 196.918 23.944C197.302 23.944 198.094 23.944 198.526 23.944C200.206 23.944 200.878 23.032 201.118 19.648C200.398 19.48 199.246 19.024 198.718 18.592C198.67 21.04 198.598 21.424 198.214 21.424C198.046 21.424 197.542 21.424 197.398 21.424C197.086 21.424 197.038 21.328 197.038 20.632V13.816H194.326ZM179.47 2.656V24.184H181.99V5.224H185.134V2.656H179.47ZM184.246 2.656V3.472C183.91 5.008 183.142 8.32 182.47 10.48C183.838 12.088 184.15 13.576 184.15 14.704C184.15 15.376 184.03 15.856 183.742 16.072C183.574 16.216 183.334 16.264 183.07 16.264C182.782 16.288 182.47 16.264 182.038 16.24C182.422 16.936 182.638 18.016 182.662 18.712C183.214 18.712 183.79 18.688 184.222 18.64C184.75 18.568 185.206 18.4 185.59 18.136C186.358 17.608 186.67 16.6 186.67 15.04C186.67 13.648 186.382 12.04 184.894 10.168C185.59 8.296 186.382 5.68 187.006 3.616L185.134 2.56L184.726 2.656H184.246ZM219.382 4.72L216.574 2.224C216.19 2.8 215.422 3.592 214.726 4.264C213.118 5.848 209.806 8.512 207.934 10.048C205.534 12.04 205.342 13.336 207.718 15.376C209.926 17.224 213.454 20.248 214.894 21.76C215.614 22.48 216.334 23.224 217.006 23.992L219.79 21.4C217.342 19.024 212.782 15.448 210.982 13.936C209.686 12.808 209.662 12.52 210.934 11.44C212.542 10.048 215.71 7.6 217.27 6.352C217.822 5.896 218.614 5.272 219.382 4.72ZM236.398 3.136L232.726 2.848C232.798 3.4 232.774 4.384 232.654 5.272C232.486 6.712 231.934 9.328 231.31 11.584C230.422 14.944 228.598 19.984 227.158 22.384L230.518 23.512C231.838 20.68 233.446 15.76 234.31 12.4C234.958 9.976 235.534 7.024 235.87 5.392C235.99 4.864 236.23 3.784 236.398 3.136ZM230.278 6.712C229.294 6.712 228.502 6.688 227.254 6.544L227.35 9.52C228.19 9.568 229.078 9.616 230.254 9.616C232.966 9.616 236.734 9.232 239.71 8.536V5.536C236.59 6.28 233.206 6.712 230.278 6.712ZM237.814 10.408V13.216C239.326 13.024 240.79 12.952 242.47 12.952C243.91 12.952 245.374 13.096 246.598 13.24L246.646 10.36C245.254 10.216 243.814 10.144 242.446 10.144C240.862 10.144 239.158 10.264 237.814 10.408ZM239.11 16.432L236.254 16.144C236.038 17.104 235.846 18.256 235.846 19.36C235.846 21.784 238.006 23.2 242.062 23.2C243.982 23.2 245.59 23.008 246.934 22.84L247.054 19.768C245.35 20.08 243.67 20.272 242.086 20.272C239.494 20.272 238.798 19.48 238.798 18.424C238.798 17.896 238.942 17.104 239.11 16.432ZM244.078 3.832L242.182 4.6C242.83 5.536 243.574 6.952 244.078 7.936L245.998 7.12C245.542 6.232 244.702 4.696 244.078 3.832ZM246.934 2.728L245.038 3.52C245.686 4.432 246.478 5.824 246.958 6.832L248.878 6.016C248.446 5.152 247.558 3.64 246.934 2.728ZM261.91 4.984C262.198 5.776 262.534 6.88 263.062 8.2C263.806 10.192 264.862 12.208 265.726 13.624C264.982 13.552 263.398 13.432 262.222 13.312L261.982 15.856C263.998 16.024 267.046 16.336 268.39 16.6L269.854 14.464C269.422 13.96 268.99 13.456 268.582 12.856C267.79 11.752 266.662 9.688 265.918 7.672C265.342 6.136 264.766 4.24 264.406 2.392L261.166 2.776C261.454 3.568 261.742 4.432 261.91 4.984ZM253.174 6.112L253.222 9.16C258.142 9.568 261.934 9.472 265.126 9.088C267.046 8.872 269.11 8.512 270.694 8.056L270.334 5.056C268.438 5.632 266.326 6.04 264.19 6.304C261.31 6.616 257.662 6.64 253.174 6.112ZM257.998 14.272L254.998 13.576C254.182 15.208 253.726 16.576 253.726 18.04C253.726 21.52 256.798 23.416 261.718 23.416C264.622 23.416 266.782 23.104 268.15 22.864L268.318 19.816C266.638 20.152 264.526 20.416 261.91 20.416C258.622 20.392 256.822 19.552 256.822 17.512C256.822 16.48 257.206 15.424 257.998 14.272ZM279.982 4.864L276.286 4.816C276.454 5.56 276.478 6.592 276.478 7.24C276.478 8.704 276.502 11.536 276.742 13.744C277.414 20.176 279.694 22.528 282.358 22.528C284.278 22.528 285.766 21.088 287.374 16.888L284.95 13.984C284.494 15.88 283.558 18.712 282.406 18.712C280.894 18.712 280.174 16.336 279.838 12.88C279.694 11.128 279.694 9.352 279.694 7.792C279.694 7.12 279.814 5.704 279.982 4.864ZM291.982 5.392L288.934 6.4C291.55 9.376 292.846 15.184 293.206 19.072L296.374 17.824C296.11 14.152 294.262 8.152 291.982 5.392Z" fill="#468459"/>
<line x1="1.22222" y1="-1.22222" x2="17.2149" y2="-1.22222" transform="matrix(-0.707107 0.707107 0.707107 0.707107 331 2)" stroke="#468459" stroke-width="2.44444" stroke-linecap="round"/>
<line x1="1.22222" y1="-1.22222" x2="17.2149" y2="-1.22222" transform="matrix(-0.707107 0.707107 0.707107 0.707107 331 10.9629)" stroke="#468459" stroke-width="2.44444" stroke-linecap="round"/>
</svg>
