<svg width="459" height="123" viewBox="0 0 459 123" fill="none" xmlns="http://www.w3.org/2000/svg">
<g clip-path="url(#clip0_663309_1534)">
<rect x="0.5" y="0.5" width="459" height="121" rx="4.5" stroke="#DDDDDD"/>
<g clip-path="url(#clip1_663309_1534)">
<mask id="path-4-inside-1_663309_1534" fill="white">
<path d="M1 1H109V121H1V1Z"/>
</mask>
<rect width="108" height="44" transform="translate(1 1)" fill="#468459"/>
<path d="M31.914 22.644H36.072V23.638H31.914V22.644ZM30.36 21.412V24.856H37.71V21.412H30.36ZM32.992 24.338C32.922 24.898 32.74 25.654 32.558 26.214L34.028 26.424C34.28 25.92 34.63 25.206 34.91 24.45L32.992 24.338ZM29.184 25.71V30.288H30.78V27.152H37.36V30.288H39.04V25.71H29.184ZM30.08 28.384V29.826H38.074V28.384H30.08ZM28.106 19.298V22.294H29.632V20.726H38.424V22.294H40.048V19.298H28.106ZM37.5 17.184C37.206 17.856 36.66 18.752 36.212 19.354L37.57 19.872C38.074 19.34 38.704 18.528 39.306 17.73L37.5 17.184ZM28.876 17.926C29.338 18.486 29.842 19.27 30.038 19.774L31.578 19.102C31.354 18.584 30.808 17.842 30.332 17.31L28.876 17.926ZM32.39 17.576C32.768 18.164 33.202 18.99 33.37 19.508L34.924 18.934C34.728 18.416 34.252 17.618 33.86 17.058L32.39 17.576ZM41.784 25.682V27.054H54.272V25.682H41.784ZM41.812 19.396V20.782H54.216V19.396H41.812ZM42.386 21.902V23.218H53.684V21.902H42.386ZM43.086 23.834V25.052H53.026V23.834H43.086ZM47.146 22.574V30.26H48.812V22.574H47.146ZM45.928 17.1V20.054H47.496V17.1H45.928ZM48.518 17.1V19.956H50.114V17.1H48.518ZM46.838 26.298C45.69 27.362 43.464 28.286 41.35 28.692C41.714 29.042 42.204 29.686 42.428 30.092C44.584 29.532 46.824 28.342 48.154 26.886L46.838 26.298ZM49.148 26.256L47.846 26.774C49.162 28.356 51.304 29.546 53.516 30.106C53.768 29.644 54.272 28.944 54.65 28.594C52.466 28.23 50.282 27.362 49.148 26.256ZM51.738 17.212C51.542 17.828 51.178 18.682 50.856 19.256L52.214 19.676C52.578 19.158 53.054 18.402 53.502 17.632L51.738 17.212ZM49.89 20.222C49.75 20.74 49.456 21.454 49.204 21.958L50.632 22.364C50.926 21.916 51.29 21.3 51.668 20.628L49.89 20.222ZM42.82 17.66C43.198 18.304 43.646 19.158 43.8 19.704L45.326 19.158C45.13 18.612 44.668 17.772 44.262 17.17L42.82 17.66ZM44.598 20.796C44.808 21.202 45.046 21.79 45.13 22.154L46.838 21.86C46.726 21.482 46.46 20.936 46.222 20.544L44.598 20.796ZM60.992 18.598V20.054H68.146V18.598H60.992ZM60.516 21.286V22.77H68.566V21.286H60.516ZM60.544 23.96V25.43H68.468V23.96H60.544ZM63.694 17.1V22.238H65.346V17.1H63.694ZM65.472 22.686V28.454C65.472 28.65 65.402 28.692 65.178 28.692C64.968 28.706 64.198 28.706 63.512 28.678C63.736 29.112 63.988 29.784 64.044 30.246C65.094 30.246 65.85 30.218 66.41 29.966C66.956 29.728 67.11 29.294 67.11 28.482V22.686H65.472ZM61.104 26.368C61.748 27.082 62.448 28.076 62.714 28.734L64.156 27.894C63.848 27.208 63.106 26.284 62.448 25.598L61.104 26.368ZM56.666 17.968V19.466H58.71V26.046H56.666V27.544H60.278V17.968H56.666ZM56.75 21.944V23.414H59.466V21.944H56.75ZM55.882 17.968V28.79H57.436V17.968H55.882ZM74.068 25.654V26.858H77.904V25.654H74.068ZM73.97 23.582V24.814H77.12V27.726H73.97V28.958H78.688V23.582H73.97ZM73.284 23.582V29.672H74.796V23.582H73.284ZM70.932 19.592V20.726H74.446V19.592H70.932ZM77.428 19.592V20.726H80.97V19.592H77.428ZM80.284 17.646V28.258C80.284 28.496 80.2 28.58 79.948 28.58C79.696 28.58 78.842 28.594 78.114 28.552C78.338 29 78.59 29.784 78.66 30.26C79.864 30.26 80.676 30.232 81.236 29.952C81.796 29.672 81.978 29.182 81.978 28.272V17.646H80.284ZM71.072 17.646V18.864H73.928V21.524H71.072V22.728H75.496V17.646H71.072ZM81.18 17.646H76.448V22.77H81.18V21.566H78.044V18.864H81.18V17.646ZM70.106 17.646V30.26H71.772V17.646H70.106Z" fill="white"/>
<rect width="108" height="38" transform="translate(1 45)" fill="white"/>
<rect width="108" height="38" transform="translate(1 83)" fill="#F7F7F7"/>
</g>
<path d="M108 1V121H110V1H108Z" fill="#DDDDDD" mask="url(#path-4-inside-1_663309_1534)"/>
<g clip-path="url(#clip2_663309_1534)">
<mask id="path-7-inside-2_663309_1534" fill="white">
<path d="M109 1H159V121H109V1Z"/>
</mask>
<rect width="50" height="44" transform="translate(109 1)" fill="#468459"/>
<path d="M130.766 17.772V19.41H137.766V17.772H130.766ZM130.78 21.118V22.714H137.836V21.118H130.78ZM130.71 24.436V26.06H137.738V24.436H130.71ZM129.618 17.772V22.406C129.618 24.548 129.422 27.25 127.294 29.056C127.658 29.28 128.344 29.91 128.596 30.26C130.962 28.272 131.34 24.842 131.34 22.406V17.772H129.618ZM136.982 17.772V28.104C136.982 28.398 136.87 28.496 136.548 28.51C136.212 28.51 135.05 28.524 134.056 28.468C134.336 28.916 134.658 29.728 134.756 30.232C136.212 30.232 137.206 30.204 137.878 29.91C138.522 29.63 138.76 29.126 138.76 28.132V17.772H136.982Z" fill="white"/>
<rect width="50" height="38" transform="translate(109 45)" fill="white"/>
<rect width="50" height="38" transform="translate(109 83)" fill="#F7F7F7"/>
</g>
<path d="M158 1V121H160V1H158Z" fill="#DDDDDD" mask="url(#path-7-inside-2_663309_1534)"/>
<g clip-path="url(#clip3_663309_1534)">
<mask id="path-10-inside-3_663309_1534" fill="white">
<path d="M159 1H209V121H159V1Z"/>
</mask>
<rect width="50" height="44" transform="translate(159 1)" fill="#468459"/>
<path d="M179.464 19.9C179.268 21.496 178.806 22.896 177.784 23.75L179.31 24.702C180.514 23.694 180.934 22.028 181.172 20.264L179.464 19.9ZM188.06 19.872C187.64 21.118 186.856 22.742 186.198 23.778L187.654 24.422C188.354 23.442 189.208 21.944 189.922 20.586L188.06 19.872ZM183.916 17.31H183.006V21.706C183.006 23.806 181.732 27.208 177.504 28.818C177.868 29.168 178.456 29.882 178.68 30.26C181.998 28.846 183.538 26.116 183.916 24.688C184.308 26.074 186.002 28.888 189.362 30.26C189.614 29.77 190.146 29.056 190.524 28.678C186.156 27.068 184.84 23.82 184.84 21.692V17.31H183.916Z" fill="white"/>
<rect width="50" height="38" transform="translate(159 45)" fill="white"/>
<rect width="50" height="38" transform="translate(159 83)" fill="#F6F6F6"/>
</g>
<path d="M208 1V121H210V1H208Z" fill="#DDDDDD" mask="url(#path-10-inside-3_663309_1534)"/>
<g clip-path="url(#clip4_663309_1534)">
<mask id="path-13-inside-4_663309_1534" fill="white">
<path d="M209 1H259V121H209V1Z"/>
</mask>
<rect width="50" height="44" transform="translate(209 1)" fill="#468459"/>
<path d="M227.714 20.544V22.238H231.62V20.544H227.714ZM233.16 17.128V28.076C233.16 28.342 233.062 28.426 232.782 28.44C232.474 28.44 231.592 28.44 230.668 28.398C230.934 28.902 231.27 29.756 231.34 30.274C232.614 30.274 233.538 30.204 234.14 29.91C234.728 29.602 234.938 29.098 234.938 28.09V17.128H233.16ZM231.046 20.544V20.908C230.57 24.002 229.198 26.438 227.28 27.726C227.686 27.978 228.372 28.664 228.666 29.056C230.668 27.586 232.208 24.73 232.852 20.908L231.69 20.488L231.396 20.544H231.046ZM234.84 19.172L233.51 19.452C234.504 23.778 236.17 27.418 239.418 29.252C239.698 28.734 240.286 28.034 240.706 27.684C237.57 26.186 235.736 22.882 234.84 19.172ZM238.76 19.298C237.892 20.544 236.408 22.07 235.274 23.008L236.478 23.96C237.654 23.078 239.152 21.664 240.342 20.404L238.76 19.298Z" fill="white"/>
<rect width="50" height="38" transform="translate(209 45)" fill="white"/>
<rect width="50" height="38" transform="translate(209 83)" fill="#F6F6F6"/>
</g>
<path d="M258 1V121H260V1H258Z" fill="#DDDDDD" mask="url(#path-13-inside-4_663309_1534)"/>
<g clip-path="url(#clip5_663309_1534)">
<mask id="path-16-inside-5_663309_1534" fill="white">
<path d="M259 1H309V121H259V1Z"/>
</mask>
<rect width="50" height="44" transform="translate(259 1)" fill="#468459"/>
<path d="M277.84 20.376V22.042H290.16V20.376H277.84ZM283.09 17.114V30.26H284.882V17.114H283.09ZM282.726 21.3C281.648 23.764 279.52 26.242 277.21 27.502C277.602 27.852 278.176 28.51 278.47 28.944C280.878 27.418 282.95 24.744 284.21 21.79L282.726 21.3ZM285.204 21.37L283.804 21.86C285.092 24.702 287.164 27.376 289.502 28.888C289.782 28.426 290.37 27.754 290.776 27.418C288.494 26.186 286.31 23.75 285.204 21.37Z" fill="white"/>
<rect width="50" height="38" transform="translate(259 45)" fill="white"/>
<rect width="50" height="38" transform="translate(259 83)" fill="#F6F6F6"/>
</g>
<path d="M308 1V121H310V1H308Z" fill="#DDDDDD" mask="url(#path-16-inside-5_663309_1534)"/>
<g clip-path="url(#clip6_663309_1534)">
<mask id="path-19-inside-6_663309_1534" fill="white">
<path d="M309 1H359V121H309V1Z"/>
</mask>
<rect width="50" height="44" transform="translate(309 1)" fill="#468459"/>
<path d="M333.944 18.71C335.148 20.362 337.486 22.252 339.628 23.386C339.936 22.868 340.328 22.294 340.734 21.874C338.508 20.964 336.254 19.2 334.742 17.072H332.992C331.956 18.766 329.702 20.866 327.294 22.042C327.658 22.392 328.134 23.008 328.344 23.4C330.64 22.182 332.782 20.348 333.944 18.71ZM330.43 21.314V22.784H337.486V21.314H330.43ZM328.764 24.17V25.612H339.138V24.17H328.764ZM328.05 28.426V29.868H339.95V28.426H328.05ZM333.02 21.902V29.14H334.812V21.902H333.02ZM329.632 26.144C330.136 26.886 330.654 27.908 330.836 28.552L332.292 27.922C332.082 27.264 331.522 26.298 330.99 25.584L329.632 26.144ZM336.758 25.598C336.45 26.354 335.862 27.376 335.414 28.034L336.674 28.552C337.164 27.964 337.78 27.054 338.354 26.2L336.758 25.598Z" fill="white"/>
<rect width="50" height="38" transform="translate(309 45)" fill="white"/>
<rect width="50" height="38" transform="translate(309 83)" fill="#F6F6F6"/>
</g>
<path d="M358 1V121H360V1H358Z" fill="#DDDDDD" mask="url(#path-19-inside-6_663309_1534)"/>
<g clip-path="url(#clip7_663309_1534)">
<mask id="path-22-inside-7_663309_1534" fill="white">
<path d="M359 1H409V121H359V1Z"/>
</mask>
<rect width="50" height="44" transform="translate(359 1)" fill="#468459"/>
<path d="M378.554 21.454V23.106H389.46V21.454H378.554ZM377.63 28.02V29.672H390.384V28.02H377.63ZM383.062 17.142V29.14H384.868V17.142H383.062Z" fill="white"/>
<rect width="50" height="38" transform="translate(359 45)" fill="white"/>
<rect width="50" height="38" transform="translate(359 83)" fill="#F6F6F6"/>
</g>
<path d="M408 1V121H410V1H408Z" fill="#DDDDDD" mask="url(#path-22-inside-7_663309_1534)"/>
<g clip-path="url(#clip8_663309_1534)">
<rect width="50" height="44" transform="translate(409 1)" fill="#468459"/>
<path d="M429.142 17.954V30.092H430.878V19.648H437.108V30.078H438.914V17.954H429.142ZM430.332 22.658V24.324H437.864V22.658H430.332ZM430.318 27.488V29.182H437.864V27.488H430.318Z" fill="white"/>
<rect width="50" height="38" transform="translate(409 45)" fill="white"/>
<rect width="50" height="38" transform="translate(409 83)" fill="#F6F6F6"/>
</g>
<path d="M17.7868 70.196C19.7748 70.196 21.6228 68.558 21.6228 64.498C21.6228 61.096 20.0268 59.514 18.0528 59.514C16.3728 59.514 14.9728 60.844 14.9728 62.902C14.9728 65.058 16.1348 66.136 17.8568 66.136C18.6828 66.136 19.6068 65.632 20.2088 64.834L20.1248 63.658C19.5228 64.596 18.7948 64.96 18.1508 64.96C17.0728 64.96 16.4708 64.204 16.4708 62.902C16.4708 61.544 17.1708 60.746 18.0668 60.746C19.3268 60.746 20.1248 61.922 20.1248 64.498C20.1248 67.774 19.0188 68.866 17.7168 68.866C17.0728 68.866 16.4428 68.558 16.0228 68.096L15.1548 69.09C15.7428 69.706 16.5968 70.196 17.7868 70.196ZM24.4551 64.694C25.0571 64.694 25.5331 64.218 25.5331 63.56C25.5331 62.902 25.0571 62.426 24.4551 62.426C23.8391 62.426 23.3771 62.902 23.3771 63.56C23.3771 64.218 23.8391 64.694 24.4551 64.694ZM24.4551 70.196C25.0571 70.196 25.5331 69.72 25.5331 69.062C25.5331 68.39 25.0571 67.928 24.4551 67.928C23.8391 67.928 23.3771 68.39 23.3771 69.062C23.3771 69.72 23.8391 70.196 24.4551 70.196ZM30.5291 70.196C32.5451 70.196 33.8611 68.39 33.8611 64.806C33.8611 61.25 32.5451 59.514 30.5291 59.514C28.4991 59.514 27.1971 61.25 27.1971 64.806C27.1971 68.39 28.4991 70.196 30.5291 70.196ZM30.5291 68.908C29.4791 68.908 28.7371 67.788 28.7371 64.806C28.7371 61.866 29.4791 60.774 30.5291 60.774C31.5791 60.774 32.3071 61.866 32.3071 64.806C32.3071 67.788 31.5791 68.908 30.5291 68.908ZM38.5134 70.196C40.5294 70.196 41.8454 68.39 41.8454 64.806C41.8454 61.25 40.5294 59.514 38.5134 59.514C36.4834 59.514 35.1814 61.25 35.1814 64.806C35.1814 68.39 36.4834 70.196 38.5134 70.196ZM38.5134 68.908C37.4634 68.908 36.7214 67.788 36.7214 64.806C36.7214 61.866 37.4634 60.774 38.5134 60.774C39.5634 60.774 40.2914 61.866 40.2914 64.806C40.2914 67.788 39.5634 68.908 38.5134 68.908ZM49.0038 65.17C49.9698 66.164 50.9218 66.682 52.2238 66.682C53.7078 66.682 55.0378 65.842 55.9478 64.176L54.7158 63.518C54.1558 64.568 53.2598 65.296 52.2518 65.296C51.2578 65.296 50.6838 64.89 49.9978 64.204C49.0318 63.196 48.0798 62.692 46.7778 62.692C45.2938 62.692 43.9638 63.532 43.0538 65.198L44.2858 65.856C44.8458 64.806 45.7418 64.078 46.7498 64.078C47.7578 64.078 48.3178 64.498 49.0038 65.17ZM57.6978 70H63.5918V68.67H61.5758V59.696H60.3578C59.7558 60.06 59.0838 60.312 58.1038 60.48V61.502H59.9658V68.67H57.6978V70ZM65.0942 70H71.7582V68.628H69.1822C68.6782 68.628 68.0202 68.684 67.4882 68.74C69.6722 66.64 71.2682 64.582 71.2682 62.608C71.2682 60.732 70.0502 59.514 68.1602 59.514C66.8162 59.514 65.9062 60.088 65.0102 61.054L65.9342 61.936C66.4802 61.306 67.1522 60.802 67.9642 60.802C69.1122 60.802 69.7002 61.572 69.7002 62.678C69.7002 64.372 68.1462 66.374 65.0942 69.062V70ZM74.5626 64.694C75.1646 64.694 75.6406 64.218 75.6406 63.56C75.6406 62.902 75.1646 62.426 74.5626 62.426C73.9466 62.426 73.4846 62.902 73.4846 63.56C73.4846 64.218 73.9466 64.694 74.5626 64.694ZM74.5626 70.196C75.1646 70.196 75.6406 69.72 75.6406 69.062C75.6406 68.39 75.1646 67.928 74.5626 67.928C73.9466 67.928 73.4846 68.39 73.4846 69.062C73.4846 69.72 73.9466 70.196 74.5626 70.196ZM80.3845 70.196C82.2885 70.196 83.8425 69.104 83.8425 67.242C83.8425 65.842 82.9045 64.96 81.7145 64.652V64.582C82.8065 64.176 83.4925 63.35 83.4925 62.16C83.4925 60.466 82.1905 59.514 80.3425 59.514C79.1525 59.514 78.2005 60.018 77.3745 60.746L78.2285 61.768C78.8165 61.18 79.4885 60.802 80.2725 60.802C81.2665 60.802 81.8545 61.376 81.8545 62.286C81.8545 63.322 81.1825 64.078 79.1665 64.078V65.282C81.4765 65.282 82.2045 66.01 82.2045 67.158C82.2045 68.222 81.4065 68.866 80.2585 68.866C79.1805 68.866 78.4245 68.348 77.8225 67.732L77.0245 68.768C77.7245 69.552 78.7745 70.196 80.3845 70.196ZM88.6209 70.196C90.6369 70.196 91.9529 68.39 91.9529 64.806C91.9529 61.25 90.6369 59.514 88.6209 59.514C86.5909 59.514 85.2889 61.25 85.2889 64.806C85.2889 68.39 86.5909 70.196 88.6209 70.196ZM88.6209 68.908C87.5709 68.908 86.8289 67.788 86.8289 64.806C86.8289 61.866 87.5709 60.774 88.6209 60.774C89.6709 60.774 90.3989 61.866 90.3989 64.806C90.3989 67.788 89.6709 68.908 88.6209 68.908Z" fill="#468459"/>
<path d="M126.7 62.68C126.7 66.166 129.514 68.98 133 68.98C136.486 68.98 139.3 66.166 139.3 62.68C139.3 59.194 136.486 56.38 133 56.38C129.514 56.38 126.7 59.194 126.7 62.68Z" fill="#468459"/>
<path d="M176.7 62.68C176.7 66.166 179.514 68.98 183 68.98C186.486 68.98 189.3 66.166 189.3 62.68C189.3 59.194 186.486 56.38 183 56.38C179.514 56.38 176.7 59.194 176.7 62.68Z" fill="#468459"/>
<path d="M229.54 63.394H236.456V62.218H229.54V63.394Z" fill="#468459"/>
<path d="M276.7 62.68C276.7 66.166 279.514 68.98 283 68.98C286.486 68.98 289.3 66.166 289.3 62.68C289.3 59.194 286.486 56.38 283 56.38C279.514 56.38 276.7 59.194 276.7 62.68Z" fill="#468459"/>
<path d="M326.7 62.68C326.7 66.166 329.514 68.98 333 68.98C336.486 68.98 339.3 66.166 339.3 62.68C339.3 59.194 336.486 56.38 333 56.38C329.514 56.38 326.7 59.194 326.7 62.68Z" fill="#468459"/>
<path d="M376.7 62.68C376.7 66.166 379.514 68.98 383 68.98C386.486 68.98 389.3 66.166 389.3 62.68C389.3 59.194 386.486 56.38 383 56.38C379.514 56.38 376.7 59.194 376.7 62.68Z" fill="#468459"/>
<path d="M434 56.912C432.272 56.912 430.544 57.584 429.296 58.72C427.776 60.112 426.976 61.904 426.976 63.92C426.976 67.792 430.128 70.944 434 70.944C437.872 70.944 441.008 67.808 441.008 63.92C441.008 62.176 440.368 60.512 439.2 59.232C437.84 57.728 436.016 56.912 434 56.912Z" fill="#468459"/>
<path d="M11.5826 108H17.4766V106.67H15.4606V97.696H14.2426C13.6406 98.06 12.9686 98.312 11.9886 98.48V99.502H13.8506V106.67H11.5826V108ZM22.129 108.196C23.921 108.196 25.601 106.894 25.601 104.626C25.601 102.358 24.187 101.35 22.465 101.35C21.905 101.35 21.485 101.476 21.051 101.7L21.289 99.068H25.111V97.696H19.875L19.567 102.596L20.365 103.1C20.967 102.708 21.359 102.526 22.003 102.526C23.179 102.526 23.963 103.31 23.963 104.668C23.963 106.04 23.095 106.866 21.933 106.866C20.855 106.866 20.099 106.348 19.525 105.76L18.741 106.81C19.483 107.538 20.505 108.196 22.129 108.196ZM28.4473 102.694C29.0493 102.694 29.5253 102.218 29.5253 101.56C29.5253 100.902 29.0493 100.426 28.4473 100.426C27.8313 100.426 27.3693 100.902 27.3693 101.56C27.3693 102.218 27.8313 102.694 28.4473 102.694ZM28.4473 108.196C29.0493 108.196 29.5253 107.72 29.5253 107.062C29.5253 106.39 29.0493 105.928 28.4473 105.928C27.8313 105.928 27.3693 106.39 27.3693 107.062C27.3693 107.72 27.8313 108.196 28.4473 108.196ZM34.2693 108.196C36.1733 108.196 37.7272 107.104 37.7272 105.242C37.7272 103.842 36.7893 102.96 35.5993 102.652V102.582C36.6913 102.176 37.3773 101.35 37.3773 100.16C37.3773 98.466 36.0753 97.514 34.2272 97.514C33.0373 97.514 32.0853 98.018 31.2593 98.746L32.1133 99.768C32.7013 99.18 33.3733 98.802 34.1573 98.802C35.1513 98.802 35.7393 99.376 35.7393 100.286C35.7393 101.322 35.0673 102.078 33.0513 102.078V103.282C35.3613 103.282 36.0893 104.01 36.0893 105.158C36.0893 106.222 35.2913 106.866 34.1433 106.866C33.0653 106.866 32.3093 106.348 31.7073 105.732L30.9093 106.768C31.6093 107.552 32.6593 108.196 34.2693 108.196ZM42.5056 108.196C44.5216 108.196 45.8376 106.39 45.8376 102.806C45.8376 99.25 44.5216 97.514 42.5056 97.514C40.4756 97.514 39.1736 99.25 39.1736 102.806C39.1736 106.39 40.4756 108.196 42.5056 108.196ZM42.5056 106.908C41.4556 106.908 40.7136 105.788 40.7136 102.806C40.7136 99.866 41.4556 98.774 42.5056 98.774C43.5556 98.774 44.2836 99.866 44.2836 102.806C44.2836 105.788 43.5556 106.908 42.5056 106.908ZM52.996 103.17C53.962 104.164 54.914 104.682 56.216 104.682C57.7 104.682 59.03 103.842 59.94 102.176L58.708 101.518C58.148 102.568 57.252 103.296 56.244 103.296C55.25 103.296 54.676 102.89 53.99 102.204C53.024 101.196 52.072 100.692 50.77 100.692C49.286 100.692 47.956 101.532 47.046 103.198L48.278 103.856C48.838 102.806 49.734 102.078 50.742 102.078C51.75 102.078 52.31 102.498 52.996 103.17ZM61.102 108H67.766V106.628H65.19C64.686 106.628 64.028 106.684 63.496 106.74C65.68 104.64 67.276 102.582 67.276 100.608C67.276 98.732 66.058 97.514 64.168 97.514C62.824 97.514 61.914 98.088 61.018 99.054L61.942 99.936C62.488 99.306 63.16 98.802 63.972 98.802C65.12 98.802 65.708 99.572 65.708 100.678C65.708 102.372 64.154 104.374 61.102 107.062V108ZM72.4744 108.196C74.4904 108.196 75.8064 106.39 75.8064 102.806C75.8064 99.25 74.4904 97.514 72.4744 97.514C70.4444 97.514 69.1424 99.25 69.1424 102.806C69.1424 106.39 70.4444 108.196 72.4744 108.196ZM72.4744 106.908C71.4244 106.908 70.6824 105.788 70.6824 102.806C70.6824 99.866 71.4244 98.774 72.4744 98.774C73.5244 98.774 74.2524 99.866 74.2524 102.806C74.2524 105.788 73.5244 106.908 72.4744 106.908ZM78.5548 102.694C79.1568 102.694 79.6328 102.218 79.6328 101.56C79.6328 100.902 79.1568 100.426 78.5548 100.426C77.9388 100.426 77.4768 100.902 77.4768 101.56C77.4768 102.218 77.9388 102.694 78.5548 102.694ZM78.5548 108.196C79.1568 108.196 79.6328 107.72 79.6328 107.062C79.6328 106.39 79.1568 105.928 78.5548 105.928C77.9388 105.928 77.4768 106.39 77.4768 107.062C77.4768 107.72 77.9388 108.196 78.5548 108.196ZM84.6287 108.196C86.6447 108.196 87.9607 106.39 87.9607 102.806C87.9607 99.25 86.6447 97.514 84.6287 97.514C82.5987 97.514 81.2967 99.25 81.2967 102.806C81.2967 106.39 82.5987 108.196 84.6287 108.196ZM84.6287 106.908C83.5787 106.908 82.8367 105.788 82.8367 102.806C82.8367 99.866 83.5787 98.774 84.6287 98.774C85.6787 98.774 86.4067 99.866 86.4067 102.806C86.4067 105.788 85.6787 106.908 84.6287 106.908ZM92.613 108.196C94.629 108.196 95.945 106.39 95.945 102.806C95.945 99.25 94.629 97.514 92.613 97.514C90.583 97.514 89.281 99.25 89.281 102.806C89.281 106.39 90.583 108.196 92.613 108.196ZM92.613 106.908C91.563 106.908 90.821 105.788 90.821 102.806C90.821 99.866 91.563 98.774 92.613 98.774C93.663 98.774 94.391 99.866 94.391 102.806C94.391 105.788 93.663 106.908 92.613 106.908Z" fill="#468459"/>
<path d="M126.7 100.68C126.7 104.166 129.514 106.98 133 106.98C136.486 106.98 139.3 104.166 139.3 100.68C139.3 97.194 136.486 94.38 133 94.38C129.514 94.38 126.7 97.194 126.7 100.68Z" fill="#468459"/>
<path d="M176.7 100.68C176.7 104.166 179.514 106.98 183 106.98C186.486 106.98 189.3 104.166 189.3 100.68C189.3 97.194 186.486 94.38 183 94.38C179.514 94.38 176.7 97.194 176.7 100.68Z" fill="#468459"/>
<path d="M229.54 101.394H236.456V100.218H229.54V101.394Z" fill="#468459"/>
<path d="M276.7 100.68C276.7 104.166 279.514 106.98 283 106.98C286.486 106.98 289.3 104.166 289.3 100.68C289.3 97.194 286.486 94.38 283 94.38C279.514 94.38 276.7 97.194 276.7 100.68Z" fill="#468459"/>
<path d="M326.7 100.68C326.7 104.166 329.514 106.98 333 106.98C336.486 106.98 339.3 104.166 339.3 100.68C339.3 97.194 336.486 94.38 333 94.38C329.514 94.38 326.7 97.194 326.7 100.68Z" fill="#468459"/>
<path d="M376.7 100.68C376.7 104.166 379.514 106.98 383 106.98C386.486 106.98 389.3 104.166 389.3 100.68C389.3 97.194 386.486 94.38 383 94.38C379.514 94.38 376.7 97.194 376.7 100.68Z" fill="#468459"/>
<path d="M434 94.912C432.272 94.912 430.544 95.584 429.296 96.72C427.776 98.112 426.976 99.904 426.976 101.92C426.976 105.792 430.128 108.944 434 108.944C437.872 108.944 441.008 105.808 441.008 101.92C441.008 100.176 440.368 98.512 439.2 97.232C437.84 95.728 436.016 94.912 434 94.912Z" fill="#468459"/>
</g>
<rect x="0.5" y="0.5" width="458" height="122" rx="5.5" stroke="#DDDDDD"/>
<defs>
<clipPath id="clip0_663309_1534">
<rect width="459" height="123" rx="6" fill="white"/>
</clipPath>
<clipPath id="clip1_663309_1534">
<path d="M1 1H109V121H1V1Z" fill="white"/>
</clipPath>
<clipPath id="clip2_663309_1534">
<path d="M109 1H159V121H109V1Z" fill="white"/>
</clipPath>
<clipPath id="clip3_663309_1534">
<path d="M159 1H209V121H159V1Z" fill="white"/>
</clipPath>
<clipPath id="clip4_663309_1534">
<path d="M209 1H259V121H209V1Z" fill="white"/>
</clipPath>
<clipPath id="clip5_663309_1534">
<path d="M259 1H309V121H259V1Z" fill="white"/>
</clipPath>
<clipPath id="clip6_663309_1534">
<path d="M309 1H359V121H309V1Z" fill="white"/>
</clipPath>
<clipPath id="clip7_663309_1534">
<path d="M359 1H409V121H359V1Z" fill="white"/>
</clipPath>
<clipPath id="clip8_663309_1534">
<rect width="50" height="120" fill="white" transform="translate(409 1)"/>
</clipPath>
</defs>
</svg>
