<svg width="259" height="462" viewBox="0 0 259 462" fill="none" xmlns="http://www.w3.org/2000/svg">
<g filter="url(#filter0_f_638733_5898)">
<path d="M214.729 118.387C219.609 130.996 227.66 147.066 223.736 156.349C219.813 165.632 203.744 168.101 188.865 175.581C173.945 183.214 160.292 195.814 147.939 195.065C135.654 194.431 124.784 180.51 114.762 167.77C104.786 155.107 95.7412 143.808 97.4308 132.659C99.1205 121.511 111.652 110.475 116.052 96.5963C120.271 83.289 116.234 67.0572 122.024 54.5319C127.316 43.049 141.465 36.8762 156.24 35.0645C170.984 33.3747 186.457 35.9591 194.938 45.4187C203.582 54.9372 205.291 71.4269 206.877 84.0606C208.501 96.8016 210.001 105.816 214.729 118.387Z" fill="#F0F5E1"/>
</g>
<g filter="url(#filter1_f_638733_5898)">
<path d="M131.245 406.313C135.035 392.402 133.032 377.511 136.656 363.623C138.584 356.227 141.945 349.278 144.201 341.972C149.716 324.192 138.796 308.682 119.826 310.381C102.952 311.897 89.4134 325.917 72.6337 327.123C65.119 327.668 57.4677 325.388 50.0425 327.735C35.318 332.397 44.1117 344.699 51.7062 351.926C59.0753 358.942 54.0908 368.181 45.9443 372.072C24.2699 382.417 36.1889 401.823 55.2633 404.494C68.3548 406.347 79.7348 411.74 89.5785 420.533C105.546 434.812 125.824 426.22 131.245 406.313Z" fill="#F0F5E1"/>
</g>
<path d="M108.432 85.236C108.768 85.236 109.225 85.3573 109.804 85.6C110.383 85.824 110.887 86.1133 111.316 86.468C111.764 86.804 111.988 87.1493 111.988 87.504C111.988 87.784 111.904 87.9707 111.736 88.064C111.568 88.1387 111.307 88.176 110.952 88.176C110.616 88.176 110.196 88.1387 109.692 88.064C108.796 87.9147 107.433 87.84 105.604 87.84C104.745 87.84 104.036 87.8493 103.476 87.868C103.401 90.6867 103.019 93.048 102.328 94.952C101.637 96.8373 100.685 98.3867 99.472 99.6C98.2587 100.813 96.728 101.868 94.88 102.764C94.6187 102.839 94.4787 102.876 94.46 102.876C94.3293 102.876 94.264 102.839 94.264 102.764C94.264 102.652 94.4227 102.493 94.74 102.288C96.8867 100.851 98.4453 98.984 99.416 96.688C100.405 94.3733 100.937 91.4707 101.012 87.98L99.668 88.064C98.6227 88.176 97.8293 88.2693 97.288 88.344C97.288 88.6053 97.3253 89.744 97.4 91.76L97.428 92.796C97.428 94.1773 97.064 94.868 96.336 94.868C96.168 94.868 95.972 94.7653 95.748 94.56C95.524 94.3547 95.328 94.0653 95.16 93.692C95.0107 93.3187 94.936 92.908 94.936 92.46L94.992 91.872C95.104 90.248 95.16 89.2213 95.16 88.792V88.708L92.864 89.156C92.192 89.3053 91.6693 89.408 91.296 89.464C90.7733 89.576 90.3907 89.632 90.148 89.632C89.7187 89.632 89.2893 89.52 88.86 89.296C88.3747 89.016 87.9267 88.5867 87.516 88.008C87.124 87.4107 86.928 86.972 86.928 86.692C86.928 86.58 86.984 86.524 87.096 86.524C87.1893 86.524 87.32 86.5707 87.488 86.664C87.656 86.7573 87.7867 86.832 87.88 86.888C88.16 87.056 88.552 87.2053 89.056 87.336C89.5787 87.448 90.148 87.504 90.764 87.504C91.4173 87.504 92.8733 87.3827 95.132 87.14C95.076 85.8707 95.0013 85.068 94.908 84.732C94.8333 84.3027 94.6653 83.9107 94.404 83.556C94.1613 83.2013 93.8253 82.9587 93.396 82.828C93.2467 82.7907 93.116 82.7533 93.004 82.716C92.892 82.66 92.836 82.5947 92.836 82.52C92.836 82.408 92.976 82.3147 93.256 82.24C93.5547 82.1467 93.8533 82.1 94.152 82.1C94.8987 82.1 95.664 82.2587 96.448 82.576C97.2507 82.8747 97.652 83.2293 97.652 83.64C97.652 83.752 97.596 83.9387 97.484 84.2C97.372 84.4987 97.3067 84.732 97.288 84.9V86.608V86.916L99.472 86.72L101.012 86.636C101.012 84.956 100.965 83.6307 100.872 82.66C100.779 81.8947 100.62 81.344 100.396 81.008C100.172 80.672 99.7147 80.364 99.024 80.084C98.8373 80.0093 98.744 79.9347 98.744 79.86C98.744 79.7667 98.8187 79.6827 98.968 79.608C99.3973 79.3467 99.8267 79.216 100.256 79.216C100.685 79.216 101.208 79.3187 101.824 79.524C102.44 79.7293 102.972 79.9907 103.42 80.308C103.868 80.6253 104.092 80.9427 104.092 81.26C104.092 81.4653 104.008 81.7173 103.84 82.016C103.653 82.352 103.541 82.6693 103.504 82.968C103.467 83.5653 103.448 84.1813 103.448 84.816L103.476 86.468L105.772 86.272C106.089 86.216 106.351 86.1413 106.556 86.048C106.78 85.9547 107.041 85.824 107.34 85.656C107.583 85.5067 107.779 85.404 107.928 85.348C108.077 85.2733 108.245 85.236 108.432 85.236ZM107.508 125.032C106.761 125.032 106.127 124.771 105.604 124.248C105.1 123.725 104.848 123.1 104.848 122.372C104.848 121.625 105.1 121 105.604 120.496C106.127 119.973 106.761 119.712 107.508 119.712C108.236 119.712 108.852 119.973 109.356 120.496C109.879 121.019 110.14 121.644 110.14 122.372C110.14 123.1 109.879 123.725 109.356 124.248C108.852 124.771 108.236 125.032 107.508 125.032ZM107.508 120.468C106.985 120.468 106.537 120.655 106.164 121.028C105.809 121.401 105.632 121.849 105.632 122.372C105.632 122.876 105.809 123.315 106.164 123.688C106.537 124.043 106.985 124.22 107.508 124.22C108.031 124.22 108.469 124.043 108.824 123.688C109.179 123.315 109.356 122.876 109.356 122.372C109.356 121.849 109.179 121.401 108.824 121.028C108.469 120.655 108.031 120.468 107.508 120.468ZM100.116 130.66C100.116 131.967 100.191 133.46 100.34 135.14C100.359 135.42 100.387 135.859 100.424 136.456C100.461 137.035 100.48 137.557 100.48 138.024C100.48 138.976 100.331 139.863 100.032 140.684C99.752 141.487 99.276 141.888 98.604 141.888C98.0627 141.888 97.7173 141.487 97.568 140.684C97.3813 139.863 97.0173 139.181 96.476 138.64C95.9533 138.08 95.4307 137.641 94.908 137.324C94.7773 137.231 94.712 137.156 94.712 137.1C94.712 137.044 94.7493 137.016 94.824 137.016L94.992 137.044C95.3467 137.156 95.7853 137.277 96.308 137.408C96.8493 137.539 97.2227 137.604 97.428 137.604C97.6893 137.604 97.848 137.529 97.904 137.38C97.9787 137.231 98.0347 136.979 98.072 136.624C98.072 136.213 98.0813 135.868 98.1 135.588L98.128 133.152C98.128 131.416 98.1093 130.1 98.072 129.204C95.9627 129.521 94.124 129.895 92.556 130.324C92.108 130.455 91.716 130.52 91.38 130.52C90.82 130.52 90.316 130.333 89.868 129.96C89.42 129.587 89.0933 129.092 88.888 128.476C88.832 128.383 88.7853 128.271 88.748 128.14C88.7293 127.991 88.72 127.869 88.72 127.776C88.72 127.459 88.776 127.3 88.888 127.3C88.9627 127.3 89.056 127.347 89.168 127.44C89.2987 127.533 89.3827 127.599 89.42 127.636C89.9613 128.047 90.7827 128.252 91.884 128.252C92.78 128.252 94.8333 128.112 98.044 127.832C97.9507 125.704 97.8107 124.379 97.624 123.856C97.456 123.352 97.0827 122.951 96.504 122.652C96.4667 122.633 96.3547 122.587 96.168 122.512C96 122.419 95.916 122.335 95.916 122.26C95.916 122.129 96.112 121.971 96.504 121.784C96.9147 121.597 97.2787 121.504 97.596 121.504C97.9507 121.504 98.3893 121.635 98.912 121.896C99.4347 122.157 99.8827 122.475 100.256 122.848C100.648 123.221 100.844 123.567 100.844 123.884C100.844 124.033 100.769 124.295 100.62 124.668L100.424 125.228C100.293 125.601 100.2 126.404 100.144 127.636C102.197 127.412 103.439 127.235 103.868 127.104C104.148 127.029 104.4 126.936 104.624 126.824C104.848 126.712 104.988 126.647 105.044 126.628C105.324 126.479 105.548 126.376 105.716 126.32C105.903 126.264 106.099 126.236 106.304 126.236C106.659 126.236 107.135 126.357 107.732 126.6C108.348 126.824 108.88 127.104 109.328 127.44C109.795 127.776 110.028 128.103 110.028 128.42C110.028 128.868 109.692 129.092 109.02 129.092L107.956 129.008C106.444 128.84 105.249 128.756 104.372 128.756C103.084 128.756 101.665 128.831 100.116 128.98V130.66ZM93.648 132.088C93.7227 132.088 93.76 132.163 93.76 132.312C93.76 132.424 93.7413 132.545 93.704 132.676C93.6853 132.807 93.6667 132.928 93.648 133.04C93.368 134.683 92.8827 136.017 92.192 137.044C91.5013 138.052 90.6987 138.556 89.784 138.556C89.2987 138.556 88.9067 138.416 88.608 138.136C88.3093 137.856 88.16 137.511 88.16 137.1C88.16 136.708 88.3187 136.344 88.636 136.008C88.9533 135.653 89.3547 135.373 89.84 135.168C90.456 134.925 91.0627 134.589 91.66 134.16C92.276 133.712 92.7987 133.217 93.228 132.676C93.284 132.583 93.3493 132.461 93.424 132.312C93.5173 132.163 93.592 132.088 93.648 132.088ZM104.288 132.228C106.043 132.583 107.555 133.189 108.824 134.048C110.093 134.907 110.728 135.924 110.728 137.1C110.728 137.567 110.597 137.94 110.336 138.22C110.075 138.481 109.785 138.612 109.468 138.612C109.076 138.612 108.768 138.481 108.544 138.22C108.32 137.94 108.04 137.492 107.704 136.876C107.368 136.185 107.051 135.635 106.752 135.224C105.912 134.141 105.025 133.32 104.092 132.76C103.905 132.648 103.756 132.555 103.644 132.48C103.551 132.405 103.504 132.331 103.504 132.256C103.504 132.181 103.569 132.144 103.7 132.144C103.831 132.144 104.027 132.172 104.288 132.228ZM99.36 183.252C98.9307 183.252 98.5947 183 98.352 182.496C98.128 181.992 98.016 181.413 98.016 180.76L98.072 179.304C98.0907 178.837 98.128 177.577 98.184 175.524C98.24 173.471 98.268 171.557 98.268 169.784C98.268 167.787 98.2493 166.359 98.212 165.5C98.1747 164.716 98.0813 164.137 97.932 163.764C97.7827 163.372 97.5027 163.064 97.092 162.84C96.98 162.784 96.868 162.737 96.756 162.7C96.6627 162.663 96.5787 162.625 96.504 162.588C96.4293 162.532 96.392 162.467 96.392 162.392C96.392 162.224 96.5693 162.047 96.924 161.86C97.2787 161.655 97.6427 161.552 98.016 161.552C98.8373 161.552 99.6027 161.757 100.312 162.168C101.021 162.56 101.376 163.045 101.376 163.624C101.376 163.792 101.339 164.007 101.264 164.268C101.208 164.529 101.171 164.707 101.152 164.8C100.984 165.304 100.853 165.836 100.76 166.396C100.629 167.012 100.564 168.179 100.564 169.896C100.564 171.371 100.601 173.564 100.676 176.476C100.732 178.212 100.76 179.612 100.76 180.676C100.76 181.367 100.639 181.973 100.396 182.496C100.172 183 99.8267 183.252 99.36 183.252ZM98.576 210.532C100.592 210.775 102.365 211.251 103.896 211.96C105.427 212.651 106.192 213.603 106.192 214.816C106.192 215.227 106.08 215.572 105.856 215.852C105.651 216.113 105.389 216.244 105.072 216.244C104.493 216.244 103.793 215.749 102.972 214.76C102.281 213.883 101.581 213.145 100.872 212.548C100.181 211.951 99.416 211.475 98.576 211.12V211.484C98.576 213.519 98.5853 215.04 98.604 216.048C98.6413 218.549 98.7067 220.192 98.8 220.976C98.968 222.059 99.052 222.749 99.052 223.048C99.052 223.459 98.9773 223.813 98.828 224.112C98.6787 224.411 98.492 224.635 98.268 224.784C98.044 224.952 97.848 225.036 97.68 225.036C97.3627 225.036 97.0547 224.793 96.756 224.308C96.476 223.841 96.2427 223.3 96.056 222.684C95.888 222.068 95.804 221.601 95.804 221.284C95.804 221.153 95.8413 220.752 95.916 220.08C96.028 219.109 96.1027 218.437 96.14 218.064C96.1773 217.504 96.2053 216.767 96.224 215.852C96.2613 214.919 96.2893 214.237 96.308 213.808L96.336 212.464C96.3547 211.885 96.364 211.045 96.364 209.944V207.704C96.364 206.155 96.3173 205.109 96.224 204.568C96.168 204.157 96.0373 203.84 95.832 203.616C95.6453 203.392 95.3747 203.168 95.02 202.944C94.964 202.925 94.88 202.888 94.768 202.832C94.6747 202.776 94.628 202.72 94.628 202.664C94.628 202.459 94.9267 202.281 95.524 202.132C96.14 201.964 96.6347 201.88 97.008 201.88C97.68 201.88 98.2773 202.141 98.8 202.664C99.0427 202.907 99.164 203.205 99.164 203.56C99.164 203.803 99.1173 204.083 99.024 204.4C98.8747 204.867 98.772 205.352 98.716 205.856C98.66 206.341 98.632 207.088 98.632 208.096L98.576 210.532ZM99.08 265.616C96.8213 265.616 95.1973 264.953 94.208 263.628C93.2373 262.284 92.752 260.287 92.752 257.636C92.752 255.825 92.8827 253.781 93.144 251.504C93.312 249.955 93.396 248.797 93.396 248.032C93.396 247.192 93.2653 246.483 93.004 245.904C92.7613 245.307 92.3973 244.868 91.912 244.588C91.8933 244.569 91.8373 244.532 91.744 244.476C91.6693 244.42 91.632 244.364 91.632 244.308C91.632 244.177 91.8093 244.075 92.164 244C92.5187 243.925 92.8547 243.888 93.172 243.888C94.3293 243.888 95.132 244.168 95.58 244.728C96.0467 245.269 96.28 246.053 96.28 247.08C96.28 247.565 96.2147 248.228 96.084 249.068C95.9533 249.908 95.804 250.776 95.636 251.672C95.188 253.912 94.964 255.863 94.964 257.524C94.964 258.943 95.1227 260.072 95.44 260.912C95.776 261.733 96.2987 262.331 97.008 262.704C97.7173 263.059 98.6787 263.236 99.892 263.236C102.561 263.236 105.604 261.789 109.02 258.896C109.3 258.691 109.477 258.588 109.552 258.588C109.608 258.588 109.636 258.616 109.636 258.672C109.636 258.765 109.524 258.961 109.3 259.26C106.033 263.497 102.627 265.616 99.08 265.616ZM101.264 301.492C102.664 301.959 103.821 302.537 104.736 303.228C105.651 303.919 106.108 304.675 106.108 305.496C106.108 305.869 106.015 306.159 105.828 306.364C105.641 306.569 105.427 306.672 105.184 306.672C104.96 306.672 104.717 306.588 104.456 306.42C104.195 306.271 103.905 306.047 103.588 305.748C102.561 304.815 101.787 304.143 101.264 303.732C101.021 304.721 100.48 305.505 99.64 306.084C98.8187 306.663 97.8107 306.952 96.616 306.952C95.4027 306.952 94.3387 306.681 93.424 306.14C92.528 305.617 92.08 304.861 92.08 303.872C92.08 303.219 92.304 302.649 92.752 302.164C93.2 301.66 93.7787 301.287 94.488 301.044C95.216 300.783 95.9533 300.652 96.7 300.652C97.4653 300.652 98.2587 300.745 99.08 300.932C99.0613 300.465 99.0333 300.017 98.996 299.588C98.9587 299.159 98.9307 298.767 98.912 298.412L98.828 297.068C98.0813 297.18 97.344 297.236 96.616 297.236C95.496 297.236 94.488 296.984 93.592 296.48C92.7147 295.976 92.0987 295.295 91.744 294.436C91.688 294.268 91.66 294.165 91.66 294.128C91.66 294.035 91.6973 293.988 91.772 293.988C91.828 293.988 91.8933 294.016 91.968 294.072C92.0427 294.128 92.0987 294.165 92.136 294.184C92.416 294.371 92.9387 294.595 93.704 294.856C94.4693 295.117 95.2627 295.248 96.084 295.248C96.9053 295.248 97.792 295.173 98.744 295.024V294.94C98.744 293.316 98.7907 291.944 98.884 290.824C98.1747 290.824 97.596 290.712 97.148 290.488C96.7373 290.283 96.3267 289.993 95.916 289.62C95.5053 289.247 95.1787 288.901 94.936 288.584C94.8987 288.528 94.8427 288.444 94.768 288.332C94.712 288.22 94.684 288.145 94.684 288.108C94.684 288.033 94.7213 287.996 94.796 287.996C94.852 287.996 95.0293 288.061 95.328 288.192C95.776 288.416 96.168 288.593 96.504 288.724C96.8587 288.836 97.232 288.892 97.624 288.892C97.96 288.892 98.4733 288.827 99.164 288.696C99.1827 288.547 99.22 288.285 99.276 287.912C99.332 287.539 99.36 287.212 99.36 286.932C99.36 286.297 99.22 285.672 98.94 285.056C98.772 284.701 98.5573 284.403 98.296 284.16C98.0533 283.917 97.932 283.74 97.932 283.628C97.932 283.497 98.016 283.404 98.184 283.348C98.3707 283.273 98.576 283.236 98.8 283.236C99.1547 283.236 99.556 283.32 100.004 283.488C100.452 283.656 100.835 283.908 101.152 284.244C101.488 284.58 101.656 284.981 101.656 285.448C101.656 285.672 101.6 285.943 101.488 286.26C101.376 286.559 101.301 286.745 101.264 286.82C101.021 287.399 100.863 287.847 100.788 288.164L100.76 288.304L102.16 287.912C102.459 287.837 102.673 287.8 102.804 287.8C103.084 287.8 103.308 287.875 103.476 288.024C103.644 288.155 103.728 288.351 103.728 288.612C103.728 288.873 103.625 289.135 103.42 289.396C103.215 289.657 102.953 289.863 102.636 290.012C102.057 290.292 101.32 290.516 100.424 290.684C100.349 291.337 100.312 292.056 100.312 292.84C100.293 293.045 100.284 293.363 100.284 293.792V294.716C101.161 294.492 101.833 294.212 102.3 293.876C102.561 293.708 102.692 293.512 102.692 293.288C102.692 293.139 102.645 292.989 102.552 292.84C102.459 292.691 102.337 292.532 102.188 292.364C102.039 292.177 101.917 292.019 101.824 291.888C101.768 291.813 101.712 291.739 101.656 291.664C101.6 291.571 101.572 291.505 101.572 291.468C101.572 291.412 101.6 291.384 101.656 291.384C101.731 291.384 101.899 291.487 102.16 291.692C102.739 292.14 103.373 292.392 104.064 292.448C104.288 292.467 104.521 292.476 104.764 292.476C105.1 292.513 105.361 292.635 105.548 292.84C105.679 292.971 105.744 293.195 105.744 293.512C105.744 293.904 105.632 294.287 105.408 294.66C105.203 295.015 104.867 295.304 104.4 295.528C103.299 296.032 101.955 296.443 100.368 296.76C100.443 297.395 100.545 298.048 100.676 298.72C100.825 299.373 100.919 299.803 100.956 300.008L101.264 301.492ZM95.944 305.216C96.8587 305.216 97.6053 304.973 98.184 304.488C98.7813 303.984 99.108 303.331 99.164 302.528C98.3053 302.173 97.4093 301.996 96.476 301.996C95.58 301.996 94.8053 302.155 94.152 302.472C93.5173 302.771 93.2 303.191 93.2 303.732C93.2 304.087 93.424 304.423 93.872 304.74C94.3387 305.057 95.0293 305.216 95.944 305.216ZM108.684 329.052C109.244 329.089 109.701 329.211 110.056 329.416C110.429 329.621 110.616 329.985 110.616 330.508C110.616 331.199 110.149 331.544 109.216 331.544C109.067 331.544 108.432 331.469 107.312 331.32C107.144 331.301 106.575 331.227 105.604 331.096C104.652 330.965 103.756 330.9 102.916 330.9C102.58 330.9 102.076 330.919 101.404 330.956C101.311 332.412 101.264 333.756 101.264 334.988C101.264 335.585 101.273 336.005 101.292 336.248C101.703 336.901 102.02 337.639 102.244 338.46C102.468 339.263 102.58 340.103 102.58 340.98C102.58 343.089 101.861 344.779 100.424 346.048C98.9867 347.317 97.3067 348.195 95.384 348.68C95.2533 348.717 95.16 348.736 95.104 348.736C95.048 348.736 95.0013 348.717 94.964 348.68C94.9453 348.661 94.936 348.633 94.936 348.596C94.936 348.484 95.02 348.381 95.188 348.288C96.3453 347.803 97.288 347.177 98.016 346.412C98.7627 345.628 99.304 344.835 99.64 344.032C99.976 343.229 100.153 342.492 100.172 341.82V341.624C100.041 341.867 99.78 342.1 99.388 342.324C99.0147 342.548 98.6693 342.66 98.352 342.66C97.4373 342.66 96.6347 341.951 95.944 340.532C95.72 340.065 95.5333 339.561 95.384 339.02C95.2533 338.46 95.188 337.937 95.188 337.452C95.188 336.519 95.468 335.716 96.028 335.044C96.6067 334.372 97.344 334.036 98.24 334.036C98.6507 334.036 99.0427 334.139 99.416 334.344C99.528 333.336 99.5933 332.3 99.612 331.236C98.0067 331.572 96.084 332.244 93.844 333.252C93.0413 333.681 92.3133 333.896 91.66 333.896C91.156 333.896 90.6427 333.747 90.12 333.448C89.7093 333.205 89.2333 332.785 88.692 332.188C88.1693 331.591 87.908 331.189 87.908 330.984C87.908 330.891 87.9733 330.844 88.104 330.844C88.1973 330.844 88.3373 330.872 88.524 330.928C88.7293 330.965 88.8973 331.003 89.028 331.04C89.7747 331.189 90.4373 331.264 91.016 331.264C91.744 331.264 92.3973 331.189 92.976 331.04C94.88 330.648 97.092 330.256 99.612 329.864C99.5747 328.744 99.5187 327.913 99.444 327.372C99.388 326.868 99.2573 326.42 99.052 326.028C98.8467 325.636 98.604 325.356 98.324 325.188C98.2307 325.132 98.1 325.057 97.932 324.964C97.7827 324.871 97.708 324.787 97.708 324.712C97.708 324.581 97.848 324.46 98.128 324.348C98.408 324.236 98.6693 324.18 98.912 324.18C99.2853 324.18 99.6867 324.255 100.116 324.404C101.367 324.796 101.992 325.431 101.992 326.308C101.992 326.439 101.936 326.709 101.824 327.12C102.869 327.643 103.709 328.035 104.344 328.296C104.979 328.557 105.66 328.725 106.388 328.8C106.948 328.931 107.508 328.996 108.068 328.996L108.684 329.052ZM102.944 329.416C103.037 329.416 103.168 329.416 103.336 329.416C103.523 329.397 103.653 329.379 103.728 329.36C103.821 329.341 103.868 329.304 103.868 329.248C103.868 329.173 103.803 329.099 103.672 329.024C103.541 328.931 103.457 328.875 103.42 328.856L101.656 327.736V327.792L101.488 329.584C102.048 329.509 102.533 329.453 102.944 329.416ZM98.1 340.196C98.548 340.196 98.8933 339.991 99.136 339.58C99.3787 339.169 99.5 338.647 99.5 338.012C99.5 337.321 99.3227 336.649 98.968 335.996C98.632 335.324 98.1933 334.988 97.652 334.988C97.1667 334.988 96.7747 335.24 96.476 335.744C96.1773 336.229 96.028 336.771 96.028 337.368C96.028 337.76 96.1213 338.18 96.308 338.628C96.5133 339.076 96.7747 339.449 97.092 339.748C97.4093 340.047 97.7453 340.196 98.1 340.196Z" fill="#468459"/>
<path d="M141.796 83.164C141.852 83.0707 141.936 82.9307 142.048 82.744C142.179 82.5573 142.281 82.4173 142.356 82.324C142.431 82.2307 142.505 82.184 142.58 82.184C142.692 82.184 142.916 82.352 143.252 82.688C143.607 83.0053 143.933 83.3507 144.232 83.724C144.549 84.0973 144.708 84.3493 144.708 84.48C144.652 84.7787 144.419 84.928 144.008 84.928H140.592V88.176C141.861 88.6987 142.795 89.296 143.392 89.968C143.989 90.64 144.288 91.284 144.288 91.9C144.288 92.292 144.185 92.6093 143.98 92.852C143.775 93.0947 143.513 93.216 143.196 93.216C142.897 93.216 142.58 93.076 142.244 92.796C142.113 91.7507 141.563 90.416 140.592 88.792V95.82C140.629 98.1347 140.704 100.328 140.816 102.4C140.704 102.624 140.415 102.839 139.948 103.044C139.5 103.249 139.061 103.352 138.632 103.352C138.371 103.352 138.165 103.296 138.016 103.184C137.867 103.072 137.792 102.941 137.792 102.792C137.867 101.691 137.932 100.627 137.988 99.6C138.044 98.5547 138.081 97.192 138.1 95.512V91.2C137.055 93.328 135.711 95.2227 134.068 96.884L133.732 96.548C134.703 95.0173 135.524 93.2533 136.196 91.256C136.868 89.24 137.391 87.1307 137.764 84.928H136.644C136.028 84.9467 135.393 85.0773 134.74 85.32L134.012 83.892C134.777 84.004 135.711 84.0787 136.812 84.116H138.1V83.024C138.1 80.672 137.979 78.7587 137.736 77.284C139.08 77.62 140.004 77.8907 140.508 78.096C141.031 78.2827 141.292 78.4413 141.292 78.572C141.292 78.6653 141.217 78.7587 141.068 78.852L140.592 79.16V84.116H141.236L141.796 83.164ZM154.732 78.46C154.807 78.3667 154.881 78.2547 154.956 78.124C155.049 77.9933 155.143 77.8813 155.236 77.788C155.329 77.6947 155.413 77.648 155.488 77.648C155.6 77.648 155.861 77.816 156.272 78.152C156.683 78.4693 157.065 78.8147 157.42 79.188C157.793 79.5427 157.98 79.7853 157.98 79.916C157.812 80.1773 157.457 80.364 156.916 80.476V83.752C156.953 85.992 157.028 88.1107 157.14 90.108C157.028 90.3133 156.72 90.5373 156.216 90.78C155.712 91.004 155.255 91.116 154.844 91.116H154.424V89.94H150.476C151.017 91.844 151.783 93.5053 152.772 94.924C153.407 94.3267 154.069 93.6173 154.76 92.796C155.469 91.9747 156.039 91.2747 156.468 90.696C158.073 91.984 158.876 92.7493 158.876 92.992C158.876 93.048 158.801 93.076 158.652 93.076L158.204 93.048C157.625 93.4027 156.86 93.8133 155.908 94.28C154.975 94.7467 154.051 95.148 153.136 95.484C153.957 96.6227 154.9 97.6027 155.964 98.424C157.028 99.2453 158.185 99.8707 159.436 100.3L159.408 100.608C158.904 100.739 158.465 101.009 158.092 101.42C157.737 101.849 157.485 102.4 157.336 103.072C155.283 101.859 153.677 100.188 152.52 98.06C151.363 95.932 150.513 93.2253 149.972 89.94H147.676V99.264L152.436 98.2L152.52 98.592C149.589 100.179 146.845 101.579 144.288 102.792C144.139 103.147 143.915 103.361 143.616 103.436L142.188 100.356C143.177 100.188 144.195 99.992 145.24 99.768V83.64C145.24 81.288 145.119 79.3747 144.876 77.9L147.816 79.244H154.172L154.732 78.46ZM154.424 84.088V80.056H147.676V84.088H154.424ZM154.424 84.9H147.676V89.128H154.424V84.9ZM155.012 123.912C155.124 123.763 155.245 123.585 155.376 123.38C155.525 123.175 155.647 123.025 155.74 122.932C155.833 122.82 155.917 122.764 155.992 122.764C156.104 122.764 156.403 122.96 156.888 123.352C157.373 123.725 157.831 124.127 158.26 124.556C158.689 124.985 158.904 125.265 158.904 125.396C158.829 125.695 158.577 125.844 158.148 125.844H148.264C149.44 128.196 151.027 130.333 153.024 132.256C155.04 134.16 157.131 135.588 159.296 136.54L159.212 136.848C158.671 136.941 158.195 137.193 157.784 137.604C157.373 138.015 157.065 138.556 156.86 139.228C154.807 137.847 152.996 136.027 151.428 133.768C149.879 131.491 148.637 128.849 147.704 125.844V137.604H149.216L149.888 136.54C149.963 136.428 150.065 136.269 150.196 136.064C150.345 135.859 150.457 135.709 150.532 135.616C150.625 135.504 150.709 135.448 150.784 135.448C150.896 135.448 151.167 135.635 151.596 136.008C152.025 136.363 152.427 136.745 152.8 137.156C153.173 137.567 153.36 137.837 153.36 137.968C153.285 138.267 153.043 138.416 152.632 138.416H147.704V140.124L147.732 141.188C147.751 141.953 147.788 142.691 147.844 143.4C147.769 143.643 147.499 143.867 147.032 144.072C146.584 144.277 146.108 144.38 145.604 144.38C145.361 144.38 145.184 144.324 145.072 144.212C144.96 144.1 144.904 143.969 144.904 143.82C144.979 142.98 145.044 141.841 145.1 140.404V138.416H143.336C142.291 138.435 141.208 138.565 140.088 138.808L139.36 137.38C140.387 137.492 141.628 137.567 143.084 137.604H145.1V129.036C143.887 131.201 142.347 133.171 140.48 134.944C138.632 136.717 136.504 138.239 134.096 139.508L133.844 139.144C135.953 137.557 137.839 135.588 139.5 133.236C141.161 130.865 142.459 128.401 143.392 125.844H138.8C137.475 125.863 136.075 125.993 134.6 126.236L133.872 124.808C134.899 124.92 136.14 124.995 137.596 125.032H145.1V123.968C145.1 121.616 144.979 119.703 144.736 118.228C146.173 118.583 147.163 118.863 147.704 119.068C148.245 119.255 148.516 119.423 148.516 119.572C148.516 119.628 148.432 119.721 148.264 119.852L147.704 120.216V125.032H154.228L155.012 123.912ZM155.908 163.792C156.001 163.699 156.141 163.54 156.328 163.316C156.515 163.092 156.664 162.98 156.776 162.98C156.888 162.98 157.149 163.148 157.56 163.484C157.971 163.82 158.353 164.175 158.708 164.548C159.063 164.921 159.24 165.173 159.24 165.304C159.016 165.565 158.615 165.733 158.036 165.808C157.849 171.147 157.532 175.272 157.084 178.184C156.655 181.096 156.039 182.972 155.236 183.812C154.769 184.316 154.237 184.671 153.64 184.876C153.043 185.081 152.324 185.184 151.484 185.184C151.484 184.755 151.437 184.391 151.344 184.092C151.269 183.812 151.129 183.579 150.924 183.392C150.457 182.944 149.533 182.58 148.152 182.3L148.18 181.88C150.065 182.085 151.372 182.188 152.1 182.188C152.361 182.188 152.567 182.16 152.716 182.104C152.884 182.048 153.061 181.936 153.248 181.768C154.368 180.741 155.133 175.281 155.544 165.388H148.684C147.508 167.591 146.099 169.392 144.456 170.792L144.12 170.568C144.96 169.187 145.763 167.404 146.528 165.22C146.827 164.305 147.097 163.26 147.34 162.084C147.583 160.908 147.713 159.947 147.732 159.2C149.076 159.611 150.009 159.928 150.532 160.152C151.073 160.376 151.344 160.544 151.344 160.656C151.344 160.731 151.26 160.805 151.092 160.88L150.588 161.104C150.252 162.112 149.757 163.279 149.104 164.604H155.236L155.908 163.792ZM141.852 163.96C141.927 163.885 142.011 163.783 142.104 163.652C142.216 163.503 142.309 163.4 142.384 163.344C142.459 163.269 142.533 163.232 142.608 163.232C142.72 163.232 142.981 163.381 143.392 163.68C143.821 163.979 144.213 164.296 144.568 164.632C144.923 164.968 145.1 165.201 145.1 165.332C144.876 165.593 144.503 165.789 143.98 165.92V175.44C144.017 177.755 144.092 179.948 144.204 182.02C144.073 182.207 143.756 182.412 143.252 182.636C142.767 182.841 142.328 182.944 141.936 182.944C141.6 182.944 141.432 182.757 141.432 182.384C141.432 182.384 141.469 182.104 141.544 181.544V180.844H137.596V181.516C137.652 182.244 137.689 182.645 137.708 182.72C137.652 182.963 137.419 183.196 137.008 183.42C136.597 183.663 136.14 183.784 135.636 183.784C135.449 183.784 135.281 183.728 135.132 183.616C135.001 183.504 134.936 183.373 134.936 183.224C135.011 182.123 135.076 181.059 135.132 180.032C135.188 178.987 135.225 177.624 135.244 175.944V169.14C135.244 166.788 135.123 164.875 134.88 163.4L137.736 164.688H138.156C138.324 163.773 138.445 162.821 138.52 161.832C138.613 160.843 138.651 159.993 138.632 159.284C140.032 159.601 141.003 159.863 141.544 160.068C142.104 160.255 142.384 160.413 142.384 160.544C142.384 160.6 142.3 160.675 142.132 160.768L141.6 161.02C140.779 162.289 139.929 163.512 139.052 164.688H141.292L141.852 163.96ZM141.544 172.136V165.472H137.596V172.136H141.544ZM147.312 169.476C149.011 170.111 150.252 170.876 151.036 171.772C151.839 172.668 152.24 173.527 152.24 174.348C152.24 174.815 152.119 175.207 151.876 175.524C151.633 175.823 151.325 175.972 150.952 175.972C150.597 175.972 150.224 175.804 149.832 175.468C149.72 174.553 149.393 173.573 148.852 172.528C148.329 171.464 147.723 170.512 147.032 169.672L147.312 169.476ZM137.596 172.948V180.032H141.544V172.948H137.596ZM146.724 205.772C146.276 206.071 145.735 206.379 145.1 206.696C144.484 206.995 143.868 207.247 143.252 207.452C142.748 208.833 141.992 210.84 140.984 213.472C139.995 216.104 139.369 217.737 139.108 218.372C138.94 218.745 138.707 219.035 138.408 219.24C138.109 219.427 137.811 219.52 137.512 219.52C137.139 219.52 136.877 219.333 136.728 218.96C136.597 218.587 136.532 218.073 136.532 217.42C136.532 217.159 136.56 216.963 136.616 216.832C136.672 216.683 136.803 216.468 137.008 216.188C137.064 216.095 137.139 215.983 137.232 215.852C137.344 215.703 137.475 215.507 137.624 215.264C138.389 214.032 139.071 212.837 139.668 211.68C140.265 210.523 140.788 209.3 141.236 208.012C141.124 208.031 140.975 208.04 140.788 208.04C139.836 208.04 139.089 207.788 138.548 207.284C138.007 206.761 137.605 206.22 137.344 205.66C137.232 205.455 137.176 205.287 137.176 205.156C137.176 205.063 137.213 205.016 137.288 205.016C137.363 205.016 137.493 205.109 137.68 205.296C137.941 205.52 138.287 205.707 138.716 205.856C139.164 205.987 139.621 206.052 140.088 206.052C140.405 206.052 140.984 205.968 141.824 205.8C141.899 205.277 141.936 204.895 141.936 204.652C141.936 203.887 141.74 203.317 141.348 202.944C141.18 202.795 140.975 202.655 140.732 202.524C140.489 202.393 140.368 202.291 140.368 202.216C140.368 202.123 140.452 202.048 140.62 201.992C140.788 201.917 141.012 201.88 141.292 201.88C141.665 201.88 142.048 201.945 142.44 202.076C143.336 202.375 143.868 202.841 144.036 203.476C144.111 203.457 144.185 203.457 144.26 203.476C144.353 203.476 144.456 203.467 144.568 203.448C144.867 203.448 145.156 203.439 145.436 203.42C145.716 203.383 145.921 203.364 146.052 203.364H146.444C146.668 203.364 146.855 203.401 147.004 203.476C147.191 203.551 147.331 203.663 147.424 203.812C147.536 203.961 147.592 204.129 147.592 204.316C147.592 204.577 147.499 204.839 147.312 205.1C147.144 205.361 146.948 205.585 146.724 205.772ZM144.092 204.064C144.092 204.344 144.045 204.699 143.952 205.128C144.008 205.109 144.148 205.044 144.372 204.932C144.727 204.727 144.904 204.549 144.904 204.4C144.904 204.288 144.792 204.176 144.568 204.064L144.092 203.84V204.064ZM151.736 209.524C151.045 209.524 150.495 209.813 150.084 210.392C149.692 210.952 149.496 211.745 149.496 212.772C149.496 213.78 149.664 215.273 150 217.252C150.112 217.924 150.187 218.419 150.224 218.736C152.016 219.184 153.323 219.725 154.144 220.36C154.48 220.584 154.732 220.845 154.9 221.144C155.068 221.424 155.152 221.695 155.152 221.956C155.152 222.255 155.049 222.516 154.844 222.74C154.657 222.964 154.424 223.076 154.144 223.076C153.883 223.076 153.584 222.992 153.248 222.824C152.912 222.656 152.511 222.413 152.044 222.096C151.615 221.816 151.092 221.527 150.476 221.228V221.452C150.476 222.553 150.047 223.431 149.188 224.084C148.348 224.737 147.331 225.064 146.136 225.064C145.445 225.064 144.773 224.933 144.12 224.672C143.485 224.429 142.963 224.065 142.552 223.58C142.141 223.095 141.936 222.516 141.936 221.844C141.936 220.724 142.468 219.865 143.532 219.268C144.596 218.652 145.865 218.344 147.34 218.344C147.62 218.344 147.844 218.353 148.012 218.372C147.993 217.849 147.984 217.047 147.984 215.964C147.984 215.217 147.993 214.667 148.012 214.312C148.068 213.173 148.227 212.249 148.488 211.54C148.749 210.831 149.188 210.243 149.804 209.776C150.42 209.291 151.307 208.861 152.464 208.488C152.763 208.395 152.912 208.236 152.912 208.012C152.912 207.769 152.791 207.517 152.548 207.256C152.324 206.995 151.988 206.659 151.54 206.248C151.353 206.155 151.26 206.071 151.26 205.996C151.26 205.921 151.363 205.884 151.568 205.884C151.811 205.884 152.137 205.94 152.548 206.052C153.463 206.276 154.303 206.705 155.068 207.34C155.852 207.956 156.244 208.619 156.244 209.328C156.244 209.776 156.104 210.14 155.824 210.42C155.544 210.7 155.208 210.84 154.816 210.84C154.536 210.84 154.293 210.793 154.088 210.7C153.901 210.588 153.631 210.401 153.276 210.14C152.959 209.935 152.679 209.785 152.436 209.692C152.212 209.58 151.979 209.524 151.736 209.524ZM145.576 223.244C146.547 223.244 147.191 223.001 147.508 222.516C147.825 222.031 147.993 221.331 148.012 220.416C147.209 220.267 146.519 220.192 145.94 220.192C145.137 220.192 144.456 220.304 143.896 220.528C143.355 220.752 143.084 221.125 143.084 221.648C143.084 222.152 143.327 222.544 143.812 222.824C144.316 223.104 144.904 223.244 145.576 223.244ZM155.6 244.476C155.656 244.383 155.749 244.243 155.88 244.056C156.029 243.851 156.151 243.701 156.244 243.608C156.337 243.515 156.421 243.468 156.496 243.468C156.608 243.468 156.879 243.645 157.308 244C157.737 244.336 158.139 244.7 158.512 245.092C158.904 245.465 159.1 245.717 159.1 245.848C159.044 246.147 158.801 246.296 158.372 246.296H141.04V252.596C141.04 254.631 140.891 256.497 140.592 258.196C140.312 259.876 139.696 261.528 138.744 263.152C137.811 264.776 136.429 266.176 134.6 267.352L134.292 267.072C135.748 265.504 136.784 263.74 137.4 261.78C138.035 259.82 138.417 257.627 138.548 255.2C137.372 256.768 136.373 258.037 135.552 259.008C135.552 259.195 135.505 259.372 135.412 259.54C135.337 259.708 135.225 259.829 135.076 259.904L133.62 256.852C134.385 256.497 136.037 255.639 138.576 254.276C138.595 253.903 138.604 253.343 138.604 252.596V248.368C138.604 246.576 138.511 245.12 138.324 244L141.46 245.484H146.64C146.64 243.785 146.556 242.367 146.388 241.228C147.788 241.545 148.749 241.797 149.272 241.984C149.795 242.152 150.056 242.311 150.056 242.46C150.056 242.516 149.981 242.6 149.832 242.712L149.356 243.048V245.484H154.9L155.6 244.476ZM134.712 246.464C135.888 247.117 136.747 247.836 137.288 248.62C137.848 249.404 138.128 250.141 138.128 250.832C138.128 251.299 138.007 251.691 137.764 252.008C137.54 252.307 137.26 252.456 136.924 252.456C136.588 252.456 136.252 252.288 135.916 251.952C135.935 251.131 135.785 250.235 135.468 249.264C135.169 248.275 134.805 247.397 134.376 246.632L134.712 246.464ZM154.9 255.816C154.975 255.723 155.068 255.583 155.18 255.396C155.311 255.209 155.413 255.069 155.488 254.976C155.581 254.883 155.665 254.836 155.74 254.836C155.852 254.836 156.113 255.004 156.524 255.34C156.935 255.657 157.317 256.003 157.672 256.376C158.027 256.749 158.204 257.001 158.204 257.132C158.129 257.431 157.896 257.58 157.504 257.58H151.316V265.224H155.012L155.684 264.216C155.74 264.123 155.833 263.983 155.964 263.796C156.113 263.591 156.235 263.441 156.328 263.348C156.421 263.255 156.505 263.208 156.58 263.208C156.692 263.208 156.963 263.385 157.392 263.74C157.821 264.076 158.223 264.44 158.596 264.832C158.969 265.205 159.156 265.457 159.156 265.588C159.081 265.887 158.839 266.036 158.428 266.036H144.064C142.739 266.055 141.339 266.185 139.864 266.428L139.164 265C139.911 265.112 140.807 265.187 141.852 265.224H143.14V260.24C143.14 257.888 143.019 255.975 142.776 254.5C144.045 254.817 144.923 255.069 145.408 255.256C145.912 255.424 146.164 255.573 146.164 255.704C146.164 255.779 146.089 255.863 145.94 255.956L145.492 256.264V265.224H148.824V250.496H146.668C145.399 250.515 144.055 250.645 142.636 250.888L141.908 249.46C142.935 249.572 144.176 249.647 145.632 249.684H154.48L155.124 248.704C155.217 248.573 155.32 248.424 155.432 248.256C155.563 248.069 155.665 247.939 155.74 247.864C155.833 247.771 155.917 247.724 155.992 247.724C156.104 247.724 156.365 247.892 156.776 248.228C157.187 248.564 157.569 248.919 157.924 249.292C158.279 249.665 158.456 249.917 158.456 250.048C158.381 250.347 158.148 250.496 157.756 250.496H151.316V256.768H154.284L154.9 255.816ZM139.052 297.768C137.969 299.429 136.98 300.82 136.084 301.94C136.084 302.127 136.047 302.313 135.972 302.5C135.897 302.668 135.785 302.789 135.636 302.864L133.872 299.756C134.824 299.252 136.551 298.197 139.052 296.592V288.052C139.052 285.7 138.931 283.787 138.688 282.312C140.051 282.648 140.993 282.919 141.516 283.124C142.039 283.311 142.3 283.469 142.3 283.6C142.3 283.693 142.225 283.787 142.076 283.88L141.6 284.188V300.652C141.637 302.967 141.712 305.16 141.824 307.232C141.712 307.493 141.413 307.745 140.928 307.988C140.461 308.231 140.004 308.352 139.556 308.352C139.313 308.352 139.117 308.296 138.968 308.184C138.837 308.072 138.772 307.941 138.772 307.792C138.847 306.821 138.903 305.86 138.94 304.908C138.996 303.956 139.033 302.752 139.052 301.296V297.768ZM155.572 290.292C155.628 290.199 155.721 290.059 155.852 289.872C156.001 289.667 156.123 289.517 156.216 289.424C156.309 289.331 156.393 289.284 156.468 289.284C156.58 289.284 156.851 289.452 157.28 289.788C157.709 290.124 158.111 290.488 158.484 290.88C158.876 291.253 159.072 291.505 159.072 291.636C158.997 291.916 158.755 292.056 158.344 292.056H151.176C151.531 294.781 152.343 297.292 153.612 299.588C154.9 301.865 156.785 303.751 159.268 305.244L159.24 305.58C158.587 305.711 158.073 305.981 157.7 306.392C157.327 306.803 157.075 307.391 156.944 308.156C153.565 305.319 151.521 300.232 150.812 292.896C150.607 295.36 150.233 297.516 149.692 299.364C149.151 301.193 148.311 302.864 147.172 304.376C146.033 305.869 144.484 307.204 142.524 308.38L142.132 307.988C143.607 306.663 144.773 305.216 145.632 303.648C146.509 302.061 147.144 300.344 147.536 298.496C147.947 296.629 148.227 294.483 148.376 292.056H146.444C145.287 292.075 144.092 292.205 142.86 292.448L142.132 291.048C143.159 291.16 144.4 291.235 145.856 291.272H148.404C148.479 289.816 148.516 288.677 148.516 287.856C148.516 285.635 148.404 283.843 148.18 282.48C149.561 282.611 150.504 282.732 151.008 282.844C151.531 282.956 151.792 283.077 151.792 283.208C151.792 283.283 151.717 283.367 151.568 283.46L151.064 283.796C151.027 287.231 150.961 289.723 150.868 291.272H154.9L155.572 290.292ZM152.968 283.908C154.443 284.076 155.525 284.449 156.216 285.028C156.925 285.588 157.28 286.195 157.28 286.848C157.28 287.259 157.149 287.604 156.888 287.884C156.645 288.164 156.347 288.304 155.992 288.304C155.656 288.304 155.339 288.192 155.04 287.968C154.965 287.277 154.704 286.568 154.256 285.84C153.827 285.112 153.332 284.533 152.772 284.104L152.968 283.908ZM134.824 286.792C136.224 287.408 137.241 288.127 137.876 288.948C138.529 289.751 138.856 290.525 138.856 291.272C138.856 291.776 138.725 292.187 138.464 292.504C138.221 292.821 137.913 292.98 137.54 292.98C137.148 292.98 136.765 292.793 136.392 292.42C136.392 291.561 136.205 290.637 135.832 289.648C135.477 288.659 135.048 287.763 134.544 286.96L134.824 286.792ZM155.656 328.772C155.712 328.679 155.805 328.539 155.936 328.352C156.085 328.147 156.207 327.997 156.3 327.904C156.393 327.811 156.477 327.764 156.552 327.764C156.664 327.764 156.935 327.932 157.364 328.268C157.812 328.604 158.223 328.968 158.596 329.36C158.988 329.733 159.184 329.985 159.184 330.116C159.109 330.415 158.857 330.564 158.428 330.564H156.552C156.235 332.935 155.74 335.063 155.068 336.948C154.415 338.833 153.519 340.541 152.38 342.072C154.228 344.181 156.599 345.759 159.492 346.804L159.408 347.084C158.232 347.364 157.476 348.129 157.14 349.38C154.527 348.017 152.492 346.123 151.036 343.696C148.665 346.179 145.38 348.073 141.18 349.38L140.984 349.016C144.96 347.187 147.975 344.769 150.028 341.764C149.02 339.599 148.217 336.705 147.62 333.084C146.519 334.857 145.324 336.304 144.036 337.424L143.672 337.172C144.979 335.044 146.089 332.459 147.004 329.416C147.284 328.501 147.527 327.437 147.732 326.224C147.937 324.992 148.031 324.003 148.012 323.256C150.569 323.872 151.848 324.311 151.848 324.572C151.848 324.647 151.764 324.721 151.596 324.796L151.092 325.048C150.625 326.728 150.065 328.296 149.412 329.752H154.956L155.656 328.772ZM141.936 325.496C142.011 325.403 142.095 325.291 142.188 325.16C142.3 325.011 142.393 324.899 142.468 324.824C142.543 324.749 142.617 324.712 142.692 324.712C142.804 324.712 143.065 324.871 143.476 325.188C143.887 325.505 144.269 325.851 144.624 326.224C144.997 326.579 145.184 326.821 145.184 326.952C144.979 327.195 144.633 327.372 144.148 327.484V329.976C144.185 332.011 144.241 333.607 144.316 334.764C144.223 334.951 143.915 335.156 143.392 335.38C142.888 335.604 142.449 335.716 142.076 335.716C141.721 335.716 141.544 335.529 141.544 335.156C141.563 335.1 141.572 335.044 141.572 334.988C141.591 334.913 141.609 334.839 141.628 334.764V334.288H137.316V342.66C137.316 342.884 137.372 343.033 137.484 343.108C137.596 343.183 137.857 343.22 138.268 343.22H140.508C141.628 343.22 142.3 343.211 142.524 343.192C142.673 343.173 142.785 343.145 142.86 343.108C142.935 343.052 143.009 342.959 143.084 342.828C143.215 342.623 143.373 342.165 143.56 341.456C143.747 340.747 143.943 339.991 144.148 339.188H144.456L144.54 342.968C144.895 343.117 145.128 343.276 145.24 343.444C145.371 343.612 145.436 343.827 145.436 344.088C145.436 344.667 145.063 345.105 144.316 345.404C143.569 345.684 142.235 345.824 140.312 345.824H137.708C136.887 345.824 136.271 345.759 135.86 345.628C135.468 345.479 135.197 345.236 135.048 344.9C134.899 344.564 134.824 344.06 134.824 343.388V337.844C134.824 335.511 134.703 333.616 134.46 332.16L137.652 333.476H141.628V327.092H139.192C137.867 327.111 136.467 327.241 134.992 327.484L134.236 326.056C135.263 326.168 136.504 326.243 137.96 326.28H141.376L141.936 325.496ZM149.02 330.564C148.815 330.993 148.488 331.619 148.04 332.44C148.675 335.52 149.655 338.096 150.98 340.168C152.417 337.48 153.323 334.279 153.696 330.564H149.02ZM154.872 374.28C154.965 374.168 155.059 374.047 155.152 373.916C155.264 373.767 155.367 373.636 155.46 373.524C155.572 373.412 155.665 373.356 155.74 373.356C155.852 373.356 156.113 373.515 156.524 373.832C156.953 374.131 157.345 374.457 157.7 374.812C158.073 375.167 158.26 375.409 158.26 375.54C158.185 375.839 157.952 375.988 157.56 375.988H151.624C153.341 376.399 154.2 376.716 154.2 376.94C154.2 377.015 154.116 377.089 153.948 377.164L153.472 377.36C152.651 378.144 151.773 378.891 150.84 379.6H154.9L155.544 378.676C155.6 378.601 155.693 378.471 155.824 378.284C155.955 378.097 156.057 377.957 156.132 377.864C156.225 377.771 156.309 377.724 156.384 377.724C156.496 377.724 156.757 377.883 157.168 378.2C157.597 378.517 157.999 378.863 158.372 379.236C158.745 379.591 158.932 379.833 158.932 379.964C158.876 380.263 158.643 380.412 158.232 380.412H138.744C137.419 380.431 136.019 380.561 134.544 380.804L133.844 379.376C134.871 379.488 136.112 379.563 137.568 379.6H140.788C140.564 379.507 140.359 379.376 140.172 379.208C140.191 378.667 140.088 378.097 139.864 377.5C139.64 376.903 139.36 376.408 139.024 376.016L139.08 375.988H137.764C137.036 376.007 136.289 376.137 135.524 376.38L134.796 374.98C135.823 375.092 137.064 375.167 138.52 375.204H145.212V372.516H142.048C140.723 372.535 139.323 372.665 137.848 372.908L137.148 371.48C138.175 371.592 139.416 371.667 140.872 371.704H145.212V369.044H140.732C139.407 369.063 138.007 369.193 136.532 369.436L135.804 368.008C136.831 368.12 138.072 368.195 139.528 368.232H142.02L141.656 368.008C141.6 367.429 141.423 366.841 141.124 366.244C140.825 365.628 140.489 365.077 140.116 364.592L140.34 364.424C141.609 364.611 142.543 364.947 143.14 365.432C143.737 365.917 144.036 366.44 144.036 367C144.036 367.261 143.971 367.504 143.84 367.728C143.709 367.952 143.541 368.12 143.336 368.232H148.46C148.74 367.653 148.983 366.981 149.188 366.216C149.412 365.451 149.571 364.751 149.664 364.116C151.923 364.732 153.052 365.161 153.052 365.404C153.052 365.479 152.968 365.553 152.8 365.628L152.296 365.824C151.456 366.627 150.439 367.429 149.244 368.232H153.276L153.892 367.336C153.948 367.261 154.041 367.14 154.172 366.972C154.303 366.785 154.405 366.655 154.48 366.58C154.573 366.487 154.657 366.44 154.732 366.44C154.844 366.44 155.105 366.599 155.516 366.916C155.927 367.215 156.309 367.541 156.664 367.896C157.037 368.232 157.224 368.465 157.224 368.596C157.149 368.895 156.907 369.044 156.496 369.044H147.704V371.704H152.212L152.828 370.836C152.884 370.761 152.977 370.64 153.108 370.472C153.239 370.285 153.341 370.155 153.416 370.08C153.509 369.987 153.593 369.94 153.668 369.94C153.78 369.94 154.041 370.089 154.452 370.388C154.863 370.687 155.245 371.013 155.6 371.368C155.955 371.704 156.132 371.937 156.132 372.068C156.057 372.367 155.815 372.516 155.404 372.516H147.704V375.204H154.228L154.872 374.28ZM145.212 379.6V375.988H139.92C140.872 376.231 141.563 376.567 141.992 376.996C142.44 377.407 142.664 377.845 142.664 378.312C142.664 378.611 142.589 378.881 142.44 379.124C142.291 379.348 142.085 379.507 141.824 379.6H145.212ZM150 379.6C150.373 378.592 150.775 377.388 151.204 375.988H147.704V379.6H150ZM140.76 389.596C140.76 389.708 140.527 389.857 140.06 390.044C139.612 390.231 139.173 390.324 138.744 390.324C138.576 390.324 138.445 390.268 138.352 390.156C138.277 390.044 138.24 389.913 138.24 389.764C138.296 389.241 138.333 388.719 138.352 388.196L138.38 387.44V385.984C138.38 384.136 138.287 382.643 138.1 381.504L140.9 382.708H152.044L152.576 382.036C152.651 381.961 152.763 381.831 152.912 381.644C153.08 381.457 153.22 381.364 153.332 381.364C153.444 381.364 153.705 381.513 154.116 381.812C154.545 382.092 154.937 382.391 155.292 382.708C155.665 383.025 155.852 383.249 155.852 383.38C155.647 383.641 155.301 383.828 154.816 383.94V385.816L154.844 386.964C154.863 387.804 154.9 388.607 154.956 389.372C154.863 389.521 154.564 389.689 154.06 389.876C153.575 390.063 153.136 390.156 152.744 390.156C152.371 390.156 152.184 389.969 152.184 389.596C152.184 389.596 152.221 389.447 152.296 389.148V388.644H140.76V389.596ZM140.76 383.52V387.832H152.296V383.52H140.76ZM151.96 419.312C150.149 419.947 148.656 420.497 147.48 420.964C147.443 421.487 147.443 421.991 147.48 422.476C147.536 423.353 147.555 423.923 147.536 424.184C147.517 424.576 147.377 424.94 147.116 425.276C146.855 425.593 146.556 425.752 146.22 425.752C145.884 425.752 145.585 425.621 145.324 425.36C145.063 425.08 144.932 424.753 144.932 424.38C144.932 424.231 144.969 423.764 145.044 422.98L145.128 422.028C142.981 423.148 141.908 424.333 141.908 425.584C141.908 426.872 143.159 427.516 145.66 427.516C146.295 427.516 146.827 427.479 147.256 427.404C147.704 427.329 148.255 427.217 148.908 427.068C149.655 426.863 150.243 426.76 150.672 426.76C151.139 426.76 151.503 426.863 151.764 427.068C152.044 427.255 152.184 427.525 152.184 427.88C152.184 428.571 151.624 429.065 150.504 429.364C149.403 429.681 148.199 429.84 146.892 429.84C144.876 429.84 143.355 429.513 142.328 428.86C141.32 428.207 140.816 427.292 140.816 426.116C140.816 425.127 141.199 424.231 141.964 423.428C142.748 422.607 143.831 421.785 145.212 420.964C145.231 420.777 145.24 420.488 145.24 420.096C145.24 419.219 145.091 418.491 144.792 417.912C144.512 417.315 144.176 417.016 143.784 417.016C143.243 417.016 142.711 417.333 142.188 417.968C141.684 418.603 141.133 419.424 140.536 420.432L140.116 421.132C140.06 421.225 139.911 421.459 139.668 421.832C139.425 422.187 139.192 422.457 138.968 422.644C138.763 422.831 138.548 422.924 138.324 422.924C137.932 422.924 137.624 422.756 137.4 422.42C137.176 422.084 137.064 421.683 137.064 421.216C137.064 420.861 137.148 420.535 137.316 420.236C137.484 419.937 137.755 419.62 138.128 419.284L138.576 418.864C139.491 418.024 140.191 417.268 140.676 416.596C141.591 415.345 142.319 413.908 142.86 412.284C142.001 412.415 141.292 412.48 140.732 412.48C140.079 412.48 139.509 412.331 139.024 412.032C138.539 411.733 137.969 411.257 137.316 410.604C137.241 410.492 137.204 410.417 137.204 410.38C137.204 410.343 137.251 410.324 137.344 410.324C137.419 410.324 137.549 410.352 137.736 410.408C138.52 410.688 139.248 410.828 139.92 410.828C140.293 410.828 140.788 410.791 141.404 410.716C142.039 410.623 142.683 410.473 143.336 410.268C143.429 409.708 143.476 409.251 143.476 408.896C143.476 408.093 143.168 407.505 142.552 407.132C142.459 407.095 142.384 407.048 142.328 406.992C142.272 406.936 142.244 406.871 142.244 406.796C142.244 406.609 142.3 406.451 142.412 406.32C142.524 406.189 142.692 406.124 142.916 406.124C143.271 406.124 143.681 406.18 144.148 406.292C144.633 406.404 144.979 406.553 145.184 406.74C145.333 406.889 145.408 407.141 145.408 407.496C145.408 407.608 145.389 407.795 145.352 408.056C145.725 408.243 146.127 408.336 146.556 408.336C146.799 408.336 147.023 408.308 147.228 408.252C147.489 408.215 147.695 408.196 147.844 408.196C148.311 408.196 148.544 408.392 148.544 408.784C148.544 409.157 148.385 409.54 148.068 409.932C147.751 410.305 147.303 410.651 146.724 410.968C146.071 411.341 145.259 411.668 144.288 411.948C143.784 413.46 143.159 414.963 142.412 416.456C142.86 416.213 143.308 416.092 143.756 416.092C145.436 416.092 146.5 416.96 146.948 418.696C147.265 417.931 147.592 417.268 147.928 416.708C148.283 416.148 148.693 415.616 149.16 415.112C149.739 414.496 150.42 413.955 151.204 413.488C152.007 413.003 152.828 412.76 153.668 412.76C154.433 412.76 155.068 412.993 155.572 413.46C156.095 413.908 156.356 414.505 156.356 415.252C156.356 416.185 155.936 416.979 155.096 417.632C154.275 418.267 153.229 418.827 151.96 419.312ZM144.988 409.624L145.632 409.26C145.763 409.185 145.828 409.111 145.828 409.036C145.828 408.961 145.753 408.877 145.604 408.784L145.268 408.56L144.988 409.624ZM149.608 415.616C149.123 416.157 148.703 416.783 148.348 417.492C147.993 418.183 147.751 418.911 147.62 419.676L147.956 419.508C149.655 418.649 150.793 418.043 151.372 417.688C152.175 417.24 152.8 416.745 153.248 416.204C153.715 415.644 153.948 415.149 153.948 414.72C153.948 414.44 153.855 414.216 153.668 414.048C153.481 413.88 153.201 413.796 152.828 413.796C152.343 413.796 151.811 413.955 151.232 414.272C150.672 414.571 150.131 415.019 149.608 415.616Z" fill="#468459"/>
<path d="M172 76V440" stroke="#468459" stroke-linecap="round" stroke-dasharray="6 6"/>
<path d="M120 75V359" stroke="#468459" stroke-linecap="round" stroke-dasharray="6 6"/>
<defs>
<filter id="filter0_f_638733_5898" x="63.2263" y="0.582031" width="195.554" height="228.515" filterUnits="userSpaceOnUse" color-interpolation-filters="sRGB">
<feFlood flood-opacity="0" result="BackgroundImageFix"/>
<feBlend mode="normal" in="SourceGraphic" in2="BackgroundImageFix" result="shape"/>
<feGaussianBlur stdDeviation="17" result="effect1_foregroundBlur_638733_5898"/>
</filter>
<filter id="filter1_f_638733_5898" x="0.337402" y="276.253" width="179.294" height="185.367" filterUnits="userSpaceOnUse" color-interpolation-filters="sRGB">
<feFlood flood-opacity="0" result="BackgroundImageFix"/>
<feBlend mode="normal" in="SourceGraphic" in2="BackgroundImageFix" result="shape"/>
<feGaussianBlur stdDeviation="17" result="effect1_foregroundBlur_638733_5898"/>
</filter>
</defs>
</svg>
