<svg width="244" height="37" viewBox="0 0 244 37" fill="none" xmlns="http://www.w3.org/2000/svg">
<g clip-path="url(#clip0_662912_550)" filter="url(#filter0_d_662912_550)">
<path d="M167.096 7.51367H163.274V26.511H167.096V7.51367Z" fill="#468459"/>
<path d="M147.96 7.51367L140.622 26.5051H144.633L150.037 12.0298L155.436 26.5051H159.447L152.109 7.51367H147.96Z" fill="#468459"/>
<path d="M60.2546 7.51367L52.916 26.5051H56.9276L62.3318 12.0298L67.7302 26.5051H71.7417L64.409 7.51367H60.2546Z" fill="#468459"/>
<path d="M113.368 19.2376C113.349 20.2349 112.939 21.1849 112.225 21.8829C111.512 22.5809 110.552 22.9711 109.553 22.9694C108.585 23.0129 107.64 22.6713 106.925 22.0195C106.21 21.3677 105.783 20.459 105.738 19.4932C105.735 19.4635 105.735 19.4337 105.738 19.404V7.51953H101.917V19.404C101.972 21.3899 102.801 23.2759 104.228 24.661C105.655 26.046 107.566 26.821 109.556 26.821C111.546 26.821 113.457 26.046 114.884 24.661C116.31 23.2759 117.14 21.3899 117.195 19.404V7.51953H113.38L113.368 19.2376Z" fill="#468459"/>
<path d="M137.587 13.4618C137.579 11.881 136.944 10.3679 135.821 9.25397C134.697 8.14009 133.177 7.51638 131.594 7.51954H122.886V26.5347H126.648V10.8353H131.124C131.8 10.8674 132.439 11.1585 132.907 11.6481C133.374 12.1377 133.635 12.7882 133.635 13.4648C133.635 14.1413 133.374 14.7918 132.907 15.2814C132.439 15.771 131.8 16.0621 131.124 16.0942H128.064L133.617 26.5288H137.712L133.647 19.0653C134.803 18.651 135.801 17.8902 136.507 16.887C137.212 15.8839 137.59 14.6875 137.587 13.4618Z" fill="#468459"/>
<path d="M91.5188 7.51367L85.9181 15.1435L80.3114 7.51367H75.6035V26.5051H79.4246V12.6953L85.9181 21.3234L92.4115 12.6953V26.5051H96.2326V7.51367H91.5188Z" fill="#468459"/>
<path d="M44.583 15.1841H39.2263C38.72 15.1717 38.2387 14.9622 37.885 14.6002C37.5314 14.2382 37.3335 13.7526 37.3336 13.247C37.3335 12.7492 37.5282 12.2711 37.8763 11.9147C38.2244 11.5583 38.6982 11.3519 39.1966 11.3395H48.6779L50.7015 7.54834H39.2144C37.7073 7.55145 36.2624 8.14895 35.1944 9.21072C34.1265 10.2725 33.522 11.7125 33.5126 13.2172C33.5267 14.7124 34.1344 16.1408 35.2022 17.1891C36.2701 18.2374 37.7109 18.82 39.2085 18.8089H44.5651C45.0797 18.8089 45.5733 19.013 45.9371 19.3763C46.301 19.7396 46.5055 20.2323 46.5055 20.7461C46.5055 21.2598 46.301 21.7526 45.9371 22.1159C45.5733 22.4791 45.0797 22.6832 44.5651 22.6832H35.0422L33.0186 26.4803H44.5651C46.0754 26.4914 47.5287 25.9051 48.6072 24.8495C49.6857 23.7939 50.3017 22.3549 50.3206 20.8471C50.3182 20.1065 50.1698 19.3737 49.8838 18.6904C49.5978 18.0071 49.1798 17.3868 48.6536 16.8648C48.1275 16.3428 47.5035 15.9294 46.8173 15.6481C46.1311 15.3669 45.3962 15.2234 44.6544 15.2257L44.583 15.1841Z" fill="#468459"/>
<path d="M20.7637 19.0653L11.699 28.145C9.10062 27.1655 6.92707 25.3097 5.55469 22.8989C4.18231 20.4881 3.69751 17.6741 4.18421 14.944C4.67092 12.214 6.0985 9.73977 8.21979 7.9498C10.3411 6.15982 13.0225 5.16677 15.7998 5.14258C16.3715 5.14252 16.9424 5.18423 17.508 5.26737L9.30043 13.4617C8.92252 13.8394 8.62283 14.2877 8.41846 14.781C8.21408 15.2744 8.10904 15.803 8.10931 16.3369C8.10987 17.4151 8.5394 18.4489 9.30341 19.2108C10.0674 19.9728 11.1033 20.4006 12.1832 20.4C13.2631 20.3995 14.2986 19.9706 15.0618 19.2079L18.0377 16.2368C18.4057 15.8721 18.9031 15.6674 19.4215 15.6674C19.94 15.6674 20.4374 15.8721 20.8054 16.2368C20.9907 16.4216 21.1378 16.6412 21.2381 16.8828C21.3384 17.1245 21.3901 17.3835 21.3901 17.6451C21.3901 17.9066 21.3384 18.1657 21.2381 18.4073C21.1378 18.649 20.9907 18.8685 20.8054 19.0534L20.7637 19.0653Z" fill="#468459"/>
<path d="M19.8238 5.85547L10.7829 14.959C10.4172 15.3321 10.2124 15.8334 10.2124 16.3554C10.2124 16.8775 10.4172 17.3787 10.7829 17.7518C10.9609 17.9398 11.1754 18.0895 11.4134 18.1918C11.6513 18.2941 11.9076 18.3468 12.1667 18.3468C12.4258 18.3468 12.6821 18.2941 12.92 18.1918C13.158 18.0895 13.3725 17.9398 13.5505 17.7518L16.5264 14.7807C17.2773 14.0292 18.2949 13.6038 19.3581 13.5971C20.4213 13.5905 21.4442 14.003 22.2045 14.7451L22.2343 14.7807C22.9924 15.5442 23.4178 16.5757 23.4178 17.6508C23.4178 18.7259 22.9924 19.7575 22.2343 20.5209L14.0624 28.7331C14.63 28.816 15.2029 28.8577 15.7765 28.8579C18.5494 28.8216 21.2226 27.82 23.3346 26.0258C25.4466 24.2316 26.865 21.7575 27.3447 19.0306C27.8245 16.3038 27.3357 13.4952 25.9626 11.0898C24.5895 8.68437 22.4182 6.83307 19.8238 5.85547Z" fill="#468459"/>
</g>
<path d="M181.308 13.7098H182.207V12.7231H181.308V13.7098ZM189.377 19.0161L188.368 17.3497L187.71 18.5776C186.863 18.2414 186.095 17.8759 185.408 17.4812V18.6434H182.207V17.6347C181.52 18.0879 180.679 18.5483 179.685 19.0161H189.377ZM191.657 15.3763C191.35 14.9523 191.029 14.4188 190.693 13.7756C190.429 14.0679 190.02 14.4773 189.465 15.0035L188.544 13.6221V15.3324H186.022C186.841 15.7125 187.776 16.0852 188.829 16.4507C190.057 16.0706 190.999 15.7125 191.657 15.3763ZM193.894 13.644C194.362 13.0301 194.712 12.2188 194.946 11.2101H192.776C193.083 12.2188 193.455 13.0301 193.894 13.644ZM193.828 17.4374C192.834 18.0221 191.518 18.5483 189.881 19.0161H197.314C195.823 18.5337 194.661 18.0075 193.828 17.4374ZM186.307 13.7098V12.7231H185.408V13.7098H186.307ZM190.407 24.6952H198.411V27.1071H178.457V24.6952H181.242V21.8447H184.728V24.6952H186.833V21.3623H179.115V19.2354L177.887 16.9331C179.217 16.4653 180.387 15.9317 181.396 15.3324H181.308H178.896V10.9909H182.207V10.5085H178.282V8.22809H182.207V7.26331H185.408V8.22809H189.333V10.5085H185.408V10.9909H188.544V11.6268C189.669 10.4573 190.605 8.94437 191.35 7.08789L194.376 7.37294C194.215 7.89919 194.062 8.33772 193.916 8.68855H198.696V11.2101H197.863C197.57 13.0228 197 14.4553 196.152 15.5078C196.839 15.8586 197.782 16.2314 198.981 16.6261L197.753 19.1696V21.3623H190.407V21.9324H196.657V24.0593H190.407V24.6952Z" fill="#96C519"/>
<path d="M217.136 21.5377C216.23 19.9736 215.419 18.2779 214.702 16.4507V21.5377H217.136ZM211.304 16.4507C210.602 18.2341 209.776 19.9297 208.826 21.5377H211.304V16.4507ZM209.659 13.666H205.647V11.2979C205.471 11.9118 205.274 12.5038 205.055 13.0739V21.2965C207.043 18.7968 208.578 16.2533 209.659 13.666ZM220.645 10.8155V13.666H216.391C217.516 16.4287 219.11 19.0746 221.171 21.6035L219.351 24.9802C218.869 24.2932 218.357 23.5257 217.816 22.6779V24.2347H214.702V27.5237H211.304V24.2347H208.124V22.6998C207.7 23.3723 207.174 24.1324 206.546 24.9802L205.055 23.3138V27.5237H201.831V18.4679C201.334 19.3012 200.823 20.0101 200.296 20.5949L199.551 16.341C200.428 15.157 201.144 13.8779 201.7 12.5038C202.27 11.1151 202.76 9.41214 203.169 7.39487L206.37 7.96497C206.224 8.95898 206.027 9.90915 205.778 10.8155H211.304V7.48258H214.702V10.8155H220.645Z" fill="#96C519"/>
<path d="M227.376 10.5304H225.644V14.85C226.346 13.4613 226.923 12.0214 227.376 10.5304ZM232.551 13.1178H238.822V11.9776H232.551V13.1178ZM239.918 21.3623L242.506 21.7351C242.477 22.4075 242.455 22.9045 242.44 23.2261C242.425 23.5477 242.389 23.9424 242.33 24.4101C242.286 24.8633 242.257 25.1776 242.243 25.353C242.228 25.5284 242.17 25.755 242.067 26.0327C241.965 26.3105 241.892 26.4859 241.848 26.559C241.804 26.6321 241.694 26.7344 241.519 26.8659C241.344 27.0121 241.197 27.0852 241.08 27.0852C240.978 27.0998 240.781 27.1291 240.488 27.1729C240.211 27.2168 239.977 27.2387 239.787 27.2387C239.597 27.2387 239.29 27.2387 238.866 27.2387C237.36 27.2387 236.425 27.1218 236.059 26.8879C235.708 26.654 235.533 26.0766 235.533 25.1556V19.8493H234.766C234.692 21.6766 234.225 23.1822 233.362 24.3663C232.514 25.5503 231.148 26.6101 229.262 27.5457L227.552 24.9144C229.013 24.2566 230.051 23.555 230.665 22.8095C231.279 22.064 231.637 21.0772 231.74 19.8493H229.898C229.898 19.8786 229.898 19.9224 229.898 19.9809C229.912 20.0394 229.92 20.0832 229.92 20.1125C229.92 21.355 229.657 22.254 229.13 22.8095C228.619 23.3649 227.807 23.6427 226.696 23.6427H226.324L225.688 20.9676H225.841C226.294 20.9676 226.594 20.8726 226.74 20.6826C226.886 20.4779 226.96 20.0613 226.96 19.4327C226.96 18.8188 226.865 18.2706 226.675 17.7882C226.484 17.3058 226.141 16.7576 225.644 16.1437V27.4799H222.574V7.96497H230.38V9.2148H233.472V7.24138H237.068V9.2148H242.067V14.6088H240.203V15.7709H231.17V14.6088H229.547V12.9424C229.094 14.0826 228.699 14.967 228.363 15.5955C228.699 16.0633 228.991 16.553 229.24 17.0646H242.133V19.8493H238.625V24.0154C238.625 24.2493 238.647 24.3882 238.69 24.4321C238.749 24.4613 238.917 24.4759 239.195 24.4759C239.516 24.4759 239.706 24.3444 239.765 24.0812C239.823 23.8181 239.875 22.9118 239.918 21.3623Z" fill="#96C519"/>
<defs>
<filter id="filter0_d_662912_550" x="0" y="5" width="171" height="32" filterUnits="userSpaceOnUse" color-interpolation-filters="sRGB">
<feFlood flood-opacity="0" result="BackgroundImageFix"/>
<feColorMatrix in="SourceAlpha" type="matrix" values="0 0 0 0 0 0 0 0 0 0 0 0 0 0 0 0 0 0 127 0" result="hardAlpha"/>
<feOffset dy="4"/>
<feGaussianBlur stdDeviation="2"/>
<feComposite in2="hardAlpha" operator="out"/>
<feColorMatrix type="matrix" values="0 0 0 0 0 0 0 0 0 0 0 0 0 0 0 0 0 0 0.25 0"/>
<feBlend mode="normal" in2="BackgroundImageFix" result="effect1_dropShadow_662912_550"/>
<feBlend mode="normal" in="SourceGraphic" in2="effect1_dropShadow_662912_550" result="shape"/>
</filter>
<clipPath id="clip0_662912_550">
<rect width="163" height="24" fill="white" transform="translate(4 5)"/>
</clipPath>
</defs>
</svg>
