<svg width="342" height="104" viewBox="0 0 342 104" fill="none" xmlns="http://www.w3.org/2000/svg">
<line x1="79.7285" y1="2" x2="91.037" y2="13.3086" stroke="#468459" stroke-width="2.44444" stroke-linecap="round"/>
<line x1="79.7285" y1="10.9629" x2="91.037" y2="22.2714" stroke="#468459" stroke-width="2.44444" stroke-linecap="round"/>
<path d="M121.464 2.512H118.152C118.224 2.944 118.296 4.144 118.296 4.624C118.296 5.728 118.272 8.704 118.272 11.44C118.272 14.344 118.392 17.68 118.392 18.928C118.392 19.768 118.08 19.96 117.648 19.96C117.024 19.96 115.896 19.312 115.896 18.544C115.896 17.512 117.432 16.216 119.592 15.4C121.464 14.656 123.576 14.224 125.616 14.224C127.704 14.224 129.144 15.16 129.144 16.816C129.144 18.544 127.584 19.528 125.64 19.864C124.824 20.032 123.768 20.032 122.712 20.032L123.792 23.152C124.776 23.056 125.856 22.984 126.96 22.744C130.776 21.808 132.264 19.672 132.264 16.816C132.264 13.504 129.336 11.584 125.64 11.584C123.816 11.584 121.392 11.968 119.256 12.736C115.92 13.912 112.92 16.36 112.92 18.688C112.92 21.232 116.232 23.248 118.56 23.248C120.144 23.248 121.2 22.432 121.2 19.48C121.2 18.088 121.056 13.936 121.056 11.32C121.056 9.088 121.128 6.496 121.248 4.6C121.272 4 121.368 2.968 121.464 2.512ZM128.304 5.128L126.984 7.456C128.472 8.176 131.592 9.976 132.744 10.936L134.208 8.488C132.912 7.576 130.128 6.016 128.304 5.128ZM113.568 6.448L113.64 9.352C114.456 9.448 115.392 9.472 116.976 9.472C119.088 9.472 122.952 9.04 125.664 8.416L125.592 5.44C123.12 6.16 119.376 6.616 116.88 6.616C116.016 6.616 114.984 6.616 113.568 6.448ZM143.928 6.136C142.728 7.936 140.52 9.76 137.136 11.056C137.76 11.512 138.648 12.52 139.032 13.192C142.728 11.488 145.176 9.328 147 6.736L143.928 6.136ZM144.6 7.744L142.632 9.904H151.776V7.744H144.6ZM150.912 7.744V8.152C148.512 12.184 142.08 14.776 135.648 15.76C136.152 16.384 136.752 17.56 137.016 18.304C143.928 16.96 150.72 14.08 153.888 8.776L151.944 7.624L151.464 7.744H150.912ZM143.448 9.376L140.952 10.48C144.384 14.56 149.856 16.912 156.456 17.824C156.864 17.008 157.656 15.712 158.304 15.04C151.824 14.416 146.232 12.496 143.448 9.376ZM140.208 16.648V24.16H143.016V19H151.056V24.112H154.008V16.648H140.208ZM141.624 21.064V23.416H152.496V21.064H141.624ZM145.44 1.648V5.056H148.416V1.648H145.44ZM136.656 3.592V8.896H139.464V6.184H154.392V8.896H157.344V3.592H136.656ZM168.528 4.288V6.568H181.704V4.288H168.528ZM169.176 7.504V9.664H181.2V7.504H169.176ZM168.072 10.696V13.048H182.136V10.696H168.072ZM177.768 1.576C177.528 2.416 177.024 3.616 176.592 4.456L178.848 5.104C179.328 4.408 179.976 3.352 180.624 2.272L177.768 1.576ZM170.064 2.416C170.568 3.28 171.096 4.456 171.288 5.2L173.688 4.336C173.472 3.592 172.872 2.488 172.32 1.672L170.064 2.416ZM179.856 13.504C179.112 14.512 177.816 15.88 176.88 16.672L178.728 18.088C179.688 17.32 180.96 16.144 182.016 15.04L179.856 13.504ZM168.528 14.872C169.392 15.808 170.4 17.104 170.832 17.968L172.896 16.528C172.416 15.688 171.36 14.464 170.496 13.576L168.528 14.872ZM167.136 20.296L168.384 22.72C169.92 21.88 171.816 20.824 173.496 19.84L172.752 17.512C170.688 18.568 168.576 19.648 167.136 20.296ZM173.736 5.824V21.304C173.736 21.568 173.64 21.688 173.352 21.688C173.064 21.688 172.128 21.688 171.312 21.664C171.648 22.336 171.984 23.464 172.056 24.208C173.568 24.208 174.72 24.16 175.512 23.728C176.28 23.296 176.496 22.6 176.496 21.304V5.824H173.736ZM176.352 13.504L174.48 13.936C175.608 17.968 177.648 21.328 180.768 23.056C181.176 22.312 182.016 21.256 182.592 20.728C179.52 19.48 177.408 16.72 176.352 13.504ZM160.056 6.592V9.256H168V6.592H160.056ZM162.984 1.624V24.16H165.6V1.624H162.984ZM162.936 8.416C162.384 11.464 161.04 15.232 159.504 17.32C159.912 17.992 160.536 19.096 160.776 19.864C162.48 17.392 163.848 12.76 164.544 8.968L162.936 8.416ZM165.48 10.168L164.28 11.32C164.928 12.448 166.368 15.184 166.896 16.576L168.384 14.512C167.976 13.84 166.008 10.816 165.48 10.168ZM197.184 5.56L193.896 5.464C193.656 7.984 193.128 10.744 192.432 13C191.424 16.24 190.512 17.776 189.48 17.776C188.568 17.776 187.608 16.6 187.608 14.176C187.608 11.152 190.392 7 195.48 7C199.632 7 201.984 9.688 201.984 13.456C201.984 16.984 199.584 19.168 196.536 19.912C195.888 20.056 195.216 20.176 194.28 20.296L196.104 23.128C202.152 22.192 205.248 18.616 205.248 13.576C205.248 8.32 201.48 4.192 195.552 4.192C189.336 4.192 184.512 8.944 184.512 14.464C184.512 18.52 186.72 21.472 189.408 21.472C192.024 21.472 194.088 18.496 195.528 13.648C196.368 10.816 196.848 8.008 197.184 5.56ZM208.44 3.424V5.872H229.488V3.424H208.44ZM209.976 7.336V9.76H228.408V7.336H209.976ZM212.184 15.952V18.376H226.08V15.952H212.184ZM212.256 11.08V13.432H225.168V19.648H228.048V11.08H212.256ZM210.36 11.08V14.056C210.36 16.528 210.072 19.912 207.432 22.336C208.056 22.696 209.256 23.728 209.688 24.28C212.616 21.544 213.216 17.176 213.216 14.104V11.08H210.36ZM217.464 1.6V8.632H220.392V1.6H217.464ZM217.56 11.896V17.464H220.344V11.896H217.56Z" fill="#468459"/>
<line x1="1.22222" y1="-1.22222" x2="17.2149" y2="-1.22222" transform="matrix(-0.707107 0.707107 0.707107 0.707107 264 2)" stroke="#468459" stroke-width="2.44444" stroke-linecap="round"/>
<line x1="1.22222" y1="-1.22222" x2="17.2149" y2="-1.22222" transform="matrix(-0.707107 0.707107 0.707107 0.707107 264 10.9629)" stroke="#468459" stroke-width="2.44444" stroke-linecap="round"/>
<path d="M19.8217 68.28V66.984H22.9417V68.28H19.8217ZM14.2777 68.28V66.984H17.2057V68.28H14.2777ZM17.2057 63.768V65.016H14.2777V63.768H17.2057ZM22.9417 65.016H19.8217V63.768H22.9417V65.016ZM25.6057 61.704H21.6697C21.4057 61.56 21.1417 61.44 20.8297 61.296C22.4137 60.408 23.9977 59.376 25.2697 58.392L23.6617 56.904L23.0617 57.048H12.2617V59.016H20.5897C19.9657 59.472 19.2697 59.904 18.5977 60.264C17.5657 59.832 16.4617 59.376 15.4777 59.04L13.8937 60.576C14.7817 60.888 15.7897 61.272 16.7497 61.704H11.6617V74.04H14.2777V70.248H17.2057V73.752H19.8217V70.248H22.9417V71.64C22.9417 71.904 22.8457 72 22.5337 72C22.2697 72 21.3577 72 20.5657 71.976C20.8537 72.552 21.1897 73.368 21.2857 74.016C22.7497 74.016 23.8297 73.992 24.5737 73.656C25.3657 73.296 25.6057 72.816 25.6057 71.64V61.704ZM18.2617 53.736V51.696H15.2377V53.736H7.84566V59.856C7.55766 58.68 6.90966 57.096 6.26166 55.872L4.22166 56.832C4.91766 58.32 5.58966 60.24 5.75766 61.44L7.84566 60.36V61.32C7.84566 61.92 7.84566 62.544 7.82166 63.192C6.38166 63.912 4.98966 64.584 4.02966 65.016L4.86966 67.656C5.73366 67.152 6.62166 66.6 7.53366 66.048C7.17366 68.232 6.42966 70.368 4.86966 72.072C5.42166 72.408 6.47766 73.44 6.88566 73.992C10.0057 70.704 10.5097 65.16 10.5097 61.32V56.184H26.5417V53.736H18.2617ZM32.7337 53.832L32.8537 56.928C33.4777 56.832 34.3177 56.76 34.7977 56.736C35.9017 56.664 37.9657 56.592 38.9257 56.544C38.3737 57.672 37.6777 59.304 37.0057 60.888C32.1817 61.104 28.7977 63.936 28.7977 67.656C28.7977 70.08 30.3817 71.544 32.4937 71.544C34.1257 71.544 35.2777 70.872 36.2377 69.432C37.0777 68.112 38.0857 65.712 38.9497 63.672C41.0137 63.96 42.9337 64.68 44.6377 65.616C43.8457 67.8 42.1657 70.08 38.5417 71.64L41.0857 73.728C44.3017 72.048 46.1257 69.936 47.1817 67.224C47.9257 67.776 48.6217 68.328 49.2457 68.904L50.6377 65.568C49.9417 65.088 49.0777 64.536 48.0697 63.96C48.3097 62.616 48.4297 61.128 48.5257 59.52L45.3817 59.16C45.4537 59.88 45.4537 60.84 45.3817 61.776C45.3577 62.04 45.3337 62.304 45.3097 62.592C43.7497 61.92 41.9737 61.344 40.1017 61.056C40.9657 59.016 41.8777 56.928 42.5017 55.896C42.6937 55.56 42.9817 55.248 43.3177 54.888L41.3977 53.4C40.9897 53.568 40.3657 53.712 39.7657 53.736C38.6377 53.832 36.0937 53.952 34.7257 53.952C34.1977 53.952 33.3817 53.904 32.7337 53.832ZM31.6057 67.2C31.6057 65.688 33.1177 64.056 35.8057 63.648C35.1337 65.16 34.4857 66.672 33.8617 67.56C33.4297 68.16 33.0937 68.4 32.6137 68.4C32.0617 68.4 31.6057 67.992 31.6057 67.2ZM73.8457 63.552C73.8457 58.32 70.1017 54.192 64.1497 54.192C57.9337 54.192 53.1337 58.92 53.1337 64.464C53.1337 68.52 55.3417 71.448 58.0057 71.448C60.6217 71.448 62.6857 68.472 64.1257 63.624C64.8217 61.368 65.2297 59.16 65.5657 57.12C68.8057 57.672 70.6057 60.144 70.6057 63.456C70.6057 66.96 68.2057 69.168 65.1337 69.888C64.4857 70.032 63.8137 70.176 62.9017 70.272L64.7017 73.128C70.7497 72.192 73.8457 68.616 73.8457 63.552ZM56.2057 64.152C56.2057 61.512 58.3417 58.008 62.3017 57.192C62.0377 59.184 61.5817 61.224 61.0297 63C60.0457 66.24 59.1097 67.752 58.1017 67.752C57.1657 67.752 56.2057 66.576 56.2057 64.152ZM94.0777 58.56C93.7177 60.96 93.1417 63.024 92.3017 64.776C91.3897 62.928 90.7417 60.84 90.2617 58.56H94.0777ZM98.8057 58.56V55.872H91.1017C91.4857 54.696 91.7977 53.472 92.0617 52.224L89.0857 51.696C88.4857 54.864 87.4297 57.888 85.9177 60.096V53.496H77.1097V56.136H83.1577V59.784H77.0857V67.128C77.0857 69.96 77.8537 70.728 80.4697 70.728H83.5897C85.7497 70.728 86.4937 69.888 86.8297 66.624C86.0617 66.456 84.8617 65.976 84.2857 65.544C84.1897 67.728 84.0457 68.064 83.3257 68.064H80.8777C80.0137 68.064 79.8697 67.944 79.8697 67.104V62.376H83.1577V63.168H85.9177V62.304C86.4457 62.688 86.9977 63.096 87.2857 63.384C87.6697 62.928 88.0297 62.448 88.3657 61.896C88.9417 63.984 89.6377 65.88 90.5497 67.56C89.0377 69.36 87.0457 70.68 84.3577 71.64C84.9097 72.264 85.7737 73.536 86.0857 74.184C88.6057 73.128 90.5977 71.76 92.1817 70.032C93.5257 71.712 95.1577 73.056 97.2217 74.04C97.6297 73.224 98.5177 72.072 99.1897 71.496C97.0537 70.632 95.3497 69.264 94.0297 67.56C95.4697 65.136 96.4297 62.184 97.0297 58.56H98.8057ZM116.374 69.528V71.16H106.798V69.528H116.374ZM103.99 74.088H106.798V73.344H116.374V74.016H119.302V67.344H103.99V74.088ZM110.062 62.232V64.272H107.134L107.878 64.08C107.734 63.576 107.374 62.832 106.99 62.232H110.062ZM116.23 62.232C115.966 62.832 115.606 63.576 115.318 64.104L116.35 64.272H112.99V62.232H116.23ZM118.15 64.272C118.486 63.768 118.846 63.12 119.278 62.352L118.462 62.232H121.75V60.144H112.99V59.184H119.494V57.168H112.99V56.28H121.03V54.192H116.878C117.262 53.616 117.67 52.896 118.126 52.08L115.126 51.624C114.886 52.368 114.358 53.424 113.95 54.168L114.07 54.192H108.694L109.102 54.072C108.862 53.376 108.358 52.368 107.83 51.648L105.214 52.296C105.574 52.848 105.91 53.568 106.15 54.192H102.19V56.28H110.062V57.168H103.75V59.184H110.062V60.144H101.518V62.232H105.142L104.11 62.448C104.446 63 104.782 63.672 104.998 64.272H100.75V66.456H122.47V64.272H118.15ZM134.35 55.224V58.296C137.374 58.584 141.718 58.56 144.67 58.296V55.2C142.078 55.512 137.302 55.632 134.35 55.224ZM136.27 65.472L133.51 65.208C133.246 66.432 133.102 67.392 133.102 68.328C133.102 70.8 135.094 72.264 139.222 72.264C141.934 72.264 143.854 72.096 145.414 71.808L145.366 68.568C143.254 69 141.478 69.192 139.342 69.192C136.894 69.192 135.982 68.544 135.982 67.488C135.982 66.84 136.078 66.264 136.27 65.472ZM130.654 53.616L127.294 53.328C127.27 54.096 127.126 55.008 127.054 55.68C126.79 57.528 126.046 61.584 126.046 65.184C126.046 68.448 126.502 71.376 126.982 73.032L129.766 72.84C129.742 72.504 129.718 72.12 129.718 71.856C129.718 71.616 129.766 71.088 129.838 70.728C130.102 69.456 130.894 66.84 131.566 64.848L130.078 63.672C129.742 64.464 129.358 65.304 128.998 66.12C128.926 65.64 128.902 65.016 128.902 64.56C128.902 62.16 129.742 57.36 130.054 55.752C130.15 55.32 130.462 54.12 130.654 53.616ZM154.486 55.968C154.51 54.672 154.51 53.352 154.51 52.008H151.702C151.702 53.376 151.702 54.696 151.678 55.968H148.87V58.752H151.654C151.486 64.368 150.838 68.952 148.15 72C148.87 72.432 149.806 73.392 150.238 74.088C153.334 70.536 154.174 65.16 154.414 58.752H156.838C156.694 66.768 156.502 69.744 156.046 70.392C155.806 70.728 155.59 70.824 155.23 70.824C154.774 70.824 153.91 70.8 152.95 70.728C153.454 71.544 153.718 72.792 153.766 73.584C154.894 73.632 155.974 73.632 156.67 73.488C157.462 73.32 157.966 73.08 158.518 72.264C159.262 71.16 159.43 67.488 159.646 57.264C159.67 56.904 159.67 55.968 159.67 55.968H154.486ZM163.75 69.168V57.144H166.846V69.168H163.75ZM160.99 54.408V73.584H163.75V71.928H166.846V73.416H169.702V54.408H160.99ZM179.086 52.536L178.63 55.32C181.486 55.8 185.974 56.328 188.494 56.52L188.878 53.712C186.382 53.544 181.774 53.04 179.086 52.536ZM189.718 60.168L187.966 58.176C187.702 58.272 187.054 58.392 186.598 58.44C184.606 58.704 179.158 58.944 178.03 58.944C177.142 58.968 176.278 58.92 175.726 58.872L176.014 62.184C176.518 62.112 177.238 61.992 178.078 61.92C179.446 61.8 182.326 61.536 184.006 61.488C181.822 63.792 176.902 68.688 175.678 69.936C175.03 70.56 174.454 71.064 174.022 71.424L176.854 73.416C178.51 71.304 180.31 69.336 181.126 68.496C181.702 67.92 182.206 67.536 182.71 67.536C183.19 67.536 183.718 67.848 183.982 68.688C184.15 69.288 184.438 70.416 184.678 71.136C185.278 72.696 186.502 73.2 188.782 73.2C190.03 73.2 192.502 73.032 193.486 72.84L193.678 69.696C192.478 69.936 190.822 70.128 188.974 70.128C188.038 70.128 187.51 69.744 187.294 69C187.078 68.376 186.814 67.464 186.598 66.816C186.286 65.928 185.854 65.4 185.158 65.184C184.894 65.088 184.462 64.992 184.246 65.016C184.822 64.392 187.054 62.328 188.158 61.392C188.59 61.032 189.094 60.6 189.718 60.168ZM196.106 55.488L196.418 58.776C199.202 58.176 204.098 57.648 206.354 57.408C204.746 58.632 202.802 61.368 202.802 64.824C202.802 70.008 207.554 72.72 212.57 73.056L213.698 69.768C209.642 69.552 205.946 68.112 205.946 64.176C205.946 61.32 208.106 58.2 211.01 57.432C212.282 57.144 214.346 57.144 215.642 57.12L215.618 54.048C213.938 54.096 211.298 54.264 208.826 54.456C204.434 54.84 200.474 55.2 198.482 55.368C198.002 55.416 197.066 55.464 196.106 55.488ZM224.786 70.224V67.728H236.186V70.224H224.786ZM236.186 62.616V65.088H224.786V62.616H236.186ZM236.186 57.504V59.976H224.786V57.504H236.186ZM231.002 54.768C231.386 53.904 231.77 52.968 232.13 52.008L228.674 51.624C228.554 52.584 228.29 53.736 228.026 54.768H221.882V74.064H224.786V72.864H236.186V74.04H239.234V54.768H231.002ZM256.082 53.064C257.402 55.584 259.202 58.224 261.098 60.432H248.138C250.034 58.272 251.714 55.632 252.89 52.872L249.818 51.984C248.378 55.632 245.738 58.944 242.738 60.96C243.434 61.464 244.658 62.616 245.186 63.264C245.834 62.76 246.482 62.184 247.106 61.536V63.216H251.162C250.682 66.72 249.434 69.864 244.01 71.616C244.706 72.264 245.546 73.44 245.906 74.256C252.122 71.928 253.682 67.824 254.282 63.216H259.01C258.794 68.232 258.53 70.368 258.05 70.872C257.786 71.16 257.522 71.208 257.09 71.208C256.49 71.208 255.242 71.184 253.922 71.088C254.426 71.904 254.81 73.104 254.858 73.968C256.274 74.016 257.666 74.016 258.482 73.896C259.418 73.776 260.066 73.536 260.666 72.768C261.506 71.76 261.794 68.928 262.058 61.68V61.512C262.586 62.064 263.09 62.592 263.594 63.048C264.146 62.232 265.25 61.08 266.018 60.48C263.402 58.464 260.402 54.984 258.89 51.936L256.082 53.064ZM268.058 55.536L268.37 58.824C271.154 58.224 276.05 57.696 278.306 57.456C276.674 58.68 274.73 61.416 274.73 64.872C274.73 70.08 279.482 72.768 284.522 73.104L285.65 69.816C281.57 69.6 277.874 68.184 277.874 64.224C277.874 61.368 280.058 58.272 282.962 57.504C284.234 57.192 286.298 57.192 287.594 57.168L287.57 54.096C285.866 54.168 283.25 54.312 280.778 54.528C276.386 54.888 272.426 55.248 270.41 55.416C269.954 55.464 269.018 55.512 268.058 55.536ZM284.162 59.52L282.386 60.264C283.154 61.344 283.658 62.28 284.258 63.6L286.082 62.784C285.626 61.848 284.762 60.384 284.162 59.52ZM286.85 58.416L285.098 59.232C285.866 60.288 286.418 61.176 287.066 62.472L288.866 61.608C288.362 60.672 287.45 59.256 286.85 58.416ZM311.186 60.6L310.658 60.792H306.866L307.442 59.856C306.89 59.592 306.17 59.328 305.378 59.016C307.394 57.648 309.386 55.992 310.922 54.456L308.882 52.848L308.234 53.016H293.882V55.632H305.474C304.538 56.448 303.458 57.24 302.426 57.888C301.082 57.384 299.738 56.928 298.658 56.544L297.242 58.704C298.778 59.28 300.722 60.048 302.498 60.792H291.578V63.504H301.058V70.872C301.058 71.232 300.914 71.328 300.458 71.352C299.978 71.352 298.202 71.352 296.786 71.304C297.218 72.048 297.674 73.224 297.818 74.04C299.882 74.04 301.442 74.016 302.546 73.608C303.698 73.2 304.034 72.48 304.034 70.968V63.504H309.098C308.498 64.584 307.802 65.664 307.226 66.456L309.674 67.872C311.018 66.264 312.434 63.864 313.514 61.608L311.186 60.6ZM322.298 52.584L321.89 52.704H316.202V74.088H318.866V55.248H320.978C320.594 56.928 320.042 59.112 319.538 60.672C320.93 62.304 321.266 63.816 321.266 64.944C321.266 65.64 321.146 66.12 320.858 66.336C320.642 66.48 320.426 66.528 320.162 66.528C319.85 66.552 319.514 66.552 319.082 66.504C319.49 67.224 319.706 68.328 319.73 69.072C320.306 69.072 320.882 69.072 321.338 69C321.89 68.928 322.37 68.76 322.754 68.472C323.522 67.92 323.858 66.912 323.858 65.328C323.858 63.912 323.57 62.256 322.034 60.384C322.754 58.488 323.594 55.824 324.242 53.712L322.298 52.584ZM337.37 58.152V55.512H331.874V51.672H329.042V55.512H323.714V58.152H327.002C326.882 64.368 326.498 69.096 321.338 71.808C322.01 72.336 322.826 73.32 323.162 74.016C327.362 71.712 328.874 68.088 329.474 63.576H333.362C333.218 68.52 333.002 70.512 332.57 70.968C332.354 71.232 332.138 71.328 331.73 71.328C331.25 71.328 330.266 71.304 329.234 71.184C329.714 72 330.026 73.176 330.05 74.016C331.298 74.064 332.45 74.064 333.17 73.944C333.986 73.824 334.538 73.584 335.066 72.888C335.81 71.952 336.026 69.192 336.266 62.184C336.266 61.824 336.29 61.008 336.29 61.008H329.714C329.762 60.096 329.81 59.136 329.834 58.152H337.37ZM38.9708 82.776L35.5868 82.584C35.6348 83.112 35.6348 83.592 35.5628 84.72C35.5148 85.272 35.4428 85.92 35.3708 86.664C33.6188 86.52 31.8188 86.208 30.4268 85.752L30.2588 88.512C31.6748 88.92 33.3788 89.208 35.0348 89.376C34.9148 90.456 34.7708 91.584 34.6268 92.664C33.0668 92.496 31.4588 92.232 29.8988 91.704L29.7308 94.608C31.0028 94.968 32.5868 95.232 34.3388 95.4C34.2428 96.384 34.1708 97.248 34.1708 97.824C34.1708 101.832 36.8348 103.464 40.6028 103.464C45.8588 103.464 49.1228 100.872 49.1228 97.248C49.1228 95.208 48.3788 93.504 46.7948 91.488L43.4108 92.208C44.9948 93.696 45.8828 95.232 45.8828 96.864C45.8828 98.832 44.0588 100.368 40.6988 100.368C38.3468 100.368 37.1228 99.312 37.1228 97.32C37.1228 96.888 37.1708 96.288 37.2188 95.568C37.5308 95.568 37.8668 95.568 38.1788 95.568C39.6908 95.568 41.0828 95.472 42.4268 95.352L42.4988 92.496C40.9388 92.688 39.1628 92.784 37.6748 92.784C37.6268 92.784 37.5548 92.784 37.5068 92.784C37.6268 91.704 37.7708 90.576 37.9148 89.52C39.8348 89.52 41.1548 89.424 42.5948 89.28L42.6908 86.424C41.5628 86.592 40.0268 86.736 38.2988 86.76C38.3948 85.968 38.4908 85.32 38.5628 84.912C38.6588 84.288 38.7548 83.64 38.9708 82.776ZM52.4099 85.536L52.7219 88.824C55.5059 88.224 60.4019 87.696 62.6579 87.456C61.0259 88.68 59.0819 91.416 59.0819 94.872C59.0819 100.08 63.8339 102.768 68.8739 103.104L70.0019 99.816C65.9219 99.6 62.2259 98.184 62.2259 94.224C62.2259 91.368 64.4099 88.272 67.3139 87.504C68.5859 87.192 70.6499 87.192 71.9459 87.168L71.9219 84.096C70.2179 84.168 67.6019 84.312 65.1299 84.528C60.7379 84.888 56.7779 85.248 54.7619 85.416C54.3059 85.464 53.3699 85.512 52.4099 85.536ZM68.5139 89.52L66.7379 90.264C67.5059 91.344 68.0099 92.28 68.6099 93.6L70.4339 92.784C69.9779 91.848 69.1139 90.384 68.5139 89.52ZM71.2019 88.416L69.4499 89.232C70.2179 90.288 70.7699 91.176 71.4179 92.472L73.2179 91.608C72.7139 90.672 71.8019 89.256 71.2019 88.416ZM78.2579 89.808L78.4259 92.64C82.0499 92.856 85.9139 92.856 88.8659 92.664C89.2499 93.48 89.7059 94.32 90.2099 95.16C89.4899 95.088 88.1939 94.968 87.1859 94.872L86.9459 97.152C88.6979 97.344 91.2899 97.656 92.6339 97.92L94.0979 95.712C93.6659 95.304 93.3299 94.944 93.0179 94.488C92.5859 93.864 92.1779 93.12 91.7699 92.352C93.2099 92.16 94.5059 91.896 95.6099 91.608L95.1299 88.776C93.9539 89.088 92.5139 89.496 90.5459 89.736C90.4019 89.352 90.2579 88.992 90.1379 88.656C90.0179 88.296 89.8979 87.912 89.7779 87.528C91.3619 87.312 92.8739 87 94.1939 86.64L93.8099 83.88C92.2739 84.36 90.7379 84.696 89.0819 84.912C88.9139 84.096 88.7699 83.256 88.6499 82.392L85.4339 82.752C85.7219 83.592 85.9619 84.36 86.2019 85.128C83.9939 85.2 81.5459 85.104 78.6899 84.768L78.8579 87.528C81.8819 87.816 84.6899 87.864 86.9459 87.744C87.0899 88.152 87.2339 88.608 87.4259 89.16C87.5219 89.424 87.6179 89.712 87.7379 90C85.0739 90.168 81.8339 90.144 78.2579 89.808ZM82.8659 95.376L79.8899 94.8C79.3379 95.952 78.8099 97.128 78.8579 98.664C78.9059 102.096 81.8819 103.512 86.6819 103.512C88.6499 103.512 90.8339 103.344 92.5139 103.056L92.6819 100.008C90.9779 100.344 88.9379 100.536 86.6579 100.536C83.4899 100.536 81.8099 99.816 81.8099 98.04C81.8099 97.008 82.2899 96.168 82.8659 95.376ZM107.645 99.168C107.645 98.568 108.221 98.016 109.133 98.016C110.429 98.016 111.317 99.024 111.461 100.584C111.029 100.632 110.573 100.656 110.069 100.656C108.629 100.656 107.645 100.056 107.645 99.168ZM103.565 83.712L103.661 86.832C104.213 86.76 104.981 86.688 105.629 86.64C106.901 86.568 110.213 86.424 111.437 86.4C110.261 87.432 107.765 89.448 106.421 90.552C105.005 91.728 102.101 94.176 100.397 95.544L102.581 97.8C105.149 94.872 107.549 92.928 111.221 92.928C114.053 92.928 116.213 94.392 116.213 96.552C116.213 98.016 115.541 99.12 114.221 99.816C113.885 97.536 112.085 95.712 109.109 95.712C106.565 95.712 104.813 97.512 104.813 99.456C104.813 101.856 107.333 103.392 110.669 103.392C116.477 103.392 119.357 100.392 119.357 96.6C119.357 93.096 116.261 90.552 112.181 90.552C111.413 90.552 110.693 90.624 109.901 90.816C111.413 89.616 113.933 87.504 115.229 86.592C115.781 86.184 116.357 85.848 116.909 85.488L115.349 83.352C115.061 83.448 114.509 83.52 113.525 83.616C112.157 83.736 107.021 83.832 105.749 83.832C105.077 83.832 104.237 83.808 103.565 83.712ZM127.925 98.928C127.925 97.896 129.053 97.248 130.925 97.248C131.597 97.248 132.269 97.32 132.893 97.416C132.917 97.752 132.917 98.04 132.917 98.256C132.917 99.864 132.365 100.536 130.829 100.536C129.149 100.536 127.925 100.104 127.925 98.928ZM135.965 82.752H132.341C132.485 83.352 132.557 84.384 132.605 85.56C132.629 86.592 132.629 88.008 132.629 89.472C132.629 90.744 132.725 92.784 132.797 94.656C132.341 94.608 131.861 94.584 131.381 94.584C126.965 94.584 124.829 96.576 124.829 99.072C124.829 102.336 127.637 103.464 131.069 103.464C135.101 103.464 136.181 101.448 136.181 99.312C136.181 99.072 136.181 98.784 136.157 98.472C138.293 99.456 140.093 100.872 141.461 102.24L143.309 99.384C141.653 97.848 139.061 96.168 136.013 95.28C135.893 93.504 135.797 91.584 135.749 90.144C137.693 90.096 140.525 89.976 142.541 89.808L142.445 86.952C140.453 87.192 137.645 87.288 135.725 87.312C135.725 86.688 135.725 86.112 135.749 85.56C135.773 84.624 135.845 83.448 135.965 82.752ZM162.725 94.152C162.725 97.896 158.885 99.864 152.933 100.536L154.661 103.512C161.333 102.6 166.085 99.408 166.085 94.272C166.085 90.504 163.421 88.344 159.629 88.344C156.821 88.344 154.133 89.04 152.381 89.448C151.589 89.616 150.557 89.784 149.741 89.856L150.653 93.288C151.349 93.024 152.285 92.64 152.981 92.448C154.205 92.088 156.581 91.272 159.221 91.272C161.477 91.272 162.725 92.568 162.725 94.152ZM153.293 82.632L152.813 85.512C155.573 85.992 160.781 86.472 163.589 86.664L164.069 83.712C161.525 83.688 156.077 83.232 153.293 82.632ZM181.037 85.224V88.296C184.061 88.584 188.405 88.56 191.357 88.296V85.2C188.765 85.512 183.989 85.632 181.037 85.224ZM182.957 95.472L180.197 95.208C179.933 96.432 179.789 97.392 179.789 98.328C179.789 100.8 181.781 102.264 185.909 102.264C188.621 102.264 190.541 102.096 192.101 101.808L192.053 98.568C189.941 99 188.165 99.192 186.029 99.192C183.581 99.192 182.669 98.544 182.669 97.488C182.669 96.84 182.765 96.264 182.957 95.472ZM177.341 83.616L173.981 83.328C173.957 84.096 173.813 85.008 173.741 85.68C173.477 87.528 172.733 91.584 172.733 95.184C172.733 98.448 173.189 101.376 173.669 103.032L176.453 102.84C176.429 102.504 176.405 102.12 176.405 101.856C176.405 101.616 176.453 101.088 176.525 100.728C176.789 99.456 177.581 96.84 178.253 94.848L176.765 93.672C176.429 94.464 176.045 95.304 175.685 96.12C175.613 95.64 175.589 95.016 175.589 94.56C175.589 92.16 176.429 87.36 176.741 85.752C176.837 85.32 177.149 84.12 177.341 83.616ZM205.613 82.68L202.301 82.344C202.253 83.592 201.989 85.032 201.653 86.352C200.909 86.424 200.189 86.448 199.469 86.448C198.581 86.448 197.309 86.4 196.277 86.28L196.493 89.064C197.525 89.136 198.509 89.16 199.493 89.16C199.901 89.16 200.309 89.16 200.741 89.136C199.685 91.728 197.741 95.256 195.845 97.608L198.749 99.096C200.693 96.384 202.733 92.184 203.885 88.824C205.493 88.584 206.981 88.272 208.085 87.984L207.989 85.2C207.053 85.488 205.925 85.752 204.749 85.968C205.109 84.672 205.421 83.448 205.613 82.68ZM204.365 99.288C204.365 98.448 205.253 97.824 206.645 97.824C207.317 97.824 207.965 97.92 208.589 98.064C208.589 98.256 208.589 98.4 208.589 98.544C208.589 99.864 208.085 100.776 206.429 100.776C205.109 100.776 204.365 100.176 204.365 99.288ZM211.229 90.144H208.229C208.277 91.608 208.397 93.744 208.493 95.52C207.941 95.472 207.413 95.424 206.837 95.424C203.501 95.424 201.533 97.224 201.533 99.576C201.533 102.216 203.885 103.536 206.861 103.536C210.269 103.536 211.493 101.808 211.493 99.576C211.493 99.504 211.493 99.408 211.493 99.336C212.813 100.128 213.893 101.136 214.733 101.904L216.341 99.336C215.117 98.232 213.437 97.032 211.373 96.264C211.325 95.064 211.253 93.912 211.229 93.216C211.205 92.16 211.157 91.152 211.229 90.144ZM215.357 91.416L217.061 88.896C215.837 88.008 212.861 86.376 211.133 85.632L209.597 88.008C211.229 88.752 213.965 90.312 215.357 91.416ZM226.949 82.728L223.661 82.584C223.661 83.232 223.589 84.192 223.469 85.104C223.133 87.576 222.797 90.552 222.797 92.784C222.797 94.392 222.965 95.856 223.109 96.792L226.061 96.6C225.917 95.472 225.893 94.704 225.941 94.056C226.061 90.888 228.533 86.64 231.365 86.64C233.381 86.64 234.629 88.704 234.629 92.4C234.629 98.208 230.861 99.96 225.533 100.776L227.357 103.56C233.717 102.408 237.869 99.168 237.869 92.376C237.869 87.096 235.277 83.832 231.941 83.832C229.229 83.832 227.141 85.848 225.989 87.72C226.133 86.376 226.613 83.904 226.949 82.728ZM249.101 99.288C249.101 98.472 250.037 97.8 251.741 97.8C252.413 97.8 253.061 97.872 253.709 97.968C253.733 98.4 253.733 98.736 253.733 99C253.733 100.392 252.893 100.752 251.621 100.752C249.965 100.752 249.101 100.2 249.101 99.288ZM256.613 82.584H253.373C253.469 83.04 253.517 83.784 253.517 84.24C253.517 84.528 253.517 84.912 253.517 85.368C253.205 85.368 252.893 85.368 252.581 85.368C251.117 85.368 248.381 85.128 246.653 84.84L246.725 87.576C248.309 87.792 251.093 88.008 252.605 88.008C252.893 88.008 253.181 88.008 253.493 88.008C253.469 88.824 253.469 89.688 253.469 90.48C253.085 90.48 252.701 90.48 252.317 90.48C251.045 90.48 248.093 90.312 246.533 90.024L246.557 92.856C248.141 93.048 250.877 93.168 252.269 93.168C252.701 93.168 253.109 93.168 253.517 93.168C253.541 93.888 253.565 94.656 253.613 95.4C253.133 95.352 252.629 95.328 252.125 95.328C248.429 95.328 246.197 97.032 246.197 99.456C246.197 102 248.213 103.464 252.053 103.464C255.221 103.464 256.781 101.88 256.781 99.84C256.781 99.576 256.781 99.288 256.757 98.952C258.677 99.816 260.309 101.088 261.605 102.288L263.333 99.6C261.941 98.448 259.637 96.84 256.613 95.976C256.541 95.016 256.493 94.032 256.445 93.12C258.749 93.048 260.621 92.88 262.781 92.64L262.805 89.808C260.861 90.072 258.821 90.264 256.397 90.384C256.397 89.64 256.397 88.752 256.397 87.912C258.725 87.792 260.909 87.576 262.493 87.384L262.517 84.624C260.405 84.984 258.413 85.176 256.445 85.272C256.445 84.888 256.445 84.528 256.469 84.288C256.493 83.664 256.541 83.064 256.613 82.584ZM275.189 82.968L271.325 82.92C271.541 83.88 271.637 85.032 271.637 86.16C271.637 88.224 271.397 94.536 271.397 97.752C271.397 101.856 273.941 103.584 277.877 103.584C283.349 103.584 286.757 100.368 288.293 98.064L286.109 95.424C284.381 98.04 281.861 100.32 277.901 100.32C276.029 100.32 274.589 99.528 274.589 97.104C274.589 94.128 274.781 88.752 274.877 86.16C274.925 85.2 275.045 83.976 275.189 82.968ZM304.373 96.144L301.517 95.856C301.325 96.816 301.085 97.968 301.085 99.072C301.085 101.496 303.269 102.888 307.301 102.888C309.221 102.888 310.853 102.72 312.197 102.552L312.317 99.48C310.589 99.792 308.933 99.984 307.325 99.984C304.757 99.984 304.037 99.192 304.037 98.136C304.037 97.608 304.181 96.816 304.373 96.144ZM301.661 82.848L297.989 82.56C298.061 83.112 298.013 84.096 297.917 84.984C297.869 85.368 297.797 85.824 297.701 86.352C296.957 86.4 296.237 86.424 295.541 86.424C294.557 86.424 293.741 86.376 292.517 86.232L292.589 89.232C293.429 89.28 294.341 89.328 295.493 89.328C295.997 89.328 296.525 89.304 297.077 89.28C296.933 89.976 296.741 90.648 296.573 91.296C295.685 94.656 293.861 99.696 292.421 102.096L295.757 103.224C297.101 100.368 298.709 95.472 299.573 92.112C299.837 91.128 300.077 90.072 300.293 89.04C301.901 88.848 303.533 88.584 304.973 88.248V85.248C303.653 85.56 302.309 85.824 300.965 86.016C301.037 85.68 301.109 85.368 301.157 85.104C301.253 84.576 301.469 83.496 301.661 82.848ZM303.077 90.096V92.904C304.589 92.736 306.077 92.664 307.709 92.664C309.173 92.664 310.637 92.808 311.837 92.952L311.909 90.072C310.493 89.928 309.053 89.856 307.685 89.856C306.149 89.856 304.421 89.976 303.077 90.096Z" fill="#468459"/>
</svg>
